<?xml version="1.0" encoding="UTF-8" standalone="no"?>
<!DOCTYPE svg PUBLIC "-//W3C//DTD SVG 1.1//EN" "http://www.w3.org/Graphics/SVG/1.1/DTD/svg11.dtd">
<svg version="1.1" xmlns="http://www.w3.org/2000/svg" xmlns:xlink="http://www.w3.org/1999/xlink" preserveAspectRatio="xMidYMid meet" viewBox="0 0 1920 1080" width="1920" height="1080"><defs><path d="M1744.48 428.96C1698.16 428.96 1660.62 466.12 1660.62 511.97C1660.62 557.81 1698.16 594.97 1744.48 594.97C1790.8 594.97 1828.35 557.81 1828.35 511.97C1828.35 466.12 1790.8 428.96 1744.48 428.96Z" id="f5q9fY0YGl"></path><path d="M1744.48 490.12C1732.29 490.12 1722.41 499.9 1722.41 511.97C1722.41 524.03 1732.29 533.81 1744.48 533.81C1756.67 533.81 1766.55 524.03 1766.55 511.97C1766.55 499.9 1756.67 490.12 1744.48 490.12Z" id="bILKqNvC"></path><path d="M1750.85 543.19C1748.72 555.72 1742.16 567.09 1732.32 575.26C1721.27 584.99 1707.78 591.56 1694.77 598.29C1682.82 604.33 1671.33 611.23 1660.4 618.94C1618.55 649.05 1586.94 691.91 1568.85 739.74C1550.78 787.49 1545.94 841.69 1559.66 891.18C1566.45 915.66 1580.19 942.08 1605.78 951.3C1626.19 958.64 1654.04 953.91 1664.43 933.1C1675.58 910.74 1660.02 885.62 1639.96 874.52C1613.97 860.13 1582.92 870.64 1559.54 885.21C1533.8 901.24 1513.11 924.24 1486.23 938.61C1474.14 945.28 1460.68 949.17 1446.85 949.98C1434.16 950.48 1421.49 948.54 1409.53 944.27C1384.74 935.33 1363.39 918.93 1348.49 897.37C1331.42 872.81 1323.78 842.71 1322.38 813.22C1319.27 747.24 1345.6 685.51 1366.73 624.32C1378.08 592.45 1386.59 559.66 1392.15 526.32C1397.44 492.82 1399.32 458.87 1397.77 424.99C1396.37 395.04 1393.38 363.71 1380.03 336.35C1368.28 312.3 1346.81 292.61 1319.67 287.64C1307.44 285.27 1294.76 286.71 1283.39 291.77C1279.52 293.51 1282.88 299.16 1286.73 297.43C1310.75 286.58 1339.14 297.13 1356.88 314.64C1377.6 335.09 1385.2 365.28 1388.58 393.15C1396.17 459.18 1390.19 526.05 1371 589.73C1352.57 651.66 1323.6 711.01 1316.91 775.9C1313.86 805.5 1315.43 836.11 1324.99 864.51C1333.19 889.8 1348.58 912.22 1369.3 929.09C1388.82 944.7 1412.82 955.34 1438.1 956.53C1466.47 957.86 1491.34 945.34 1513.35 928.69C1536.93 910.85 1558.61 888.85 1587.17 878.85C1600.19 874.29 1615.02 872.16 1628.38 876.55C1639.85 880.43 1649.57 888.17 1655.86 898.42C1661.67 907.97 1663.81 919.92 1658.51 930.18C1653.53 939.83 1643.81 945.41 1633.29 947.33C1622.14 949.28 1610.66 947.35 1600.79 941.86C1589.26 935.34 1580.82 924.4 1574.91 912.85C1563.13 889.8 1559.17 862.37 1558.57 836.8C1558.04 811.81 1561.28 786.89 1568.16 762.85C1581.87 714.21 1609.54 670.56 1647.81 637.18C1657.45 628.87 1667.77 621.35 1678.65 614.7C1690.53 607.46 1703.2 601.67 1715.3 594.84C1727.21 588.11 1738.95 580.08 1747.15 569.01C1754.15 559.53 1757.92 548.09 1757.94 536.35C1758.19 525.42 1753.49 514.95 1745.13 507.8C1741.86 505.15 1737.15 509.76 1740.45 512.43C1749.75 519.94 1752.58 531.77 1750.85 543.19Z" id="gZHdjqAfG"></path><path d="M957.52 894.24C986.84 913 1020.77 923.52 1055.66 924.69C1055.04 926.15 1054.34 927.58 1053.57 928.97C1049.51 936.39 1043.77 942.78 1036.79 947.64C1011.91 964.98 977.53 959.07 960.01 934.43C953.48 925.24 949.97 914.28 949.97 903.04C949.97 902.45 949.97 899.52 949.97 894.24C954 894.24 956.51 894.24 957.52 894.24Z" id="e4Pz72cEZu"></path><path d="M1163.36 903.04C1163.38 933.15 1138.72 957.57 1108.3 957.58C1088.12 957.59 1069.55 946.68 1059.9 929.14C1059.09 927.72 1058.36 926.25 1057.72 924.75C1059.33 924.8 1060.92 924.82 1062.53 924.82C1098.11 924.86 1133 915.17 1163.36 896.81C1163.36 898.06 1163.36 902.42 1163.36 903.04Z" id="a2GVY9vQd5"></path><path d="M1232.6 237.98C1251.66 281.45 1252.98 330.54 1236.28 374.96C1237.96 374.76 1239.62 374.5 1241.27 374.19C1278.97 366.97 1303.6 330.86 1296.3 293.55C1290.65 264.66 1267.06 242.52 1237.61 238.48C1235.95 238.24 1234.27 238.08 1232.6 237.98Z" id="b2X5rD23TM"></path><path d="M887.45 238.48C849.42 243.7 822.87 278.46 828.15 316.1C832.23 345.25 854.6 368.6 883.78 374.19C885.44 374.5 887.1 374.76 888.77 374.96C872.08 330.54 873.4 281.45 892.46 237.98C890.78 238.08 889.1 238.24 887.45 238.48Z" id="a4rb5VeTKx"></path><path d="M989.25 137.73C892.56 177.79 846.99 287.85 887.46 383.55C927.94 479.25 1039.13 524.36 1135.82 484.3C1206.4 455.05 1252.33 386.73 1252.33 311C1252.32 286.1 1247.32 261.45 1237.61 238.48C1197.13 142.78 1085.94 97.67 989.25 137.73ZM997.95 482.93C902.01 447.61 853.17 341.99 888.86 247.04C924.55 152.08 1031.25 103.74 1127.19 139.06C1199.77 165.78 1247.91 234.35 1247.91 311C1247.91 332.83 1243.97 354.49 1236.28 374.96C1200.59 469.92 1093.89 518.26 997.95 482.93Z" id="fEKGlizAD"></path><path d="M965.42 268.4C944.09 268.4 926.8 285.52 926.8 306.63C926.8 327.74 944.09 344.86 965.42 344.86C984.84 344.86 1140.21 344.86 1159.63 344.86C1180.96 344.86 1198.26 327.74 1198.26 306.63C1198.26 285.52 1180.96 268.4 1159.63 268.4C1120.79 268.4 984.84 268.4 965.42 268.4Z" id="k3hIZFW1ds"></path><path d="M864 732.67C864.05 837.73 947.54 924.18 1053.57 928.97C1055.66 929.08 1057.78 929.14 1059.9 929.14C1060.78 929.19 1061.65 929.19 1062.53 929.19C1172.23 929.19 1261.16 841.17 1261.16 732.59C1261.16 624.01 1172.23 535.99 1062.53 535.99C952.83 536.04 863.95 624.1 864 732.67ZM1062.53 924.82C1060.92 924.82 1059.33 924.8 1057.72 924.75C1056.69 924.75 1055.87 924.69 1055.66 924.69C948.41 921 864.48 831.94 868.21 725.78C871.93 619.62 961.91 536.55 1069.17 540.24C1176.42 543.93 1260.35 632.98 1256.62 739.14C1254.35 803.89 1219.3 863.16 1163.36 896.81C1133 915.17 1098.11 924.86 1062.53 924.82Z" id="c40JYjIEZ"></path><path d="M1115.13 684.17C1102.53 684.17 1092.32 674.06 1092.32 661.6C1092.32 649.13 1102.53 639.02 1115.13 639.02C1123.81 639.02 1193.25 639.02 1201.94 639.02C1214.53 639.02 1224.74 649.13 1224.74 661.6C1224.74 674.06 1214.53 684.17 1201.94 684.17C1184.57 684.17 1123.81 684.17 1115.13 684.17Z" id="a52cttjys9"></path><path d="M1120.91 650.14C1114.52 650.14 1109.34 655.27 1109.34 661.6C1109.34 667.92 1114.52 673.05 1120.91 673.05C1127.31 673.05 1132.49 667.92 1132.49 661.6C1132.49 655.27 1127.31 650.14 1120.91 650.14Z" id="aclxawnJc"></path><path d="M1158.53 650.14C1152.14 650.14 1146.96 655.27 1146.96 661.6C1146.96 667.92 1152.14 673.05 1158.53 673.05C1164.92 673.05 1170.11 667.92 1170.11 661.6C1170.11 655.27 1164.92 650.14 1158.53 650.14Z" id="b3AueUz2G8"></path><path d="M1196.15 650.14C1189.76 650.14 1184.57 655.27 1184.57 661.6C1184.57 667.92 1189.76 673.05 1196.15 673.05C1202.54 673.05 1207.72 667.92 1207.72 661.6C1207.72 655.27 1202.54 650.14 1196.15 650.14Z" id="j1WOBXoLhF"></path><path d="M387.99 951.88C407.83 935.28 419.89 909.06 416.73 883.53C413.57 858.01 393.99 834.54 368.59 829.12C343.19 823.7 314.23 838.7 306.52 863.26C302.27 815.92 297.38 766.59 271.95 726.27C248.92 689.76 209.04 663.63 165.81 658.96C122.58 654.29 77.07 671.94 50.11 705.71C23.15 739.48 16.55 788.57 35.43 827.34C49.34 855.9 74.97 877.16 101.82 894.45C187.48 949.62 293.73 968.26 394.84 953.53C393.47 953.2 389.36 952.21 387.99 951.88Z" id="f1y4n92kis"></path><path d="M190.55 768.93C219.85 803.99 245.65 841.79 267.59 881.78C279.85 904.22 290.86 927.3 300.58 950.92C302.56 955.73 294.67 957.82 292.72 953.07C275.5 911.42 254.21 871.54 229.14 834.01C204.19 796.61 175.63 761.69 143.87 729.75C125.9 711.69 106.95 694.62 87.09 678.62C83.02 675.34 88.82 669.66 92.86 672.92C128.52 701.67 161.25 733.83 190.55 768.93Z" id="bxk1ow1xm"></path><path d="M381.26 126.83C343.47 126.83 312.84 157.15 312.84 194.55C312.84 231.95 343.47 262.27 381.26 262.27C419.04 262.27 449.67 231.95 449.67 194.55C449.67 157.15 419.04 126.83 381.26 126.83Z" id="daNd1H9U9"></path><path d="M631.68 447.69C621.33 456.13 606.03 454.67 597.5 444.43C596.91 443.73 596.37 442.99 595.87 442.23C595.44 441.57 595.04 440.89 594.68 440.18C583.9 439.15 497.65 430.92 486.87 429.89C469.4 428.15 455.15 415.28 451.81 398.21C451.4 396.09 449.36 385.44 445.69 366.28L487.77 359.81L495.32 385.38C558.38 400.72 593.42 409.23 600.43 410.94C601.24 410.23 602.11 409.58 603.01 408.99C614.26 401.77 629.3 404.94 636.6 416.07C641.88 424.13 641.81 434.52 636.42 442.5C635.11 444.46 633.51 446.2 631.68 447.69Z" id="b3z9ZCKLkH"></path><path d="M450.9 394.09C445.61 395.5 440.16 392.4 438.72 387.16C437.08 381.13 423.91 332.88 422.26 326.85C418.32 312.41 426.95 297.54 441.54 293.64C454.01 290.3 467.14 296.05 473.03 307.43C476.14 313.44 501.04 361.54 504.15 367.55C506.65 372.38 504.72 378.3 499.84 380.78C499.22 381.09 498.57 381.34 497.9 381.52C488.5 384.03 455.6 392.83 450.9 394.09Z" id="kEpPYS1mu"></path><path d="M497.73 935.35L510.6 832.06L470.67 832.06L470.68 935.35L470.68 935.35L497.73 935.35Z" id="c6wMKnRcE"></path><path d="M464.88 960.22L464.88 927.7C496.18 927.7 513.58 927.7 517.06 927.7C535.2 927.7 549.91 942.26 549.91 960.22C549.91 960.22 549.91 960.22 549.91 960.22L464.88 960.22Z" id="asPk0c4i0"></path><path d="M254.83 918.71L303.74 826.58L266.38 812.62L229.52 909.25L229.52 909.25L254.83 918.71Z" id="a7b7oyJw5"></path><path d="M215.22 930.49L226.83 900.07C256.12 911.01 272.39 917.1 275.64 918.31C292.62 924.66 301.18 943.42 294.78 960.22C294.78 960.22 294.78 960.22 294.78 960.22L215.22 930.49Z" id="b5JQx5odgr"></path><path d="M460.38 904.56C453.48 883.46 398.28 714.72 391.38 693.62C390.81 691.9 388.94 690.96 387.2 691.51C386.33 691.79 385.62 692.42 385.23 693.24C375.67 713.38 299.15 874.5 289.59 894.64C287.45 899.15 282.24 901.36 277.46 899.79C273.7 898.54 243.56 888.6 239.8 887.36C234.83 885.71 232.01 880.54 233.34 875.52C239.19 853.56 286.06 677.85 291.92 655.89C298.05 632.62 302.48 608.95 305.17 585.05C309.28 545.71 327.91 509.24 357.51 482.66C370.43 470.94 378.83 455.13 381.27 437.96C381.28 437.88 381.33 437.52 381.43 436.86L467.22 450.27C499.83 713.61 517.94 859.91 521.56 889.18C522.15 894.03 519.05 898.57 514.29 899.86C510.1 900.98 476.6 909.9 472.41 911.02C471.57 911.25 470.7 911.36 469.82 911.36C465.52 911.36 461.71 908.61 460.38 904.56Z" id="bAoT8BkMv"></path><path d="M408.44 154.64C378.5 154.64 354.23 178.66 354.23 208.29C354.23 237.92 378.5 261.94 408.44 261.94C438.37 261.94 462.64 237.92 462.64 208.29C462.64 178.66 438.37 154.64 408.44 154.64Z" id="f1xI7RJun1"></path><path d="M461.38 459.61C452.87 459.19 384.84 455.82 376.33 455.4C371.42 455.18 367.43 451.43 366.95 446.59C365.79 435.38 356.49 345.68 355.33 334.47C352.45 306.66 372.89 281.8 400.99 278.95C407.39 278.3 413.85 278.85 420.05 280.58C420.05 280.58 420.05 280.58 420.05 280.58C426.7 282.38 432.9 285.54 438.24 289.84C498.07 338.47 478.78 426.58 471.44 452.43C470.26 456.68 466.35 459.63 461.89 459.62C461.72 459.62 461.55 459.62 461.38 459.61Z" id="c22NugsBDd"></path><path d="M380.91 533.87C368.08 530.03 360.83 516.61 364.72 503.9C364.99 503.03 365.3 502.18 365.67 501.34C365.98 500.62 366.34 499.91 366.73 499.23C361.63 489.77 320.78 414.14 315.67 404.69C307.45 389.33 310.39 370.45 322.89 358.25C324.46 356.73 332.28 349.16 346.36 335.52L375.12 366.6L357.79 386.99C379.82 447.46 392.07 481.05 394.52 487.77C395.56 488.04 396.59 488.4 397.58 488.82C409.89 494.08 415.56 508.23 410.23 520.42C406.38 529.23 397.6 534.93 387.9 534.91C385.53 534.91 383.18 534.56 380.91 533.87Z" id="goRlnc4C7"></path><path d="M325.86 355.21C321.74 351.63 321.33 345.42 324.94 341.34C329.1 336.64 362.4 299.06 366.56 294.37C376.52 283.12 393.81 282 405.17 291.86C414.89 300.29 417.32 314.29 411.01 325.45C407.68 331.34 381.01 378.5 377.68 384.39C375 389.13 368.95 390.82 364.17 388.17C363.56 387.83 362.99 387.44 362.47 386.98C362.47 386.98 329.52 358.39 325.86 355.21Z" id="b15YKD18mk"></path><path d="M373.56 260.41C378.5 262.14 384.57 263.67 388.46 260.07C392.26 256.56 391.56 250.13 389.33 245.4C387.09 240.66 383.62 236.45 382.55 231.3C381.03 223.91 384.97 216.24 390.6 211.42C396.23 206.61 403.32 204.08 410.23 201.64C414.03 200.31 444.38 189.63 448.18 188.29C457.57 184.99 467.69 181.11 472.95 172.41C480.55 159.83 473.6 141.84 461.13 134.5C448.65 127.15 432.89 128.52 419.44 133.68C411.99 136.54 404.91 140.48 397.21 142.49C382.02 146.45 364.74 142.89 351.39 151.37C339.77 158.75 334.38 173.81 334.77 187.91C335.16 202 340.4 215.42 345.93 228.3C349.22 235.97 352.74 243.73 358.31 249.82C363.88 255.92 371.93 260.19 379.97 259.07C378.69 259.33 374.84 260.14 373.56 260.41Z" id="a1EqvX2nB"></path><path d="M323.88 118.1C299.5 118.1 279.74 137.65 279.74 161.78C279.74 185.91 299.5 205.47 323.88 205.47C348.25 205.47 368.02 185.91 368.02 161.78C368.02 137.65 348.25 118.1 323.88 118.1Z" id="asfiPAHwH"></path><path d="M681.87 413.97L681.09 413.87C682.86 401.12 683.84 394.04 684.04 392.63C684.98 385.84 680.19 379.58 673.33 378.65C668.78 378.03 632.41 373.08 627.87 372.46C621.01 371.53 614.68 376.27 613.74 383.06C612.12 394.72 599.17 487.93 597.56 499.58C596.61 506.37 601.41 512.63 608.27 513.56C612.81 514.18 649.18 519.13 653.73 519.75C660.59 520.68 666.91 515.94 667.86 509.15C668.6 503.8 672.31 477.08 678.99 428.98L679.77 429.09L681.87 413.97Z" id="a25mabdiBP"></path><path d="M666.24 384.11C666.82 386.35 665.45 388.64 663.18 389.22C662.65 389.35 662.1 389.38 661.55 389.31C659.07 388.97 639.19 386.27 636.71 385.93C634.39 385.61 632.76 383.49 633.08 381.2C633.16 380.66 633.34 380.14 633.61 379.67C633.08 379.6 628.85 379.02 628.33 378.95C623.44 378.28 618.93 381.67 618.26 386.5C618.26 386.5 618.26 386.5 618.26 386.5C616.72 397.6 604.39 486.38 602.85 497.48C602.18 502.31 605.59 506.77 610.48 507.44C614.84 508.03 649.7 512.77 654.05 513.37C658.94 514.03 663.44 510.65 664.12 505.81C664.12 505.81 664.12 505.81 664.12 505.81C673.36 439.23 678.5 402.24 679.53 394.84C680.2 390 676.78 385.54 671.9 384.88C671.9 384.88 666.8 384.18 666.24 384.11Z" id="b3cqqK0NHh"></path><path d="M641 428.96C627.59 428.96 616.72 439.72 616.72 452.99C616.72 466.26 627.59 477.01 641 477.01C654.4 477.01 665.27 466.26 665.27 452.99C665.27 439.72 654.4 428.96 641 428.96Z" id="b4jJNjvyEJ"></path><path d="M637.08 461.65C637.07 461.65 637.06 461.65 637.05 461.63C633.62 459.04 631.72 457.6 631.34 457.31C630.23 456.47 630.01 454.9 630.86 453.8C631.71 452.69 633.3 452.48 634.41 453.32C634.42 453.32 634.42 453.32 634.43 453.33C634.67 453.52 635.9 454.45 638.12 456.13C643.36 449.37 646.27 445.61 646.85 444.86C647.71 443.76 649.3 443.55 650.41 444.4C650.41 444.4 650.41 444.4 650.41 444.4C650.4 444.4 650.39 444.43 650.35 444.47C650.39 444.43 650.41 444.4 650.41 444.4C651.52 445.24 651.73 446.81 650.88 447.91C649.85 449.24 641.63 459.85 640.61 461.17C640.13 461.79 639.38 462.15 638.59 462.15C638.04 462.15 637.51 461.98 637.08 461.65Z" id="d1NEnXCJpg"></path><path d="M40.41 961.9C38.96 961.9 37.79 960.73 37.79 959.3C37.79 957.87 38.97 956.71 40.41 956.7C225.64 956.7 1707.48 956.7 1892.71 956.7C1894.16 956.7 1895.34 957.87 1895.34 959.3C1895.34 960.74 1894.16 961.9 1892.71 961.9C1522.25 961.9 225.64 961.9 40.41 961.9Z" id="a1y5QFqBqc"></path></defs><g><g><g><use xlink:href="#f5q9fY0YGl" opacity="1" fill="#f2f2f2" fill-opacity="1"></use><g><use xlink:href="#f5q9fY0YGl" opacity="1" fill-opacity="0" stroke="#000000" stroke-width="1" stroke-opacity="0"></use></g></g><g><use xlink:href="#bILKqNvC" opacity="1" fill="#e6e6e6" fill-opacity="1"></use><g><use xlink:href="#bILKqNvC" opacity="1" fill-opacity="0" stroke="#000000" stroke-width="1" stroke-opacity="0"></use></g></g><g><use xlink:href="#gZHdjqAfG" opacity="1" fill="#cccccc" fill-opacity="1"></use><g><use xlink:href="#gZHdjqAfG" opacity="1" fill-opacity="0" stroke="#000000" stroke-width="1" stroke-opacity="0"></use></g></g><g><use xlink:href="#e4Pz72cEZu" opacity="1" fill="#3f3d56" fill-opacity="1"></use><g><use xlink:href="#e4Pz72cEZu" opacity="1" fill-opacity="0" stroke="#000000" stroke-width="1" stroke-opacity="0"></use></g></g><g><use xlink:href="#a2GVY9vQd5" opacity="1" fill="#3f3d56" fill-opacity="1"></use><g><use xlink:href="#a2GVY9vQd5" opacity="1" fill-opacity="0" stroke="#000000" stroke-width="1" stroke-opacity="0"></use></g></g><g><use xlink:href="#b2X5rD23TM" opacity="1" fill="#3f3d56" fill-opacity="1"></use><g><use xlink:href="#b2X5rD23TM" opacity="1" fill-opacity="0" stroke="#000000" stroke-width="1" stroke-opacity="0"></use></g></g><g><use xlink:href="#a4rb5VeTKx" opacity="1" fill="#3f3d56" fill-opacity="1"></use><g><use xlink:href="#a4rb5VeTKx" opacity="1" fill-opacity="0" stroke="#000000" stroke-width="1" stroke-opacity="0"></use></g></g><g><use xlink:href="#fEKGlizAD" opacity="1" fill="#3f3d56" fill-opacity="1"></use><g><use xlink:href="#fEKGlizAD" opacity="1" fill-opacity="0" stroke="#000000" stroke-width="1" stroke-opacity="0"></use></g></g><g><use xlink:href="#k3hIZFW1ds" opacity="1" fill="#3f3d56" fill-opacity="1"></use><g><use xlink:href="#k3hIZFW1ds" opacity="1" fill-opacity="0" stroke="#000000" stroke-width="1" stroke-opacity="0"></use></g></g><g><use xlink:href="#c40JYjIEZ" opacity="1" fill="#3f3d56" fill-opacity="1"></use><g><use xlink:href="#c40JYjIEZ" opacity="1" fill-opacity="0" stroke="#000000" stroke-width="1" stroke-opacity="0"></use></g></g><g><use xlink:href="#a52cttjys9" opacity="1" fill="#3f3d56" fill-opacity="1"></use><g><use xlink:href="#a52cttjys9" opacity="1" fill-opacity="0" stroke="#000000" stroke-width="1" stroke-opacity="0"></use></g></g><g><use xlink:href="#aclxawnJc" opacity="1" fill="#f2f2f2" fill-opacity="1"></use><g><use xlink:href="#aclxawnJc" opacity="1" fill-opacity="0" stroke="#000000" stroke-width="1" stroke-opacity="0"></use></g></g><g><use xlink:href="#b3AueUz2G8" opacity="1" fill="#f2f2f2" fill-opacity="1"></use><g><use xlink:href="#b3AueUz2G8" opacity="1" fill-opacity="0" stroke="#000000" stroke-width="1" stroke-opacity="0"></use></g></g><g><use xlink:href="#j1WOBXoLhF" opacity="1" fill="#850009" fill-opacity="1"></use><g><use xlink:href="#j1WOBXoLhF" opacity="1" fill-opacity="0" stroke="#000000" stroke-width="1" stroke-opacity="0"></use></g></g><g><use xlink:href="#f1y4n92kis" opacity="1" fill="#f2f2f2" fill-opacity="1"></use><g><use xlink:href="#f1y4n92kis" opacity="1" fill-opacity="0" stroke="#000000" stroke-width="1" stroke-opacity="0"></use></g></g><g><use xlink:href="#bxk1ow1xm" opacity="1" fill="#ffffff" fill-opacity="1"></use><g><use xlink:href="#bxk1ow1xm" opacity="1" fill-opacity="0" stroke="#000000" stroke-width="1" stroke-opacity="0"></use></g></g><g><use xlink:href="#daNd1H9U9" opacity="1" fill="#2f2e41" fill-opacity="1"></use><g><use xlink:href="#daNd1H9U9" opacity="1" fill-opacity="0" stroke="#000000" stroke-width="1" stroke-opacity="0"></use></g></g><g><use xlink:href="#b3z9ZCKLkH" opacity="1" fill="#ffb8b8" fill-opacity="1"></use><g><use xlink:href="#b3z9ZCKLkH" opacity="1" fill-opacity="0" stroke="#000000" stroke-width="1" stroke-opacity="0"></use></g></g><g><use xlink:href="#kEpPYS1mu" opacity="1" fill="#2f2e41" fill-opacity="1"></use><g><use xlink:href="#kEpPYS1mu" opacity="1" fill-opacity="0" stroke="#000000" stroke-width="1" stroke-opacity="0"></use></g></g><g><use xlink:href="#c6wMKnRcE" opacity="1" fill="#ffb8b8" fill-opacity="1"></use><g><use xlink:href="#c6wMKnRcE" opacity="1" fill-opacity="0" stroke="#000000" stroke-width="1" stroke-opacity="0"></use></g></g><g><use xlink:href="#asPk0c4i0" opacity="1" fill="#2f2e41" fill-opacity="1"></use><g><use xlink:href="#asPk0c4i0" opacity="1" fill-opacity="0" stroke="#000000" stroke-width="1" stroke-opacity="0"></use></g></g><g><use xlink:href="#a7b7oyJw5" opacity="1" fill="#ffb8b8" fill-opacity="1"></use><g><use xlink:href="#a7b7oyJw5" opacity="1" fill-opacity="0" stroke="#000000" stroke-width="1" stroke-opacity="0"></use></g></g><g><use xlink:href="#b5JQx5odgr" opacity="1" fill="#2f2e41" fill-opacity="1"></use><g><use xlink:href="#b5JQx5odgr" opacity="1" fill-opacity="0" stroke="#000000" stroke-width="1" stroke-opacity="0"></use></g></g><g><use xlink:href="#bAoT8BkMv" opacity="1" fill="#2f2e41" fill-opacity="1"></use><g><use xlink:href="#bAoT8BkMv" opacity="1" fill-opacity="0" stroke="#000000" stroke-width="1" stroke-opacity="0"></use></g></g><g><use xlink:href="#f1xI7RJun1" opacity="1" fill="#ffb8b8" fill-opacity="1"></use><g><use xlink:href="#f1xI7RJun1" opacity="1" fill-opacity="0" stroke="#000000" stroke-width="1" stroke-opacity="0"></use></g></g><g><use xlink:href="#c22NugsBDd" opacity="1" fill="#850009" fill-opacity="1"></use><g><use xlink:href="#c22NugsBDd" opacity="1" fill-opacity="0" stroke="#000000" stroke-width="1" stroke-opacity="0"></use></g></g><g><use xlink:href="#goRlnc4C7" opacity="1" fill="#ffb8b8" fill-opacity="1"></use><g><use xlink:href="#goRlnc4C7" opacity="1" fill-opacity="0" stroke="#000000" stroke-width="1" stroke-opacity="0"></use></g></g><g><use xlink:href="#b15YKD18mk" opacity="1" fill="#2f2e41" fill-opacity="1"></use><g><use xlink:href="#b15YKD18mk" opacity="1" fill-opacity="0" stroke="#000000" stroke-width="1" stroke-opacity="0"></use></g></g><g><use xlink:href="#a1EqvX2nB" opacity="1" fill="#2f2e41" fill-opacity="1"></use><g><use xlink:href="#a1EqvX2nB" opacity="1" fill-opacity="0" stroke="#000000" stroke-width="1" stroke-opacity="0"></use></g></g><g><use xlink:href="#asfiPAHwH" opacity="1" fill="#2f2e41" fill-opacity="1"></use><g><use xlink:href="#asfiPAHwH" opacity="1" fill-opacity="0" stroke="#000000" stroke-width="1" stroke-opacity="0"></use></g></g><g><use xlink:href="#a25mabdiBP" opacity="1" fill="#3f3d56" fill-opacity="1"></use><g><use xlink:href="#a25mabdiBP" opacity="1" fill-opacity="0" stroke="#000000" stroke-width="1" stroke-opacity="0"></use></g></g><g><use xlink:href="#b3cqqK0NHh" opacity="1" fill="#ffffff" fill-opacity="1"></use><g><use xlink:href="#b3cqqK0NHh" opacity="1" fill-opacity="0" stroke="#000000" stroke-width="1" stroke-opacity="0"></use></g></g><g><use xlink:href="#b4jJNjvyEJ" opacity="1" fill="#850009" fill-opacity="1"></use><g><use xlink:href="#b4jJNjvyEJ" opacity="1" fill-opacity="0" stroke="#000000" stroke-width="1" stroke-opacity="0"></use></g></g><g><use xlink:href="#d1NEnXCJpg" opacity="1" fill="#ffffff" fill-opacity="1"></use><g><use xlink:href="#d1NEnXCJpg" opacity="1" fill-opacity="0" stroke="#000000" stroke-width="1" stroke-opacity="0"></use></g></g><g><use xlink:href="#a1y5QFqBqc" opacity="1" fill="#cccccc" fill-opacity="1"></use><g><use xlink:href="#a1y5QFqBqc" opacity="1" fill-opacity="0" stroke="#000000" stroke-width="1" stroke-opacity="0"></use></g></g></g></g></svg>