<?xml version="1.0" encoding="UTF-8" standalone="no"?>
<!DOCTYPE svg PUBLIC "-//W3C//DTD SVG 1.1//EN" "http://www.w3.org/Graphics/SVG/1.1/DTD/svg11.dtd">
<svg version="1.1" xmlns="http://www.w3.org/2000/svg" xmlns:xlink="http://www.w3.org/1999/xlink" preserveAspectRatio="xMidYMid meet" viewBox="0 0 750 1334" width="750" height="1334"><defs><path d="M1044.48 595.62C998.16 595.62 960.62 632.79 960.62 678.63C960.62 724.48 998.16 761.64 1044.48 761.64C1090.8 761.64 1128.35 724.48 1128.35 678.63C1128.35 632.79 1090.8 595.62 1044.48 595.62Z" id="i3bo0sWku"></path><path d="M1044.48 656.79C1032.29 656.79 1022.41 666.57 1022.41 678.63C1022.41 690.7 1032.29 700.48 1044.48 700.48C1056.67 700.48 1066.55 690.7 1066.55 678.63C1066.55 666.57 1056.67 656.79 1044.48 656.79Z" id="a1bXUODxvb"></path><path d="M1050.85 709.86C1048.72 722.39 1042.16 733.76 1032.32 741.93C1021.27 751.65 1007.78 758.23 994.77 764.96C982.82 770.99 971.33 777.9 960.4 785.61C918.55 815.71 886.94 858.57 868.85 906.41C850.78 954.16 845.94 1008.36 859.66 1057.85C866.45 1082.33 880.19 1108.75 905.78 1117.96C926.19 1125.31 954.04 1120.58 964.43 1099.77C975.58 1077.41 960.02 1052.28 939.96 1041.18C913.97 1026.8 882.92 1037.31 859.54 1051.87C833.8 1067.9 813.11 1090.91 786.23 1105.28C774.14 1111.95 760.68 1115.84 746.85 1116.65C734.16 1117.14 721.49 1115.2 709.53 1110.94C684.74 1102 663.39 1085.6 648.49 1064.04C631.42 1039.48 623.78 1009.38 622.38 979.88C619.27 913.9 645.6 852.17 666.73 790.98C678.08 759.12 686.59 726.33 692.15 692.99C697.44 659.49 699.32 625.54 697.77 591.66C696.37 561.7 693.38 530.38 680.03 503.02C668.28 478.96 646.81 459.27 619.67 454.31C607.44 451.93 594.76 453.37 583.39 458.43C579.52 460.18 582.88 465.83 586.73 464.09C610.75 453.25 639.14 463.8 656.88 481.31C677.6 501.76 685.2 531.95 688.58 559.81C696.17 625.84 690.19 692.71 671 756.39C652.57 818.33 623.6 877.68 616.91 942.56C613.86 972.17 615.43 1002.78 624.99 1031.17C633.19 1056.46 648.58 1078.88 669.3 1095.76C688.82 1111.37 712.82 1122.01 738.1 1123.19C766.47 1124.52 791.34 1112.01 813.35 1095.35C836.93 1077.52 858.61 1055.51 887.17 1045.51C900.19 1040.95 915.02 1038.83 928.38 1043.22C939.85 1047.09 949.57 1054.83 955.86 1065.09C961.67 1074.64 963.81 1086.59 958.51 1096.85C953.53 1106.5 943.81 1112.08 933.29 1113.99C922.14 1115.94 910.66 1114.01 900.79 1108.53C889.26 1102.01 880.82 1091.07 874.91 1079.52C863.13 1056.47 859.17 1029.04 858.57 1003.46C858.04 978.48 861.28 953.55 868.16 929.51C881.87 880.88 909.54 837.23 947.81 803.85C957.45 795.53 967.77 788.02 978.65 781.37C990.53 774.13 1003.2 768.34 1015.3 761.5C1027.21 754.78 1038.95 746.74 1047.15 735.68C1054.15 726.19 1057.92 714.76 1057.94 703.02C1058.19 692.09 1053.49 681.61 1045.13 674.46C1041.86 671.82 1037.15 676.43 1040.45 679.1C1049.75 686.61 1052.58 698.44 1050.85 709.86Z" id="a2lrRDDGo"></path><path d="M257.52 1060.9C286.84 1079.66 320.77 1090.19 355.66 1091.35C355.04 1092.82 354.34 1094.24 353.57 1095.63C349.51 1103.06 343.77 1109.45 336.79 1114.31C311.91 1131.65 277.53 1125.73 260.01 1101.1C253.48 1091.91 249.97 1080.94 249.97 1069.71C249.97 1069.12 249.97 1066.18 249.97 1060.9C254 1060.9 256.51 1060.9 257.52 1060.9Z" id="a6fyGIYn9k"></path><path d="M463.36 1069.71C463.38 1099.82 438.72 1124.24 408.3 1124.25C388.12 1124.26 369.55 1113.35 359.9 1095.81C359.09 1094.39 358.36 1092.92 357.72 1091.42C359.33 1091.46 360.92 1091.48 362.53 1091.48C398.11 1091.53 433 1081.83 463.36 1063.48C463.36 1064.73 463.36 1069.08 463.36 1069.71Z" id="a1aS1dxd8n"></path><path d="M532.6 404.64C551.66 448.12 552.98 497.21 536.28 541.63C537.96 541.43 539.62 541.17 541.27 540.86C578.97 533.63 603.6 497.52 596.3 460.21C590.65 431.32 567.06 409.19 537.61 405.14C535.95 404.9 534.27 404.75 532.6 404.64Z" id="b2ug2GJlRs"></path><path d="M187.45 405.14C149.42 410.37 122.87 445.12 128.15 482.77C132.23 511.92 154.6 535.26 183.78 540.86C185.44 541.17 187.1 541.43 188.77 541.63C172.08 497.21 173.4 448.12 192.46 404.64C190.78 404.75 189.1 404.9 187.45 405.14Z" id="a1iebU8Pt"></path><path d="M289.25 304.4C192.56 344.46 146.99 454.52 187.46 550.22C227.94 645.92 339.13 691.02 435.82 650.96C506.4 621.72 552.33 553.39 552.33 477.67C552.32 452.77 547.32 428.12 537.61 405.14C497.13 309.44 385.94 264.34 289.25 304.4ZM297.95 649.6C202.01 614.28 153.17 508.66 188.86 413.7C224.55 318.74 331.25 270.4 427.19 305.73C499.77 332.45 547.91 401.02 547.91 477.67C547.91 499.5 543.97 521.16 536.28 541.63C500.59 636.58 393.89 684.93 297.95 649.6Z" id="cuWfwITNe"></path><path d="M265.42 435.07C244.09 435.07 226.8 452.19 226.8 473.3C226.8 494.41 244.09 511.52 265.42 511.52C284.84 511.52 440.21 511.52 459.63 511.52C480.96 511.52 498.26 494.41 498.26 473.3C498.26 452.19 480.96 435.07 459.63 435.07C420.79 435.07 284.84 435.07 265.42 435.07Z" id="jsaem2h83"></path><path d="M164 899.34C164.05 1004.39 247.54 1090.85 353.57 1095.63C355.66 1095.74 357.78 1095.81 359.9 1095.81C360.78 1095.85 361.65 1095.85 362.53 1095.85C472.23 1095.85 561.16 1007.83 561.16 899.26C561.16 790.68 472.23 702.66 362.53 702.66C252.83 702.71 163.95 790.77 164 899.34ZM362.53 1091.48C360.92 1091.48 359.33 1091.46 357.72 1091.42C356.69 1091.42 355.87 1091.36 355.66 1091.35C248.41 1087.66 164.48 998.61 168.21 892.45C171.93 786.29 261.91 703.22 369.17 706.91C476.42 710.6 560.35 799.65 556.62 905.81C554.35 970.56 519.3 1029.82 463.36 1063.48C433 1081.83 398.11 1091.53 362.53 1091.48Z" id="c2amcNFDOG"></path><path d="M415.13 850.84C402.53 850.84 392.32 840.73 392.32 828.26C392.32 815.8 402.53 805.69 415.13 805.69C423.81 805.69 493.25 805.69 501.94 805.69C514.53 805.69 524.74 815.8 524.74 828.26C524.74 840.73 514.53 850.84 501.94 850.84C484.57 850.84 423.81 850.84 415.13 850.84Z" id="aOavg3I4q"></path><path d="M420.91 816.81C414.52 816.81 409.34 821.94 409.34 828.26C409.34 834.59 414.52 839.72 420.91 839.72C427.31 839.72 432.49 834.59 432.49 828.26C432.49 821.94 427.31 816.81 420.91 816.81Z" id="a1mqjQRM1t"></path><path d="M458.53 816.81C452.14 816.81 446.96 821.94 446.96 828.26C446.96 834.59 452.14 839.72 458.53 839.72C464.92 839.72 470.11 834.59 470.11 828.26C470.11 821.94 464.92 816.81 458.53 816.81Z" id="b1a4QwOTiA"></path><path d="M496.15 816.81C489.76 816.81 484.57 821.94 484.57 828.26C484.57 834.59 489.76 839.72 496.15 839.72C502.54 839.72 507.72 834.59 507.72 828.26C507.72 821.94 502.54 816.81 496.15 816.81Z" id="cxeTxlIyI"></path><path d="M-312.01 1118.54C-292.17 1101.95 -280.11 1075.72 -283.27 1050.2C-286.43 1024.67 -306.01 1001.21 -331.41 995.79C-356.81 990.37 -385.77 1005.37 -393.48 1029.93C-397.73 982.58 -402.62 933.25 -428.05 892.93C-451.08 856.42 -490.96 830.3 -534.19 825.63C-577.42 820.95 -622.93 838.61 -649.89 872.37C-676.85 906.14 -683.45 955.24 -664.57 994.01C-650.66 1022.57 -625.03 1043.82 -598.18 1061.12C-512.52 1116.28 -406.27 1134.92 -305.16 1120.2C-306.53 1119.87 -310.64 1118.87 -312.01 1118.54Z" id="d26oxpHFy5"></path><path d="M-509.45 935.6C-480.15 970.66 -454.35 1008.46 -432.41 1048.45C-420.15 1070.89 -409.14 1093.97 -399.42 1117.59C-397.44 1122.39 -405.33 1124.49 -407.28 1119.73C-424.5 1078.09 -445.79 1038.21 -470.86 1000.67C-495.81 963.27 -524.37 928.36 -556.13 896.41C-574.1 878.35 -593.05 861.29 -612.91 845.29C-616.98 842.01 -611.18 836.33 -607.14 839.58C-571.48 868.34 -538.75 900.5 -509.45 935.6Z" id="fGZJz15Up"></path><path d="M-318.74 293.5C-356.53 293.5 -387.16 323.82 -387.16 361.22C-387.16 398.61 -356.53 428.93 -318.74 428.93C-280.96 428.93 -250.33 398.61 -250.33 361.22C-250.33 323.82 -280.96 293.5 -318.74 293.5Z" id="b3YimL6gQD"></path><path d="M-68.32 614.35C-78.67 622.8 -93.97 621.34 -102.5 611.1C-103.09 610.4 -103.63 609.66 -104.13 608.9C-104.56 608.24 -104.96 607.55 -105.32 606.85C-116.1 605.82 -202.35 597.58 -213.13 596.55C-230.6 594.82 -244.85 581.94 -248.19 564.88C-248.6 562.75 -250.64 552.11 -254.31 532.95L-212.23 526.47L-204.68 552.05C-141.62 567.38 -106.58 575.9 -99.57 577.6C-98.76 576.9 -97.89 576.25 -96.99 575.66C-85.74 568.43 -70.7 571.6 -63.4 582.74C-58.12 590.79 -58.19 601.19 -63.58 609.17C-64.89 611.12 -66.49 612.87 -68.32 614.35Z" id="a4FnFr4K0C"></path><path d="M-249.1 560.75C-254.39 562.16 -259.84 559.07 -261.28 553.83C-262.92 547.8 -276.09 499.54 -277.74 493.51C-281.68 479.07 -273.05 464.2 -258.46 460.3C-245.99 456.97 -232.86 462.72 -226.97 474.1C-223.86 480.11 -198.96 528.2 -195.85 534.22C-193.35 539.05 -195.28 544.97 -200.16 547.45C-200.78 547.76 -201.43 548.01 -202.1 548.19C-211.5 550.7 -244.4 559.5 -249.1 560.75Z" id="a5uDXoLLyv"></path><path d="M-202.27 1102.02L-189.4 998.72L-229.33 998.73L-229.32 1102.02L-229.32 1102.02L-202.27 1102.02Z" id="b2uBfuiC5d"></path><path d="M-235.12 1126.89L-235.12 1094.37C-203.82 1094.37 -186.42 1094.37 -182.94 1094.37C-164.8 1094.37 -150.09 1108.92 -150.09 1126.88C-150.09 1126.88 -150.09 1126.88 -150.09 1126.88L-235.12 1126.89Z" id="b69umrmnuP"></path><path d="M-445.17 1085.38L-396.26 993.25L-433.62 979.28L-470.48 1075.92L-470.48 1075.92L-445.17 1085.38Z" id="b6YK7CEOe"></path><path d="M-484.78 1097.16L-473.17 1066.74C-443.88 1077.68 -427.61 1083.76 -424.36 1084.98C-407.38 1091.32 -398.82 1110.09 -405.22 1126.89C-405.22 1126.89 -405.22 1126.89 -405.22 1126.89L-484.78 1097.16Z" id="c2SJynhtSe"></path><path d="M-239.62 1071.22C-246.52 1050.13 -301.72 881.38 -308.62 860.29C-309.19 858.57 -311.06 857.62 -312.8 858.18C-313.67 858.46 -314.38 859.08 -314.77 859.9C-324.33 880.04 -400.85 1041.17 -410.41 1061.31C-412.55 1065.81 -417.76 1068.02 -422.54 1066.45C-426.3 1065.21 -456.44 1055.27 -460.2 1054.02C-465.17 1052.38 -467.99 1047.2 -466.66 1042.19C-460.81 1020.23 -413.94 844.52 -408.08 822.55C-401.95 799.29 -397.52 775.62 -394.83 751.72C-390.72 712.37 -372.09 675.91 -342.49 649.32C-329.57 637.6 -321.17 621.8 -318.73 604.62C-318.72 604.55 -318.67 604.18 -318.57 603.52L-232.78 616.93C-200.17 880.28 -182.06 1026.58 -178.44 1055.84C-177.85 1060.7 -180.95 1065.24 -185.71 1066.53C-189.9 1067.64 -223.4 1076.57 -227.59 1077.69C-228.43 1077.91 -229.3 1078.03 -230.18 1078.03C-234.48 1078.02 -238.29 1075.28 -239.62 1071.22Z" id="cQyO565lK"></path><path d="M-291.56 321.31C-321.5 321.31 -345.77 345.33 -345.77 374.96C-345.77 404.59 -321.5 428.61 -291.56 428.61C-261.63 428.61 -237.36 404.59 -237.36 374.96C-237.36 345.33 -261.63 321.31 -291.56 321.31Z" id="fadmbQ8SK"></path><path d="M-238.62 626.28C-247.13 625.86 -315.16 622.49 -323.67 622.07C-328.58 621.85 -332.57 618.09 -333.05 613.25C-334.21 602.04 -343.51 512.35 -344.67 501.13C-347.55 473.32 -327.11 448.47 -299.01 445.62C-292.61 444.97 -286.15 445.52 -279.95 447.24C-279.95 447.24 -279.95 447.24 -279.95 447.24C-273.3 449.05 -267.1 452.2 -261.76 456.51C-201.93 505.14 -221.22 593.25 -228.56 619.1C-229.74 623.35 -233.65 626.3 -238.11 626.29C-238.28 626.29 -238.45 626.29 -238.62 626.28Z" id="b3pbwI0mXD"></path><path d="M-319.09 700.54C-331.92 696.69 -339.17 683.27 -335.28 670.57C-335.01 669.7 -334.7 668.84 -334.33 668.01C-334.02 667.29 -333.66 666.58 -333.27 665.9C-338.37 656.44 -379.22 580.81 -384.33 571.35C-392.55 555.99 -389.61 537.12 -377.11 524.91C-375.54 523.4 -367.72 515.82 -353.64 502.18L-324.88 533.27L-342.21 553.66C-320.18 614.12 -307.93 647.71 -305.48 654.43C-304.44 654.71 -303.41 655.06 -302.42 655.48C-290.11 660.75 -284.44 674.9 -289.77 687.08C-293.62 695.9 -302.4 701.6 -312.1 701.58C-314.47 701.58 -316.82 701.23 -319.09 700.54Z" id="gtm5O6K4g"></path><path d="M-374.14 521.88C-378.26 518.3 -378.67 512.09 -375.06 508.01C-370.9 503.31 -337.6 465.73 -333.44 461.03C-323.48 449.79 -306.19 448.66 -294.83 458.52C-285.11 466.95 -282.68 480.96 -288.99 492.11C-292.32 498.01 -318.99 545.16 -322.32 551.06C-325 555.8 -331.05 557.49 -335.83 554.84C-336.44 554.5 -337.01 554.1 -337.53 553.65C-337.53 553.65 -370.48 525.06 -374.14 521.88Z" id="c8hv56RZ0s"></path><path d="M-326.44 427.07C-321.5 428.81 -315.43 430.34 -311.54 426.74C-307.74 423.23 -308.44 416.8 -310.67 412.06C-312.91 407.33 -316.38 403.12 -317.45 397.96C-318.97 390.58 -315.03 382.9 -309.4 378.09C-303.77 373.27 -296.68 370.74 -289.77 368.31C-285.97 366.98 -255.62 356.29 -251.82 354.96C-242.43 351.66 -232.31 347.77 -227.05 339.08C-219.45 326.49 -226.4 308.51 -238.87 301.16C-251.35 293.82 -267.11 295.19 -280.56 300.35C-288.01 303.21 -295.09 307.14 -302.79 309.15C-317.98 313.12 -335.26 309.56 -348.61 318.04C-360.23 325.42 -365.62 340.48 -365.23 354.57C-364.84 368.66 -359.6 382.08 -354.07 394.97C-350.78 402.64 -347.26 410.39 -341.69 416.49C-336.12 422.59 -328.07 426.86 -320.03 425.73C-321.31 426 -325.16 426.81 -326.44 427.07Z" id="akpPW4TzK"></path><path d="M-376.12 284.76C-400.5 284.76 -420.26 304.32 -420.26 328.45C-420.26 352.58 -400.5 372.14 -376.12 372.14C-351.75 372.14 -331.98 352.58 -331.98 328.45C-331.98 304.32 -351.75 284.76 -376.12 284.76Z" id="b2jhlMUPTw"></path><path d="M-18.13 580.64L-18.91 580.53C-17.14 567.79 -16.16 560.71 -15.96 559.3C-15.02 552.51 -19.81 546.25 -26.67 545.31C-31.22 544.69 -67.59 539.75 -72.13 539.13C-78.99 538.19 -85.32 542.94 -86.26 549.73C-87.88 561.38 -100.83 654.6 -102.44 666.25C-103.39 673.04 -98.59 679.3 -91.73 680.23C-87.19 680.85 -50.82 685.8 -46.27 686.42C-39.41 687.35 -33.09 682.6 -32.14 675.81C-31.4 670.47 -27.69 643.75 -21.01 595.65L-20.23 595.76L-18.13 580.64Z" id="a1iwRuzdbv"></path><path d="M-33.76 550.77C-33.18 553.02 -34.55 555.31 -36.82 555.88C-37.35 556.02 -37.9 556.05 -38.45 555.98C-40.93 555.64 -60.81 552.93 -63.29 552.6C-65.61 552.28 -67.24 550.16 -66.92 547.86C-66.84 547.32 -66.66 546.81 -66.39 546.33C-66.92 546.26 -71.15 545.69 -71.67 545.62C-76.56 544.95 -81.07 548.33 -81.74 553.17C-81.74 553.17 -81.74 553.17 -81.74 553.17C-83.28 564.27 -95.61 653.05 -97.15 664.15C-97.82 668.98 -94.41 673.44 -89.52 674.1C-85.16 674.7 -50.3 679.44 -45.95 680.03C-41.06 680.7 -36.56 677.32 -35.88 672.48C-35.88 672.48 -35.88 672.48 -35.88 672.48C-26.64 605.89 -21.5 568.9 -20.47 561.5C-19.8 556.67 -23.22 552.21 -28.1 551.54C-28.1 551.54 -33.2 550.85 -33.76 550.77Z" id="b4BlWjiByO"></path><path d="M-59 595.62C-72.41 595.62 -83.28 606.38 -83.28 619.65C-83.28 632.92 -72.41 643.68 -59 643.68C-45.6 643.68 -34.73 632.92 -34.73 619.65C-34.73 606.38 -45.6 595.62 -59 595.62Z" id="bt6oBs5UM"></path><path d="M-62.92 628.32C-62.93 628.32 -62.94 628.31 -62.95 628.3C-66.38 625.71 -68.28 624.27 -68.66 623.98C-69.77 623.14 -69.99 621.57 -69.14 620.46C-68.29 619.36 -66.7 619.14 -65.59 619.98C-65.58 619.99 -65.58 619.99 -65.57 619.99C-65.33 620.18 -64.1 621.12 -61.88 622.8C-56.64 616.04 -53.73 612.28 -53.15 611.53C-52.29 610.43 -50.7 610.22 -49.59 611.06C-49.59 611.06 -49.59 611.06 -49.59 611.06C-49.6 611.07 -49.61 611.09 -49.65 611.14C-49.61 611.09 -49.59 611.07 -49.59 611.06C-48.48 611.91 -48.27 613.48 -49.12 614.58C-50.15 615.91 -58.37 626.51 -59.39 627.84C-59.87 628.46 -60.62 628.82 -61.41 628.82C-61.96 628.82 -62.49 628.65 -62.92 628.32Z" id="amntiaWZt"></path><path d="M-659.59 1128.57C-661.04 1128.57 -662.21 1127.4 -662.21 1125.96C-662.21 1124.53 -661.03 1123.37 -659.59 1123.37C-474.36 1123.37 1007.48 1123.37 1192.71 1123.37C1194.16 1123.37 1195.34 1124.53 1195.34 1125.97C1195.34 1127.41 1194.16 1128.57 1192.71 1128.57C822.25 1128.57 -474.36 1128.57 -659.59 1128.57Z" id="b2rIsdvjVO"></path></defs><g><g><g><use xlink:href="#i3bo0sWku" opacity="1" fill="#f2f2f2" fill-opacity="1"></use><g><use xlink:href="#i3bo0sWku" opacity="1" fill-opacity="0" stroke="#000000" stroke-width="1" stroke-opacity="0"></use></g></g><g><use xlink:href="#a1bXUODxvb" opacity="1" fill="#e6e6e6" fill-opacity="1"></use><g><use xlink:href="#a1bXUODxvb" opacity="1" fill-opacity="0" stroke="#000000" stroke-width="1" stroke-opacity="0"></use></g></g><g><use xlink:href="#a2lrRDDGo" opacity="1" fill="#cccccc" fill-opacity="1"></use><g><use xlink:href="#a2lrRDDGo" opacity="1" fill-opacity="0" stroke="#000000" stroke-width="1" stroke-opacity="0"></use></g></g><g><use xlink:href="#a6fyGIYn9k" opacity="1" fill="#3f3d56" fill-opacity="1"></use><g><use xlink:href="#a6fyGIYn9k" opacity="1" fill-opacity="0" stroke="#000000" stroke-width="1" stroke-opacity="0"></use></g></g><g><use xlink:href="#a1aS1dxd8n" opacity="1" fill="#3f3d56" fill-opacity="1"></use><g><use xlink:href="#a1aS1dxd8n" opacity="1" fill-opacity="0" stroke="#000000" stroke-width="1" stroke-opacity="0"></use></g></g><g><use xlink:href="#b2ug2GJlRs" opacity="1" fill="#3f3d56" fill-opacity="1"></use><g><use xlink:href="#b2ug2GJlRs" opacity="1" fill-opacity="0" stroke="#000000" stroke-width="1" stroke-opacity="0"></use></g></g><g><use xlink:href="#a1iebU8Pt" opacity="1" fill="#3f3d56" fill-opacity="1"></use><g><use xlink:href="#a1iebU8Pt" opacity="1" fill-opacity="0" stroke="#000000" stroke-width="1" stroke-opacity="0"></use></g></g><g><use xlink:href="#cuWfwITNe" opacity="1" fill="#3f3d56" fill-opacity="1"></use><g><use xlink:href="#cuWfwITNe" opacity="1" fill-opacity="0" stroke="#000000" stroke-width="1" stroke-opacity="0"></use></g></g><g><use xlink:href="#jsaem2h83" opacity="1" fill="#3f3d56" fill-opacity="1"></use><g><use xlink:href="#jsaem2h83" opacity="1" fill-opacity="0" stroke="#000000" stroke-width="1" stroke-opacity="0"></use></g></g><g><use xlink:href="#c2amcNFDOG" opacity="1" fill="#3f3d56" fill-opacity="1"></use><g><use xlink:href="#c2amcNFDOG" opacity="1" fill-opacity="0" stroke="#000000" stroke-width="1" stroke-opacity="0"></use></g></g><g><use xlink:href="#aOavg3I4q" opacity="1" fill="#3f3d56" fill-opacity="1"></use><g><use xlink:href="#aOavg3I4q" opacity="1" fill-opacity="0" stroke="#000000" stroke-width="1" stroke-opacity="0"></use></g></g><g><use xlink:href="#a1mqjQRM1t" opacity="1" fill="#f2f2f2" fill-opacity="1"></use><g><use xlink:href="#a1mqjQRM1t" opacity="1" fill-opacity="0" stroke="#000000" stroke-width="1" stroke-opacity="0"></use></g></g><g><use xlink:href="#b1a4QwOTiA" opacity="1" fill="#f2f2f2" fill-opacity="1"></use><g><use xlink:href="#b1a4QwOTiA" opacity="1" fill-opacity="0" stroke="#000000" stroke-width="1" stroke-opacity="0"></use></g></g><g><use xlink:href="#cxeTxlIyI" opacity="1" fill="#850009" fill-opacity="1"></use><g><use xlink:href="#cxeTxlIyI" opacity="1" fill-opacity="0" stroke="#000000" stroke-width="1" stroke-opacity="0"></use></g></g><g><use xlink:href="#d26oxpHFy5" opacity="1" fill="#f2f2f2" fill-opacity="1"></use><g><use xlink:href="#d26oxpHFy5" opacity="1" fill-opacity="0" stroke="#000000" stroke-width="1" stroke-opacity="0"></use></g></g><g><use xlink:href="#fGZJz15Up" opacity="1" fill="#ffffff" fill-opacity="1"></use><g><use xlink:href="#fGZJz15Up" opacity="1" fill-opacity="0" stroke="#000000" stroke-width="1" stroke-opacity="0"></use></g></g><g><use xlink:href="#b3YimL6gQD" opacity="1" fill="#2f2e41" fill-opacity="1"></use><g><use xlink:href="#b3YimL6gQD" opacity="1" fill-opacity="0" stroke="#000000" stroke-width="1" stroke-opacity="0"></use></g></g><g><use xlink:href="#a4FnFr4K0C" opacity="1" fill="#ffb8b8" fill-opacity="1"></use><g><use xlink:href="#a4FnFr4K0C" opacity="1" fill-opacity="0" stroke="#000000" stroke-width="1" stroke-opacity="0"></use></g></g><g><use xlink:href="#a5uDXoLLyv" opacity="1" fill="#2f2e41" fill-opacity="1"></use><g><use xlink:href="#a5uDXoLLyv" opacity="1" fill-opacity="0" stroke="#000000" stroke-width="1" stroke-opacity="0"></use></g></g><g><use xlink:href="#b2uBfuiC5d" opacity="1" fill="#ffb8b8" fill-opacity="1"></use><g><use xlink:href="#b2uBfuiC5d" opacity="1" fill-opacity="0" stroke="#000000" stroke-width="1" stroke-opacity="0"></use></g></g><g><use xlink:href="#b69umrmnuP" opacity="1" fill="#2f2e41" fill-opacity="1"></use><g><use xlink:href="#b69umrmnuP" opacity="1" fill-opacity="0" stroke="#000000" stroke-width="1" stroke-opacity="0"></use></g></g><g><use xlink:href="#b6YK7CEOe" opacity="1" fill="#ffb8b8" fill-opacity="1"></use><g><use xlink:href="#b6YK7CEOe" opacity="1" fill-opacity="0" stroke="#000000" stroke-width="1" stroke-opacity="0"></use></g></g><g><use xlink:href="#c2SJynhtSe" opacity="1" fill="#2f2e41" fill-opacity="1"></use><g><use xlink:href="#c2SJynhtSe" opacity="1" fill-opacity="0" stroke="#000000" stroke-width="1" stroke-opacity="0"></use></g></g><g><use xlink:href="#cQyO565lK" opacity="1" fill="#2f2e41" fill-opacity="1"></use><g><use xlink:href="#cQyO565lK" opacity="1" fill-opacity="0" stroke="#000000" stroke-width="1" stroke-opacity="0"></use></g></g><g><use xlink:href="#fadmbQ8SK" opacity="1" fill="#ffb8b8" fill-opacity="1"></use><g><use xlink:href="#fadmbQ8SK" opacity="1" fill-opacity="0" stroke="#000000" stroke-width="1" stroke-opacity="0"></use></g></g><g><use xlink:href="#b3pbwI0mXD" opacity="1" fill="#850009" fill-opacity="1"></use><g><use xlink:href="#b3pbwI0mXD" opacity="1" fill-opacity="0" stroke="#000000" stroke-width="1" stroke-opacity="0"></use></g></g><g><use xlink:href="#gtm5O6K4g" opacity="1" fill="#ffb8b8" fill-opacity="1"></use><g><use xlink:href="#gtm5O6K4g" opacity="1" fill-opacity="0" stroke="#000000" stroke-width="1" stroke-opacity="0"></use></g></g><g><use xlink:href="#c8hv56RZ0s" opacity="1" fill="#2f2e41" fill-opacity="1"></use><g><use xlink:href="#c8hv56RZ0s" opacity="1" fill-opacity="0" stroke="#000000" stroke-width="1" stroke-opacity="0"></use></g></g><g><use xlink:href="#akpPW4TzK" opacity="1" fill="#2f2e41" fill-opacity="1"></use><g><use xlink:href="#akpPW4TzK" opacity="1" fill-opacity="0" stroke="#000000" stroke-width="1" stroke-opacity="0"></use></g></g><g><use xlink:href="#b2jhlMUPTw" opacity="1" fill="#2f2e41" fill-opacity="1"></use><g><use xlink:href="#b2jhlMUPTw" opacity="1" fill-opacity="0" stroke="#000000" stroke-width="1" stroke-opacity="0"></use></g></g><g><use xlink:href="#a1iwRuzdbv" opacity="1" fill="#3f3d56" fill-opacity="1"></use><g><use xlink:href="#a1iwRuzdbv" opacity="1" fill-opacity="0" stroke="#000000" stroke-width="1" stroke-opacity="0"></use></g></g><g><use xlink:href="#b4BlWjiByO" opacity="1" fill="#ffffff" fill-opacity="1"></use><g><use xlink:href="#b4BlWjiByO" opacity="1" fill-opacity="0" stroke="#000000" stroke-width="1" stroke-opacity="0"></use></g></g><g><use xlink:href="#bt6oBs5UM" opacity="1" fill="#850009" fill-opacity="1"></use><g><use xlink:href="#bt6oBs5UM" opacity="1" fill-opacity="0" stroke="#000000" stroke-width="1" stroke-opacity="0"></use></g></g><g><use xlink:href="#amntiaWZt" opacity="1" fill="#ffffff" fill-opacity="1"></use><g><use xlink:href="#amntiaWZt" opacity="1" fill-opacity="0" stroke="#000000" stroke-width="1" stroke-opacity="0"></use></g></g><g><use xlink:href="#b2rIsdvjVO" opacity="1" fill="#cccccc" fill-opacity="1"></use><g><use xlink:href="#b2rIsdvjVO" opacity="1" fill-opacity="0" stroke="#000000" stroke-width="1" stroke-opacity="0"></use></g></g></g></g></svg>