<?xml version="1.0" encoding="UTF-8" standalone="no"?>
<!DOCTYPE svg PUBLIC "-//W3C//DTD SVG 1.1//EN" "http://www.w3.org/Graphics/SVG/1.1/DTD/svg11.dtd">
<svg version="1.1" xmlns="http://www.w3.org/2000/svg" xmlns:xlink="http://www.w3.org/1999/xlink" preserveAspectRatio="xMidYMid meet" viewBox="0 0 750 1334" width="750" height="1334"><defs><path d="M939.61 887.25C939.61 887.25 939.6 887.25 939.6 887.25C938.22 887.84 936.85 888.42 935.46 888.96C935.46 888.96 935.45 888.96 935.44 888.96L935.42 888.98L935.41 888.96C935.4 888.96 935.39 888.96 935.39 888.96C935.39 888.97 935.38 888.98 935.37 888.98C935.37 888.98 935.37 888.98 935.37 888.98C935.37 888.98 935.36 888.98 935.35 888.98C935.34 888.97 935.34 888.96 935.34 888.96C935.32 888.98 935.32 888.98 935.3 888.96C935.3 888.96 935.29 888.97 935.28 888.98L935.27 888.96C935.26 888.96 935.25 888.96 935.25 888.96C935.23 888.98 935.23 888.98 935.21 888.96C935.21 888.96 935.2 888.96 935.2 888.96C925.43 892.81 915.4 896.07 905.17 898.74C845.01 914.27 781.78 917.28 720.17 907.53C718.99 907.34 717.82 907.15 716.65 906.96C716.65 893.96 716.65 789.99 716.65 777C717.81 776.55 718.99 776.1 720.17 775.67C731.7 771.32 741.19 768.47 743.52 767.67C760.52 762.38 774.55 759.51 778 758.6C816.02 750.23 855.24 747.34 894.24 750.05C904.88 750.77 913.34 751.92 915.46 752.13C930.23 754 945.72 757.27 959.34 762.94C959.35 762.94 959.36 762.94 959.36 762.94C961.35 763.79 963.3 764.67 965.24 765.62C977.35 771.6 987.56 779.82 993.79 791.08C996.03 795.13 997.64 799.43 998.58 803.88C998.58 803.89 998.58 803.91 998.58 803.91C998.93 805.45 999.17 807.01 999.37 808.55C1001.59 827.52 992.94 847.82 978.49 862.21C967.65 872.99 954.2 881.02 939.61 887.25Z" id="a4BgLoXjC2"></path><path d="M998.84 808.61C968.69 809.81 938.58 811.59 908.51 813.96C908.48 813.96 908.46 813.96 908.46 813.96C908.34 813.98 908.23 813.98 908.11 813.99C861.8 817.65 824.93 822.23 815.69 823.14C814.38 823.3 813.1 823.46 811.81 823.61C779.92 827.48 754.52 831.34 748.15 832.19C734.13 834.29 722.96 836.12 720.17 836.55C718.99 836.75 717.82 836.92 716.65 837.13C716.65 836.64 716.65 832.76 716.65 832.27C717.82 832.07 719 831.89 720.17 831.7C766.68 824.2 804.19 819.92 813.52 818.61C825.3 817.17 834.75 816.16 837.11 815.88C871.22 812.13 898.6 810.06 905.43 809.41C907.1 809.28 908.76 809.15 910.43 809.03C954.23 805.64 989.38 804.4 998.15 803.88C998.3 803.88 998.44 803.89 998.58 803.91C1001.39 804.14 1001.99 807.98 999.37 808.55C999.2 808.58 999.02 808.61 998.84 808.61Z" id="a2hkkwAAWn"></path><path d="M835.62 846C828.13 839.2 821.52 831.63 815.94 823.45C814.15 820.84 809.96 823.72 811.73 826.31C832.37 856.44 866.74 877.9 904.63 885.79C915.39 888 926.4 889.08 937.43 888.98C940.8 888.96 940.1 884.22 936.76 884.24C899.2 884.49 862.19 869.99 835.62 846Z" id="a5ELqzDGm"></path><path d="M775.8 760.41C767.19 762.47 758.88 765.42 751.02 769.23C739.55 774.74 729.13 781.91 720.17 790.46C719.69 790.89 719.23 791.32 718.79 791.77C718.05 792.47 717.35 793.2 716.65 793.93C716.65 793.23 716.65 787.65 716.65 786.95C717.77 785.86 718.95 784.78 720.17 783.76C727.24 777.59 735.08 772.19 743.52 767.67C754.86 764.15 766.35 761.12 778 758.6C777.22 759.67 776.49 760.28 775.8 760.41Z" id="d1AmmXXbHm"></path><path d="M905.39 807.48C904.84 808.7 905.46 810.09 906.79 810.61C908.12 811.09 909.64 810.54 910.23 809.34C922.81 790.07 941.79 774.93 964.43 766.11C967.54 764.9 965.57 760.47 962.46 761.68C938.56 771.03 918.57 787.08 905.39 807.48Z" id="b5lN7dfSSL"></path><path d="M1012.83 664.21C1012.83 664.21 1012.82 664.23 1012.82 664.23C1011.92 665.32 1010.99 666.42 1010.02 667.48C1010.02 667.48 1010.02 667.5 1010.02 667.5C1003.26 675.08 995.96 682.24 988.17 688.95C960.18 713.24 928.55 733.81 894.24 750.05C840.26 775.71 779.92 790.89 720.17 791.75C719.71 791.77 719.25 791.77 718.79 791.77C718.07 791.79 717.35 791.79 716.65 791.79C716.65 784.5 716.65 726.24 716.65 718.96C717.79 716.98 718.97 714.99 720.17 713.02C735.69 687.58 754.63 664 776.54 642.81C777.07 642.28 777.61 641.75 778.16 641.24C790.52 629.36 801.48 620.89 804.07 618.63C838.83 590.81 879 569.15 922.51 554.78C936.53 550.19 951.92 546.53 966.88 545.8C969.08 545.69 971.26 545.64 973.46 545.66C987.24 545.84 1000.46 548.8 1011.74 556.14C1015.78 558.78 1019.41 561.91 1022.51 565.45C1023.6 566.68 1024.61 567.95 1025.58 569.25C1025.58 569.25 1025.58 569.26 1025.58 569.26C1037.23 585.12 1039.94 606.74 1034.48 625.6C1030.4 639.73 1022.57 652.53 1012.83 664.21Z" id="a1KKM9RAYa"></path><path d="M1025.58 569.26C1025.45 569.37 1025.3 569.46 1025.15 569.53C986.08 590.23 955.71 608.14 947.99 612.43C947.96 612.44 947.94 612.46 947.9 612.48C947.8 612.54 947.7 612.6 947.59 612.65C908.43 635.48 878.11 655.13 870.39 659.85C869.33 660.53 868.26 661.22 867.19 661.91C840.92 678.8 820.39 692.97 815.19 696.42C766.61 729.73 729.67 758.6 720.17 765.51C718.99 766.41 717.82 767.32 716.65 768.23C716.65 767.61 716.65 762.62 716.65 762C717.81 761.09 718.99 760.17 720.17 759.28C737.96 745.6 752.48 735.01 756.07 732.31C759.68 729.67 763.3 727.02 766.93 724.41C799.14 701.06 832.07 678.59 865.73 656.99C865.74 656.99 865.74 656.99 865.74 656.99C875.67 650.62 883.64 645.62 885.63 644.36C913.93 626.62 937.15 613.2 942.87 609.74C944.26 608.92 945.67 608.1 947.08 607.28C984.12 585.75 1014.62 569.79 1022.13 565.62C1022.25 565.56 1022.38 565.5 1022.51 565.45C1025.15 564.49 1027.64 567.66 1025.58 569.25C1025.58 569.25 1025.58 569.26 1025.58 569.26Z" id="e1NTTI7r3Z"></path><path d="M899.69 671.66C889.58 668.81 879.87 664.9 870.75 660.02C867.83 658.46 865.6 662.78 868.49 664.33C902.13 682.28 943.52 686.75 981.1 677.71C991.76 675.13 1002.06 671.42 1011.78 666.67C1014.75 665.23 1011.72 661.33 1008.76 662.76C975.63 678.87 935.46 681.67 899.69 671.66Z" id="b3VPkxFAeb"></path><path d="M759.18 695.96C760.37 676.56 766.9 657.74 778.16 641.24C790.53 629.37 801.48 620.89 804.07 618.63C804.25 619.58 803.86 620.55 803.04 621.17C796.47 626.63 790.62 632.76 785.6 639.44C767.66 663.27 760.66 692.53 766.09 720.99C766.27 721.64 766.06 722.34 765.54 722.82C764.35 723.76 762.54 723.65 761.5 722.57C761.18 722.23 760.96 721.82 760.86 721.38C759.22 713 758.66 704.46 759.18 695.96Z" id="b2LOr05G4T"></path><path d="M1633.65 458.32C1633.75 459.49 1634.77 460.35 1635.94 460.26C1637.09 460.14 1637.95 459.13 1637.88 457.97C1638.94 438.1 1646.29 419.07 1658.87 403.63C1660.6 401.52 1657.36 398.77 1655.63 400.89C1642.37 417.21 1634.66 437.33 1633.65 458.32Z" id="b2ygRqxLvL"></path><path d="M786.71 596.02C786.59 597.4 786.45 598.76 786.29 600.12C786.29 600.12 786.29 600.15 786.29 600.15C785.07 609.85 783.16 619.46 780.57 628.93C779.34 633.58 778 638.19 776.54 642.81C776.37 643.4 776.17 643.99 775.98 644.57C775.98 644.57 775.98 644.58 775.98 644.58C771.68 658.01 766.54 671.19 760.6 684.08C749.65 707.81 736.11 730.47 720.17 751.73C719.02 753.28 717.84 754.84 716.65 756.38C716.65 731.28 716.65 530.55 716.65 505.46C717.82 505.4 718.99 505.4 720.17 505.43C721.01 505.43 721.69 505.47 721.86 505.48C726.82 505.71 731.73 506.58 736.43 508.06C738.08 508.55 739.68 509.11 741.27 509.74C760.47 517.4 775.56 534.28 782.1 552.85C787.01 566.76 788 581.39 786.71 596C786.71 596.01 786.71 596.02 786.71 596.02Z" id="a33dMYWBwe"></path><path d="M741.08 510.19C730.38 529.1 722.26 544.41 720.17 548.21C718.99 550.4 717.81 552.61 716.65 554.81C716.65 553.72 716.65 545 716.65 543.91C718.39 540.65 719.81 538.03 720.17 537.38C728.06 522.81 734.61 511.28 736.22 508.38C736.28 508.26 736.35 508.16 736.43 508.05C738.05 505.94 742.06 507.38 741.27 509.74C741.23 509.89 741.16 510.05 741.08 510.19Z" id="f1gQGNEffN"></path><path d="M786.29 600.12C781.12 608.32 774.97 615.97 767.95 622.94C754.47 636.26 738.23 647.02 720.17 654.61C719 655.13 717.82 655.61 716.65 656.06C716.65 655.54 716.65 651.37 716.65 650.85C717.82 650.37 719 649.87 720.17 649.36C746.31 638.01 768.03 619.66 782.42 596.77C783.22 595.51 784.99 595.08 786.38 595.81C786.49 595.87 786.61 595.94 786.71 596.02C787.65 596.58 787.9 597.73 787.28 598.58C787.28 598.58 787.28 598.58 787.28 598.58C786.96 599.1 786.64 599.61 786.29 600.12Z" id="f3dzMZ6sfG"></path><path d="M720.17 431.02L716.65 431.02L716.65 429.72L-460.85 429.72L-460.85 431.02L-464.37 431.02C-464.37 357.95 -464.37 317.36 -464.37 309.25C-464.34 280.05 -438.36 256.4 -406.29 256.37C-299.45 256.37 555.25 256.37 662.08 256.37C694.15 256.4 720.13 280.05 720.17 309.25C720.17 309.25 720.17 349.84 720.17 431.02Z" id="a21KYtVMIO"></path><path d="M-406.29 256.37C-438.36 256.4 -464.34 280.05 -464.37 309.25C-464.37 378.78 -464.37 935.09 -464.37 1004.63C-464.34 1033.82 -438.36 1057.48 -406.29 1057.51C-299.45 1057.51 555.25 1057.51 662.08 1057.51C694.15 1057.48 720.13 1033.82 720.17 1004.63C720.17 935.09 720.17 378.78 720.17 309.25C720.13 280.05 694.15 256.4 662.08 256.37C662.08 256.37 -299.45 256.37 -406.29 256.37ZM716.65 1004.63C716.61 1032.05 692.2 1054.27 662.08 1054.3C555.25 1054.3 -299.45 1054.3 -406.29 1054.3C-436.41 1054.27 -460.82 1032.05 -460.85 1004.63C-460.85 935.09 -460.85 378.78 -460.85 309.25C-460.82 281.83 -436.41 259.61 -406.29 259.57C-299.45 259.57 555.25 259.57 662.08 259.57C692.2 259.61 716.61 281.83 716.65 309.25C716.65 448.32 716.65 865.55 716.65 1004.63Z" id="bGjcC2Zkn"></path><path d="M-225 311.65C-244.44 311.65 -260.2 326 -260.2 343.69C-260.2 361.39 -244.44 375.74 -225 375.74C-205.56 375.74 -189.8 361.39 -189.8 343.69C-189.8 326 -205.56 311.65 -225 311.65Z" id="a6xn3hM6e9"></path><path d="M480.79 311.65C461.35 311.65 445.59 326 445.59 343.69C445.59 361.39 461.35 375.74 480.79 375.74C500.23 375.74 516 361.39 516 343.69C516 326 500.23 311.65 480.79 311.65Z" id="b19nEhCd7w"></path><path d="M-332.71 701C-351.18 700.98 -366.15 687.36 -366.17 670.54C-366.17 661.53 -366.17 589.45 -366.17 580.44C-366.15 563.63 -351.18 550 -332.71 549.98C-311.76 549.98 -144.24 549.98 -123.3 549.98C-104.82 550 -89.86 563.63 -89.83 580.44C-89.83 589.45 -89.83 661.53 -89.83 670.54C-89.86 687.36 -104.82 700.98 -123.3 701C-123.3 701 -311.76 701 -332.71 701Z" id="h8DGl7qdQ"></path><path d="M23.53 701C5.06 700.98 -9.91 687.36 -9.93 670.54C-9.93 661.53 -9.93 589.45 -9.93 580.44C-9.91 563.63 5.06 550 23.53 549.98C44.48 549.98 212 549.98 232.94 549.98C251.41 550 266.38 563.63 266.4 580.44C266.4 589.45 266.4 661.53 266.4 670.54C266.38 687.36 251.41 700.98 232.94 701C232.94 701 44.48 701 23.53 701Z" id="a12VSPKR5Q"></path><path d="M23.53 933.8C4.5 933.78 -10.92 919.74 -10.94 902.42C-10.94 893.41 -10.94 821.32 -10.94 812.31C-10.92 794.99 4.5 780.95 23.53 780.93C44.48 780.93 212 780.93 232.94 780.93C251.97 780.95 267.4 794.99 267.42 812.31C267.42 821.32 267.42 893.41 267.42 902.42C267.4 919.74 251.97 933.78 232.94 933.8C232.94 933.8 44.48 933.8 23.53 933.8Z" id="b27WNFGEpD"></path><path d="M-333.39 933.8C-352.42 933.78 -367.85 919.74 -367.87 902.42C-367.87 893.41 -367.87 821.32 -367.87 812.31C-367.85 794.99 -352.42 780.95 -333.39 780.93C-312.45 780.93 -144.92 780.93 -123.98 780.93C-104.95 780.95 -89.53 794.99 -89.51 812.31C-89.51 821.32 -89.51 893.41 -89.51 902.42C-89.53 919.74 -104.95 933.78 -123.98 933.8C-123.98 933.8 -312.45 933.8 -333.39 933.8Z" id="c1IfjjId0G"></path><path d="M379.77 933.8C360.74 933.78 345.32 919.74 345.3 902.42C345.3 893.41 345.3 821.32 345.3 812.31C345.32 794.99 360.74 780.95 379.77 780.93C400.71 780.93 568.24 780.93 589.18 780.93C608.21 780.95 623.64 794.99 623.66 812.31C623.66 821.32 623.66 893.41 623.66 902.42C623.64 919.74 608.21 933.78 589.18 933.8C589.18 933.8 400.71 933.8 379.77 933.8Z" id="atrepT6nv"></path><path d="M379.77 701.18C360.74 701.17 345.32 687.13 345.3 669.8C345.3 660.79 345.3 588.71 345.3 579.7C345.32 562.37 360.74 548.33 379.77 548.31C400.71 548.31 568.24 548.31 589.18 548.31C608.21 548.33 623.64 562.37 623.66 579.7C623.66 588.71 623.66 660.79 623.66 669.8C623.64 687.13 608.21 701.17 589.18 701.18C547.3 701.18 400.71 701.18 379.77 701.18Z" id="d878a1P89"></path><path d="M-228 573.8C-259.36 573.8 -284.78 596.94 -284.78 625.49C-284.78 654.04 -259.36 677.18 -228 677.18C-196.64 677.18 -171.22 654.04 -171.22 625.49C-171.22 596.94 -196.64 573.8 -228 573.8Z" id="b6jCQZSCIa"></path><path d="M-237.17 644.14C-237.18 644.14 -237.2 644.12 -237.24 644.1C-245.24 638.52 -249.69 635.42 -250.58 634.8C-253.18 632.99 -253.68 629.6 -251.69 627.23C-249.7 624.86 -245.98 624.41 -243.38 626.22C-243.38 626.22 -243.37 626.23 -243.37 626.23C-242.79 626.63 -239.91 628.64 -234.73 632.26C-222.47 617.71 -215.66 609.63 -214.3 608.01C-212.31 605.65 -208.59 605.2 -205.99 607.01C-205.99 607.01 -205.99 607.01 -205.99 607.01C-206 607.02 -206.04 607.07 -206.11 607.17C-206.04 607.08 -205.99 607.02 -205.98 607.01C-203.39 608.83 -202.9 612.22 -204.89 614.58C-207.29 617.43 -226.51 640.25 -228.91 643.11C-230.04 644.44 -231.78 645.22 -233.63 645.21C-234.91 645.21 -236.15 644.84 -237.17 644.14Z" id="c4ZnMokeRC"></path><path d="M129.25 573.06C97.89 573.06 72.47 596.2 72.47 624.75C72.47 653.3 97.89 676.44 129.25 676.44C160.61 676.44 186.04 653.3 186.04 624.75C186.04 596.2 160.61 573.06 129.25 573.06Z" id="acPIEsqL3"></path><path d="M120.08 643.4C120.08 643.39 120.06 643.38 120.02 643.35C112.01 637.77 107.56 634.67 106.67 634.05C104.07 632.24 103.58 628.85 105.57 626.49C107.56 624.12 111.29 623.67 113.88 625.49C114.46 625.89 117.34 627.9 122.53 631.52C134.78 616.97 141.59 608.89 142.95 607.27C144.95 604.9 148.67 604.46 151.27 606.27C151.27 606.27 151.27 606.27 151.27 606.27C151.26 606.28 151.22 606.33 151.14 606.43C151.22 606.33 151.26 606.28 151.27 606.27C153.86 608.09 154.36 611.47 152.37 613.84C149.96 616.69 130.74 639.51 128.34 642.36C127.21 643.7 125.47 644.47 123.62 644.47C122.35 644.47 121.1 644.1 120.08 643.4Z" id="aalIu0HWOm"></path><path d="M511.83 844.36C511.01 843.68 510.12 843.06 509.18 842.52C507.07 832.24 496.5 780.88 477.48 688.42L438.93 701.44C464.9 789.86 479.33 838.99 482.21 848.81C477.2 857.21 480.61 867.72 489.83 872.29C497.55 876.11 507.14 874.61 513.02 868.68C520.07 861.66 519.54 850.78 511.83 844.36Z" id="abtSwYh1h"></path><path d="M205.43 636.42C210.42 639.92 235.41 657.43 280.39 688.95L301.65 681L319.01 708.64C297.33 719.07 285.29 724.87 282.88 726.03C276.89 728.92 269.52 727.86 264.79 723.43C257.3 716.39 197.36 660.14 189.87 653.1C179.08 655.32 168.36 649.15 165.93 639.33C163.5 629.51 170.27 619.76 181.06 617.54C191.84 615.33 202.56 621.49 204.99 631.31C205.17 632.05 205.31 632.79 205.39 633.55C205.48 634.5 205.5 635.46 205.43 636.42Z" id="a3ZGKFEAL"></path><path d="M358.94 1142.18L348.67 1082.44L380.52 1082.44L380.52 1142.18L380.52 1142.18L358.94 1142.18Z" id="f1xBekrAlC"></path><path d="M386.02 1161.23L316.44 1161.22C316.44 1160.74 316.44 1160.48 316.44 1160.42C316.44 1146.81 328.57 1135.77 343.52 1135.77C343.52 1135.77 343.52 1135.77 343.53 1135.77C343.53 1135.77 343.53 1135.77 343.53 1135.77L386.02 1135.77L386.02 1161.23Z" id="c1POWHQDCS"></path><path d="M439.9 1142.18L429.64 1082.44L461.49 1082.44L461.48 1142.18L461.48 1142.18L439.9 1142.18Z" id="f6fC70k9Dv"></path><path d="M466.99 1161.23L397.41 1161.22C397.41 1160.74 397.41 1160.48 397.41 1160.42C397.41 1146.81 409.53 1135.77 424.49 1135.77C424.49 1135.77 424.49 1135.77 424.49 1135.77C424.49 1135.77 424.49 1135.77 424.49 1135.77L466.99 1135.77L466.99 1161.23Z" id="a26HBtrr0L"></path><path d="M346.58 1123.85C345.33 1108.5 339.06 1031.76 327.78 893.62L328.67 893.56L458.07 883.87L458.11 884.71C464.28 1027.81 467.71 1107.31 468.39 1123.21C468.56 1127.19 465.15 1130.54 460.77 1130.68C460.68 1130.69 460.58 1130.69 460.48 1130.69C457.94 1130.69 437.64 1130.69 435.11 1130.69C431.19 1130.71 427.85 1128.1 427.28 1124.58C423.83 1105.31 396.27 951.18 392.82 931.91C392.75 931.47 392.3 931.17 391.82 931.24C391.39 931.3 391.07 931.63 391.07 932.03C390.92 951.05 389.66 1103.23 389.51 1122.25C389.47 1126.07 386.19 1129.2 382 1129.4C379.29 1129.5 357.6 1130.27 354.88 1130.37C354.74 1130.37 354.6 1130.38 354.46 1130.38C350.38 1130.38 346.96 1127.55 346.58 1123.85Z" id="dgZyQuXet"></path><path d="M376.55 523.95C352.67 523.95 333.32 541.57 333.32 563.31C333.32 585.04 352.67 602.66 376.55 602.66C400.42 602.66 419.78 585.04 419.78 563.31C419.78 541.57 400.42 523.95 376.55 523.95Z" id="d7CRlTvv2"></path><path d="M329 901.35C325.39 900.39 323.01 897.25 323.3 893.84C329.12 814.22 330.49 752.43 318.25 709.68C313.04 691.45 315.41 672.26 324.75 657.03C338.81 634.09 364.66 620.13 392.23 620.62C392.23 620.62 392.23 620.62 392.23 620.62C394.21 620.65 395.83 620.73 396.23 620.74C438.07 622.71 470.67 657.16 468.91 697.56C468.07 716.81 461.33 870.85 460.49 890.1C460.43 892.98 458.47 895.53 455.54 896.58C432.96 904.31 409.04 908.29 384.92 908.31C366.02 908.25 347.22 905.91 329 901.35Z" id="b29Dhkof8Q"></path><path d="M292.99 688.34C289.45 684.39 290.09 678.57 294.43 675.35C294.82 675.06 295.23 674.8 295.65 674.57C300.04 672.19 335.13 653.16 339.52 650.78C351.62 641.89 369.35 643.61 379.12 654.63C388.85 665.61 387.01 681.68 375 690.6C371.57 694.02 344.15 721.42 340.72 724.84C336.94 728.61 330.53 728.88 326.39 725.44C326.03 725.14 325.68 724.81 325.37 724.46C325.37 724.46 296.23 691.95 292.99 688.34Z" id="bOGURLcA4"></path><path d="M421.66 714.15C420.21 709.71 408.55 674.2 407.09 669.76C400.49 656.94 406.55 641.67 420.64 635.66C434.67 629.68 451.38 635.14 458.03 647.88C460.85 651.76 483.4 682.76 486.22 686.64C489.31 690.89 488.03 696.62 483.36 699.43C482.95 699.68 482.51 699.91 482.06 700.1C477.43 702.07 440.32 717.89 435.68 719.86C433.01 721 429.92 721.03 427.23 719.93C424.54 718.83 422.51 716.72 421.66 714.15Z" id="f2tAhOqz3K"></path><path d="M397.91 595.6C378.68 591.59 368 589.37 365.86 588.92C362.56 588.23 358.59 586.92 358.13 583.86C357.51 579.75 364.01 576.89 363.41 572.78C362.83 568.79 356.91 568.28 352.69 567.1C344.52 564.49 340.1 556.45 342.71 548.93C338.14 554.79 327.71 555.29 321.79 550.55C315.86 545.8 314.73 537.19 318.28 530.78C322.18 524.39 329.2 520.08 337.16 519.18C345.06 518.36 353.04 519.72 360.08 523.07C360.55 518.53 366.78 516.69 371.79 516.65C393.12 516.87 411.94 529.38 418.68 547.8C424.83 565.83 420.72 585.6 403.52 596.15C402.77 596.07 400.9 595.89 397.91 595.6Z" id="eWAwkDo68"></path><path d="M50.08 1161.65C49.1 1161.65 48.32 1160.94 48.32 1160.05C48.32 1159.17 49.1 1158.45 50.08 1158.45C117.14 1158.45 653.61 1158.45 720.67 1158.45C721.64 1158.45 722.43 1159.17 722.43 1160.05C722.43 1160.94 721.64 1161.65 720.67 1161.65C586.55 1161.65 117.14 1161.65 50.08 1161.65Z" id="d21AHB1w90"></path></defs><g><g><g><use xlink:href="#a4BgLoXjC2" opacity="1" fill="#f2f2f2" fill-opacity="1"></use><g><use xlink:href="#a4BgLoXjC2" opacity="1" fill-opacity="0" stroke="#000000" stroke-width="1" stroke-opacity="0"></use></g></g><g><use xlink:href="#a2hkkwAAWn" opacity="1" fill="#ffffff" fill-opacity="1"></use><g><use xlink:href="#a2hkkwAAWn" opacity="1" fill-opacity="0" stroke="#000000" stroke-width="1" stroke-opacity="0"></use></g></g><g><use xlink:href="#a5ELqzDGm" opacity="1" fill="#ffffff" fill-opacity="1"></use><g><use xlink:href="#a5ELqzDGm" opacity="1" fill-opacity="0" stroke="#000000" stroke-width="1" stroke-opacity="0"></use></g></g><g><use xlink:href="#d1AmmXXbHm" opacity="1" fill="#ffffff" fill-opacity="1"></use><g><use xlink:href="#d1AmmXXbHm" opacity="1" fill-opacity="0" stroke="#000000" stroke-width="1" stroke-opacity="0"></use></g></g><g><use xlink:href="#b5lN7dfSSL" opacity="1" fill="#ffffff" fill-opacity="1"></use><g><use xlink:href="#b5lN7dfSSL" opacity="1" fill-opacity="0" stroke="#000000" stroke-width="1" stroke-opacity="0"></use></g></g><g><use xlink:href="#a1KKM9RAYa" opacity="1" fill="#f2f2f2" fill-opacity="1"></use><g><use xlink:href="#a1KKM9RAYa" opacity="1" fill-opacity="0" stroke="#000000" stroke-width="1" stroke-opacity="0"></use></g></g><g><use xlink:href="#e1NTTI7r3Z" opacity="1" fill="#ffffff" fill-opacity="1"></use><g><use xlink:href="#e1NTTI7r3Z" opacity="1" fill-opacity="0" stroke="#000000" stroke-width="1" stroke-opacity="0"></use></g></g><g><use xlink:href="#b3VPkxFAeb" opacity="1" fill="#ffffff" fill-opacity="1"></use><g><use xlink:href="#b3VPkxFAeb" opacity="1" fill-opacity="0" stroke="#000000" stroke-width="1" stroke-opacity="0"></use></g></g><g><use xlink:href="#b2LOr05G4T" opacity="1" fill="#ffffff" fill-opacity="1"></use><g><use xlink:href="#b2LOr05G4T" opacity="1" fill-opacity="0" stroke="#000000" stroke-width="1" stroke-opacity="0"></use></g></g><g><use xlink:href="#b2ygRqxLvL" opacity="1" fill="#ffffff" fill-opacity="1"></use><g><use xlink:href="#b2ygRqxLvL" opacity="1" fill-opacity="0" stroke="#000000" stroke-width="1" stroke-opacity="0"></use></g></g><g><use xlink:href="#a33dMYWBwe" opacity="1" fill="#f2f2f2" fill-opacity="1"></use><g><use xlink:href="#a33dMYWBwe" opacity="1" fill-opacity="0" stroke="#000000" stroke-width="1" stroke-opacity="0"></use></g></g><g><use xlink:href="#f1gQGNEffN" opacity="1" fill="#ffffff" fill-opacity="1"></use><g><use xlink:href="#f1gQGNEffN" opacity="1" fill-opacity="0" stroke="#000000" stroke-width="1" stroke-opacity="0"></use></g></g><g><use xlink:href="#f3dzMZ6sfG" opacity="1" fill="#ffffff" fill-opacity="1"></use><g><use xlink:href="#f3dzMZ6sfG" opacity="1" fill-opacity="0" stroke="#000000" stroke-width="1" stroke-opacity="0"></use></g></g><g><use xlink:href="#a21KYtVMIO" opacity="1" fill="#850009" fill-opacity="1"></use><g><use xlink:href="#a21KYtVMIO" opacity="1" fill-opacity="0" stroke="#000000" stroke-width="1" stroke-opacity="0"></use></g></g><g><use xlink:href="#bGjcC2Zkn" opacity="1" fill="#3f3d56" fill-opacity="1"></use><g><use xlink:href="#bGjcC2Zkn" opacity="1" fill-opacity="0" stroke="#000000" stroke-width="1" stroke-opacity="0"></use></g></g><g><use xlink:href="#a6xn3hM6e9" opacity="1" fill="#ffffff" fill-opacity="1"></use><g><use xlink:href="#a6xn3hM6e9" opacity="1" fill-opacity="0" stroke="#000000" stroke-width="1" stroke-opacity="0"></use></g></g><g><use xlink:href="#b19nEhCd7w" opacity="1" fill="#ffffff" fill-opacity="1"></use><g><use xlink:href="#b19nEhCd7w" opacity="1" fill-opacity="0" stroke="#000000" stroke-width="1" stroke-opacity="0"></use></g></g><g><use xlink:href="#h8DGl7qdQ" opacity="1" fill="#850009" fill-opacity="1"></use><g><use xlink:href="#h8DGl7qdQ" opacity="1" fill-opacity="0" stroke="#000000" stroke-width="1" stroke-opacity="0"></use></g></g><g><use xlink:href="#a12VSPKR5Q" opacity="1" fill="#850009" fill-opacity="1"></use><g><use xlink:href="#a12VSPKR5Q" opacity="1" fill-opacity="0" stroke="#000000" stroke-width="1" stroke-opacity="0"></use></g></g><g><use xlink:href="#b27WNFGEpD" opacity="1" fill="#f2f2f2" fill-opacity="1"></use><g><use xlink:href="#b27WNFGEpD" opacity="1" fill-opacity="0" stroke="#000000" stroke-width="1" stroke-opacity="0"></use></g></g><g><use xlink:href="#c1IfjjId0G" opacity="1" fill="#f2f2f2" fill-opacity="1"></use><g><use xlink:href="#c1IfjjId0G" opacity="1" fill-opacity="0" stroke="#000000" stroke-width="1" stroke-opacity="0"></use></g></g><g><use xlink:href="#atrepT6nv" opacity="1" fill="#f2f2f2" fill-opacity="1"></use><g><use xlink:href="#atrepT6nv" opacity="1" fill-opacity="0" stroke="#000000" stroke-width="1" stroke-opacity="0"></use></g></g><g><use xlink:href="#d878a1P89" opacity="1" fill="#f2f2f2" fill-opacity="1"></use><g><use xlink:href="#d878a1P89" opacity="1" fill-opacity="0" stroke="#000000" stroke-width="1" stroke-opacity="0"></use></g></g><g><use xlink:href="#b6jCQZSCIa" opacity="1" fill="#ffffff" fill-opacity="1"></use><g><use xlink:href="#b6jCQZSCIa" opacity="1" fill-opacity="0" stroke="#000000" stroke-width="1" stroke-opacity="0"></use></g></g><g><use xlink:href="#c4ZnMokeRC" opacity="1" fill="#850009" fill-opacity="1"></use><g><use xlink:href="#c4ZnMokeRC" opacity="1" fill-opacity="0" stroke="#000000" stroke-width="1" stroke-opacity="0"></use></g></g><g><use xlink:href="#acPIEsqL3" opacity="1" fill="#ffffff" fill-opacity="1"></use><g><use xlink:href="#acPIEsqL3" opacity="1" fill-opacity="0" stroke="#000000" stroke-width="1" stroke-opacity="0"></use></g></g><g><use xlink:href="#aalIu0HWOm" opacity="1" fill="#850009" fill-opacity="1"></use><g><use xlink:href="#aalIu0HWOm" opacity="1" fill-opacity="0" stroke="#000000" stroke-width="1" stroke-opacity="0"></use></g></g><g><use xlink:href="#abtSwYh1h" opacity="1" fill="#a0616a" fill-opacity="1"></use><g><use xlink:href="#abtSwYh1h" opacity="1" fill-opacity="0" stroke="#000000" stroke-width="1" stroke-opacity="0"></use></g></g><g><use xlink:href="#a3ZGKFEAL" opacity="1" fill="#a0616a" fill-opacity="1"></use><g><use xlink:href="#a3ZGKFEAL" opacity="1" fill-opacity="0" stroke="#000000" stroke-width="1" stroke-opacity="0"></use></g></g><g><use xlink:href="#f1xBekrAlC" opacity="1" fill="#a0616a" fill-opacity="1"></use><g><use xlink:href="#f1xBekrAlC" opacity="1" fill-opacity="0" stroke="#000000" stroke-width="1" stroke-opacity="0"></use></g></g><g><use xlink:href="#c1POWHQDCS" opacity="1" fill="#2f2e41" fill-opacity="1"></use><g><use xlink:href="#c1POWHQDCS" opacity="1" fill-opacity="0" stroke="#000000" stroke-width="1" stroke-opacity="0"></use></g></g><g><use xlink:href="#f6fC70k9Dv" opacity="1" fill="#a0616a" fill-opacity="1"></use><g><use xlink:href="#f6fC70k9Dv" opacity="1" fill-opacity="0" stroke="#000000" stroke-width="1" stroke-opacity="0"></use></g></g><g><use xlink:href="#a26HBtrr0L" opacity="1" fill="#2f2e41" fill-opacity="1"></use><g><use xlink:href="#a26HBtrr0L" opacity="1" fill-opacity="0" stroke="#000000" stroke-width="1" stroke-opacity="0"></use></g></g><g><use xlink:href="#dgZyQuXet" opacity="1" fill="#2f2e41" fill-opacity="1"></use><g><use xlink:href="#dgZyQuXet" opacity="1" fill-opacity="0" stroke="#000000" stroke-width="1" stroke-opacity="0"></use></g></g><g><use xlink:href="#d7CRlTvv2" opacity="1" fill="#a0616a" fill-opacity="1"></use><g><use xlink:href="#d7CRlTvv2" opacity="1" fill-opacity="0" stroke="#000000" stroke-width="1" stroke-opacity="0"></use></g></g><g><use xlink:href="#b29Dhkof8Q" opacity="1" fill="#3f3d56" fill-opacity="1"></use><g><use xlink:href="#b29Dhkof8Q" opacity="1" fill-opacity="0" stroke="#000000" stroke-width="1" stroke-opacity="0"></use></g></g><g><use xlink:href="#bOGURLcA4" opacity="1" fill="#3f3d56" fill-opacity="1"></use><g><use xlink:href="#bOGURLcA4" opacity="1" fill-opacity="0" stroke="#000000" stroke-width="1" stroke-opacity="0"></use></g></g><g><use xlink:href="#f2tAhOqz3K" opacity="1" fill="#3f3d56" fill-opacity="1"></use><g><use xlink:href="#f2tAhOqz3K" opacity="1" fill-opacity="0" stroke="#000000" stroke-width="1" stroke-opacity="0"></use></g></g><g><use xlink:href="#eWAwkDo68" opacity="1" fill="#2f2e41" fill-opacity="1"></use><g><use xlink:href="#eWAwkDo68" opacity="1" fill-opacity="0" stroke="#000000" stroke-width="1" stroke-opacity="0"></use></g></g><g><use xlink:href="#d21AHB1w90" opacity="1" fill="#3f3d56" fill-opacity="1"></use><g><use xlink:href="#d21AHB1w90" opacity="1" fill-opacity="0" stroke="#000000" stroke-width="1" stroke-opacity="0"></use></g></g></g></g></svg>