<?xml version="1.0" encoding="UTF-8" standalone="no"?>
<!DOCTYPE svg PUBLIC "-//W3C//DTD SVG 1.1//EN" "http://www.w3.org/Graphics/SVG/1.1/DTD/svg11.dtd">
<svg version="1.1" xmlns="http://www.w3.org/2000/svg" xmlns:xlink="http://www.w3.org/1999/xlink" preserveAspectRatio="xMidYMid meet" viewBox="0 0 595 842" width="595" height="842"><defs><path d="M383.39 325C383.39 346.11 355.39 363.26 320.89 363.26C286.4 363.26 258.39 346.11 258.39 325C258.39 303.89 286.4 286.74 320.89 286.74C355.39 286.74 383.39 303.89 383.39 325Z" id="c2JRxIjhI6"></path><path d="M442.61 306.67C443.52 331.53 403.71 353.2 353.75 355.04C303.8 356.87 262.5 338.18 261.58 313.33C260.67 288.47 300.49 266.8 350.44 264.96C400.4 263.13 441.7 281.82 442.61 306.67Z" id="c2pdlbTLU2"></path><path d="M372.45 340.98C372.45 351.48 358.46 360 341.23 360C323.99 360 310 351.48 310 340.98C310 330.49 323.99 321.96 341.23 321.96C358.46 321.96 372.45 330.49 372.45 340.98Z" id="a98cBSaQN"></path><path d="M290.35 345.65C290.35 365.32 267.79 381.29 240 381.29C212.21 381.29 189.65 365.32 189.65 345.65C189.65 325.97 212.21 310 240 310C267.79 310 290.35 325.97 290.35 345.65Z" id="e4dBcKPNfp"></path><path d="M281.29 353.07C281.29 377.55 255.5 397.42 223.73 397.42C191.96 397.42 166.17 377.55 166.17 353.07C166.17 328.59 191.96 308.72 223.73 308.72C255.5 308.72 281.29 328.59 281.29 353.07Z" id="h3d3TkwAg"></path><path d="M364.64 338.71C364.64 349.03 347.92 357.41 327.32 357.41C306.72 357.41 290 349.03 290 338.71C290 328.38 306.72 320 327.32 320C347.92 320 364.64 328.38 364.64 338.71Z" id="aaWELu2fx"></path><path d="M340 218.13L340 338.96C283.65 315.46 248.44 300.77 234.35 294.89C224.53 290.8 218.13 281.2 218.13 270.55C218.13 263.56 218.13 246.09 218.13 218.13L340 218.13Z" id="b5mecfVw8m"></path><path d="M253.53 369.66C253.53 397.07 234.82 419.32 211.76 419.32C188.71 419.32 170 397.07 170 369.66C170 342.25 188.71 320 211.76 320C234.82 320 253.53 342.25 253.53 369.66Z" id="d3zdWL09aA"></path><path d="M331.14 208.17L333.14 201.5L331.14 190L321.81 182.17L325.14 188.17L326.47 196.83L326.47 203.5L317.81 208.17L331.14 208.17Z" id="a3RMpyjiCq"></path><path d="M224.7 410.82C225.01 421.61 216.91 430.62 206.61 430.91C196.32 431.21 187.71 422.69 187.4 411.89C187.08 401.1 195.19 392.09 205.49 391.8C215.78 391.5 224.39 400.02 224.7 410.82Z" id="e6x5oUiPVR"></path><path d="M327.5 196.25C327.5 217.64 306.78 235 281.25 235C255.72 235 235 217.64 235 196.25C235 174.86 255.72 157.5 281.25 157.5C306.78 157.5 327.5 174.86 327.5 196.25Z" id="f8UCUpLIB"></path><path d="M210.76 177.71L233.67 173.54L237.84 172.5L245.13 169.38L252.42 166.25L261.28 163.65L269.24 162.08L277.42 162.6L286.28 163.13L292.53 165.21L299.24 168.33L303.99 170.69L309.24 173.54L317.01 180.69L322.22 186.56L326.38 190.69L329.24 196.46L329.24 205.83L306.07 213.13L299.24 223.54L297.74 236.04L300.86 246.46L308.15 248.54L320.65 252.71L329.24 252.19L329.24 326.15L249.24 290.69L229.24 278.75L216.49 270.69L210.76 177.71Z" id="feksRcseW"></path><path d="M342.44 233.43L333.54 239.06L316.04 240L306.26 236.08L308.71 225.81L316.75 215L343.68 210L342.44 233.43Z" id="b7xq5FE2uU"></path><path d="M369.69 230C369.69 243.06 351.83 253.66 329.84 253.66C307.85 253.66 290 243.06 290 230C290 216.94 307.85 206.34 329.84 206.34C351.83 206.34 369.69 216.94 369.69 230Z" id="b3Bb3qFgM"></path><path d="M340 203.51L382.35 203.51L382.35 271.49L340 271.49L340 203.51Z" id="f9iTkbtxE"></path><path d="M353.23 230C353.23 238.91 340.97 246.15 325.86 246.15C310.76 246.15 298.49 238.91 298.49 230C298.49 221.09 310.76 213.85 325.86 213.85C340.97 213.85 353.23 221.09 353.23 230Z" id="c1rfOvXidu"></path><path d="M313.75 187.66C313.75 195.16 308.09 201.25 301.11 201.25C294.13 201.25 288.47 195.16 288.47 187.66C288.47 180.15 294.13 174.06 301.11 174.06C308.09 174.06 313.75 180.15 313.75 187.66Z" id="afYuPy8E"></path><path d="M314.61 199.49L314.61 175.11L320 180.73L330 192.53L330 204.89L314.61 199.49Z" id="amhEspGiK"></path><path d="M337.2 251.58L337.2 334L315.86 321.58L320.66 318.78L325.21 313L329.2 307.58L331.86 297.08L333.21 281.5L331.86 266.98L327.06 258.58L317.21 250L337.2 251.58Z" id="a1pYbCcPYX"></path><path d="M310 213.83L303.46 216.33L297.5 220.3L292.99 228.83L295.98 239.96L316.92 250L321.83 247.22L318.84 246.79L312.99 244.83L302.32 239.49L297.65 231.33L302.32 222.83L320 214.16L310 213.83Z" id="bf7DEP5KZ"></path><path d="M325.84 194.63L330 192.36L325 183.75L325.84 194.63Z" id="b1N4lMrqv"></path><path d="M327.1 202.5L330 202.5L330 206.25L327.1 206.25L327.1 202.5Z" id="bm9vpn9mq"></path><path d="M340 235L347.53 235L347.53 340L340 340L340 235Z" id="c2twAEGF4P"></path><path d="M234.22 308.02L260 308.02L260 382.35L234.22 382.35L234.22 308.02Z" id="f29LRtZEJz"></path><path d="M246.59 312.11L273.41 312.11L273.41 367.89L246.59 367.89L246.59 312.11Z" id="jujYU9ix8"></path><path d="M380 320C385.52 320 390 324.48 390 330C390 338.88 390 355.51 390 364.39C390 369.91 385.52 374.39 380 374.39C372.79 374.39 361.17 374.39 353.96 374.39C348.44 374.39 343.96 369.91 343.96 364.39C343.96 355.51 343.96 338.88 343.96 330C343.96 324.48 348.44 320 353.96 320C361.17 320 372.79 320 380 320Z" id="b542QLTuB"></path><path d="M260 345.84L346.61 345.84L346.61 374.16L260 374.16L260 345.84Z" id="gCAAeqhcn"></path><path d="M270 323.54L292.12 323.54L292.12 353.72L270 353.72L270 323.54Z" id="aoev7vCg"></path><path d="M267.85 315.1L280 315.1L280 327.49L267.85 327.49L267.85 315.1Z" id="e2hxI2Q9k"></path><path d="M511.99 138.91L511.99 518.91L168.01 518.91L168.01 138.91L511.99 138.91Z" id="f2SShgmOXg"></path><path d="M379.1 443.26C344.61 443.26 316.6 426.11 316.6 405C316.6 383.89 344.61 366.74 379.1 366.74C413.6 366.74 441.6 383.89 441.6 405C441.6 426.11 413.6 443.26 379.1 443.26Z" id="ayq5WCK0u"></path><path d="M411.76 435.04C361.81 436.87 320.51 418.18 319.59 393.33C318.68 368.47 358.5 346.8 408.45 344.96C458.41 343.13 499.71 361.82 500.62 386.67C501.53 411.53 461.72 433.2 411.76 435.04Z" id="b5mt5UiY0G"></path><path d="M399.77 440.02C382.53 440.02 368.54 431.5 368.54 421C368.54 410.51 382.53 401.98 399.77 401.98C417 401.98 430.99 410.51 430.99 421C430.99 431.5 417 440.02 399.77 440.02Z" id="dm6KxN08p"></path><path d="M298.28 461.29C270.49 461.29 247.93 445.32 247.93 425.65C247.93 405.97 270.49 390 298.28 390C326.07 390 348.63 405.97 348.63 425.65C348.63 445.32 326.07 461.29 298.28 461.29Z" id="baX4ybMKY"></path><path d="M281.78 476.81C250.01 476.81 224.22 456.94 224.22 432.46C224.22 407.98 250.01 388.11 281.78 388.11C313.55 388.11 339.34 407.98 339.34 432.46C339.34 456.94 313.55 476.81 281.78 476.81Z" id="e4HsGguGp"></path><path d="M385.69 435.91C365.09 435.91 348.37 427.53 348.37 417.2C348.37 406.88 365.09 398.5 385.69 398.5C406.29 398.5 423.01 406.88 423.01 417.2C423.01 427.53 406.29 435.91 385.69 435.91Z" id="knZZ3Z9n2"></path><path d="M338.41 357.5C304.31 358.1 276.13 330.58 275.52 296.09C274.91 261.6 302.11 233.11 336.22 232.51C370.32 231.91 398.5 259.43 399.11 293.92C399.71 328.41 372.52 356.9 338.41 357.5Z" id="aJuFYt3ie"></path><path d="M398.01 418.96C341.66 395.46 306.45 380.77 292.36 374.89C282.54 370.8 276.14 361.2 276.14 350.55C276.14 343.56 276.14 326.09 276.14 298.13C284.26 298.13 324.89 298.13 398.01 298.13C398.01 370.63 398.01 410.9 398.01 418.96Z" id="c1kAc8fcn"></path><path d="M397.54 418.62C341.19 395.12 305.98 380.43 291.89 374.55C282.07 370.46 275.67 360.86 275.67 350.21C275.67 343.22 275.67 325.75 275.67 297.79C283.8 297.79 324.42 297.79 397.54 297.79C397.54 370.29 397.54 410.56 397.54 418.62Z" id="b1gk7uk2Lh"></path><path d="M271.7 486.12C242.07 486.12 218.02 465.63 218.02 440.4C218.02 415.17 242.07 394.69 271.7 394.69C301.33 394.69 325.39 415.17 325.39 440.4C325.39 465.63 301.33 486.12 271.7 486.12Z" id="d2acSwiNc"></path><path d="M269.77 499.32C246.72 499.32 228.01 477.07 228.01 449.66C228.01 422.25 246.72 400 269.77 400C292.83 400 311.54 422.25 311.54 449.66C311.54 477.07 292.83 499.32 269.77 499.32Z" id="egkWoRaNX"></path><path d="M328.01 450L328.01 520L202.96 520L202.96 450L328.01 450Z" id="g3svJMhM5"></path><path d="M391.66 281.5L389.66 270L380.33 262.17L383.66 268.17L385 276.83L385 283.5L376.33 288.17L389.66 288.17L391.66 281.5Z" id="c1jclhV8KC"></path><path d="M338.01 190L332.02 190L328.01 233.21L342.96 232.69L338.01 190Z" id="bfTyHZ5CG"></path><path d="M335.41 193.63C330.67 193.63 326.82 189.55 326.82 184.52C326.82 179.49 330.67 175.4 335.41 175.4C340.15 175.4 344 179.49 344 184.52C344 189.55 340.15 193.63 335.41 193.63Z" id="a3Rmr1IFwX"></path><path d="M339.26 315C313.73 315 293.01 297.64 293.01 276.25C293.01 254.86 313.73 237.5 339.26 237.5C364.79 237.5 385.51 254.86 385.51 276.25C385.51 297.64 364.79 315 339.26 315Z" id="a1c77jQuA4"></path><path d="M291.68 253.88L295.85 252.84L303.14 249.72L310.43 246.59L319.29 243.99L327.25 242.42L335.43 242.94L344.29 243.47L350.54 245.55L357.25 248.67L362 251.03L367.25 253.88L375.02 261.03L380.23 266.9L384.39 271.03L387.25 276.8L387.25 286.17L364.08 293.47L357.25 303.88L355.75 316.38L358.87 326.8L366.16 328.88L378.66 333.05L387.25 332.53L387.25 406.49L307.25 371.03L287.25 359.09L274.5 351.03L268.77 258.05L291.68 253.88Z" id="c41rtOC0Hx"></path><path d="M391.55 319.06L374.05 320L364.27 316.08L366.72 305.81L374.76 295L401.69 290L400.45 313.43L391.55 319.06Z" id="a4L6qDTcdP"></path><path d="M386.47 333.47C364.48 333.47 346.63 322.87 346.63 309.81C346.63 296.75 364.48 286.15 386.47 286.15C408.46 286.15 426.32 296.75 426.32 309.81C426.32 322.87 408.46 333.47 386.47 333.47Z" id="i1lvxfsYoT"></path><path d="M440.36 283.51L440.36 351.49L398.01 351.49L398.01 283.51L440.36 283.51Z" id="d4f07PmR3d"></path><path d="M384.21 326.15C369.11 326.15 356.84 318.91 356.84 310C356.84 301.09 369.11 293.85 384.21 293.85C399.32 293.85 411.58 301.09 411.58 310C411.58 318.91 399.32 326.15 384.21 326.15Z" id="a1jiHhtVnN"></path><path d="M372.62 255.11L378.01 260.73L388.01 272.53L388.01 284.89L372.62 279.49L372.62 255.11Z" id="com2qYY5I"></path><path d="M395.12 414.42L373.78 402L378.58 399.2L383.13 393.42L387.12 388L389.78 377.5L391.13 361.92L389.78 347.4L384.98 339L375.13 330.42L395.12 332L395.12 414.42Z" id="b1fkQhnOfu"></path><path d="M361.43 294.87L355.47 298.84L350.96 307.37L353.95 318.5L374.89 328.54L379.8 325.77L376.81 325.34L370.96 323.37L360.29 318.04L355.62 309.87L360.29 301.37L377.97 292.7L367.97 292.37L361.43 294.87Z" id="e3XrUA5ujS"></path><path d="M388.14 272.37L383.14 263.76L383.98 274.64L388.14 272.37Z" id="euP8inz3n"></path><path d="M388.01 282.5L388.01 286.25L385.11 286.25L385.11 282.5L388.01 282.5Z" id="bCLkVNX8S"></path><path d="M397.72 320L404.24 320L404.24 420L397.72 420L397.72 320Z" id="c15uo5TkE"></path></defs><g><g><g><use xlink:href="#c2JRxIjhI6" opacity="1" fill="#850009" fill-opacity="1"></use></g><g><use xlink:href="#c2pdlbTLU2" opacity="1" fill="#ffffff" fill-opacity="1"></use></g><g><use xlink:href="#a98cBSaQN" opacity="1" fill="#850009" fill-opacity="1"></use></g><g><use xlink:href="#e4dBcKPNfp" opacity="1" fill="#850009" fill-opacity="1"></use></g><g><use xlink:href="#h3d3TkwAg" opacity="1" fill="#ffffff" fill-opacity="1"></use></g><g><use xlink:href="#aaWELu2fx" opacity="1" fill="#ffffff" fill-opacity="1"></use></g><g><use xlink:href="#b5mecfVw8m" opacity="1" fill="#606060" fill-opacity="1"></use></g><g><use xlink:href="#d3zdWL09aA" opacity="1" fill="#ffffff" fill-opacity="1"></use></g><g><use xlink:href="#a3RMpyjiCq" opacity="1" fill="#606060" fill-opacity="1"></use></g><g><use xlink:href="#e6x5oUiPVR" opacity="1" fill="#ffffff" fill-opacity="1"></use></g><g><use xlink:href="#f8UCUpLIB" opacity="1" fill="#ffffff" fill-opacity="1"></use></g><g><use xlink:href="#feksRcseW" opacity="1" fill="#ffffff" fill-opacity="1"></use></g><g><use xlink:href="#b7xq5FE2uU" opacity="1" fill="#ffffff" fill-opacity="1"></use></g><g><use xlink:href="#b3Bb3qFgM" opacity="1" fill="#606060" fill-opacity="1"></use></g><g><use xlink:href="#f9iTkbtxE" opacity="1" fill="#ffffff" fill-opacity="1"></use></g><g><use xlink:href="#c1rfOvXidu" opacity="1" fill="#ffffff" fill-opacity="1"></use></g><g><use xlink:href="#afYuPy8E" opacity="1" fill="#ffffff" fill-opacity="1"></use></g><g><use xlink:href="#amhEspGiK" opacity="1" fill="#ffffff" fill-opacity="1"></use></g><g><use xlink:href="#a1pYbCcPYX" opacity="1" fill="#606060" fill-opacity="1"></use></g><g><use xlink:href="#bf7DEP5KZ" opacity="1" fill="#606060" fill-opacity="1"></use></g><g><use xlink:href="#b1N4lMrqv" opacity="1" fill="#ffffff" fill-opacity="1"></use></g><g><use xlink:href="#bm9vpn9mq" opacity="1" fill="#ffffff" fill-opacity="1"></use></g><g><use xlink:href="#c2twAEGF4P" opacity="1" fill="#ffffff" fill-opacity="1"></use></g><g><use xlink:href="#f29LRtZEJz" opacity="1" fill="#ffffff" fill-opacity="1"></use></g><g><use xlink:href="#jujYU9ix8" opacity="1" fill="#ffffff" fill-opacity="1"></use></g><g><use xlink:href="#b542QLTuB" opacity="1" fill="#ffffff" fill-opacity="1"></use></g><g><use xlink:href="#gCAAeqhcn" opacity="1" fill="#ffffff" fill-opacity="1"></use></g><g><use xlink:href="#aoev7vCg" opacity="1" fill="#ffffff" fill-opacity="1"></use></g><g><use xlink:href="#e2hxI2Q9k" opacity="1" fill="#ffffff" fill-opacity="1"></use></g><g><use xlink:href="#f2SShgmOXg" opacity="1" fill="#7a0000" fill-opacity="1"></use><g><use xlink:href="#f2SShgmOXg" opacity="1" fill-opacity="0" stroke="#000000" stroke-width="1" stroke-opacity="0"></use></g></g><g><use xlink:href="#ayq5WCK0u" opacity="1" fill="#ffffff" fill-opacity="1"></use><g><use xlink:href="#ayq5WCK0u" opacity="1" fill-opacity="0" stroke="#000000" stroke-width="1" stroke-opacity="0"></use></g></g><g><use xlink:href="#b5mt5UiY0G" opacity="1" fill="#7a0000" fill-opacity="1"></use><g><use xlink:href="#b5mt5UiY0G" opacity="1" fill-opacity="0" stroke="#000000" stroke-width="1" stroke-opacity="0"></use></g></g><g><use xlink:href="#dm6KxN08p" opacity="1" fill="#ffffff" fill-opacity="1"></use><g><use xlink:href="#dm6KxN08p" opacity="1" fill-opacity="0" stroke="#000000" stroke-width="1" stroke-opacity="0"></use></g></g><g><use xlink:href="#baX4ybMKY" opacity="1" fill="#ffffff" fill-opacity="1"></use><g><use xlink:href="#baX4ybMKY" opacity="1" fill-opacity="0" stroke="#000000" stroke-width="1" stroke-opacity="0"></use></g></g><g><use xlink:href="#e4HsGguGp" opacity="1" fill="#7a0000" fill-opacity="1"></use><g><use xlink:href="#e4HsGguGp" opacity="1" fill-opacity="0" stroke="#000000" stroke-width="1" stroke-opacity="0"></use></g></g><g><use xlink:href="#knZZ3Z9n2" opacity="1" fill="#7a0000" fill-opacity="1"></use><g><use xlink:href="#knZZ3Z9n2" opacity="1" fill-opacity="0" stroke="#000000" stroke-width="1" stroke-opacity="0"></use></g></g><g><use xlink:href="#aJuFYt3ie" opacity="1" fill="#ffffff" fill-opacity="1"></use><g><use xlink:href="#aJuFYt3ie" opacity="1" fill-opacity="0" stroke="#000000" stroke-width="1" stroke-opacity="0"></use></g></g><g><use xlink:href="#c1kAc8fcn" opacity="1" fill="#850009" fill-opacity="1"></use><g><use xlink:href="#c1kAc8fcn" opacity="1" fill-opacity="0" stroke="#000000" stroke-width="1" stroke-opacity="0"></use></g></g><g><use xlink:href="#b1gk7uk2Lh" opacity="1" fill="#ffffff" fill-opacity="1"></use></g><g><use xlink:href="#d2acSwiNc" opacity="1" fill="#ffffff" fill-opacity="1"></use><g><use xlink:href="#d2acSwiNc" opacity="1" fill-opacity="0" stroke="#000000" stroke-width="1" stroke-opacity="0"></use></g></g><g><use xlink:href="#egkWoRaNX" opacity="1" fill="#7a0000" fill-opacity="1"></use><g><use xlink:href="#egkWoRaNX" opacity="1" fill-opacity="0" stroke="#000000" stroke-width="1" stroke-opacity="0"></use></g></g><g><use xlink:href="#g3svJMhM5" opacity="1" fill="#7a0000" fill-opacity="1"></use><g><use xlink:href="#g3svJMhM5" opacity="1" fill-opacity="0" stroke="#000000" stroke-width="1" stroke-opacity="0"></use></g></g><g><use xlink:href="#c1jclhV8KC" opacity="1" fill="#ffffff" fill-opacity="1"></use><g><use xlink:href="#c1jclhV8KC" opacity="1" fill-opacity="0" stroke="#000000" stroke-width="1" stroke-opacity="0"></use></g></g><g><use xlink:href="#bfTyHZ5CG" opacity="1" fill="#ffffff" fill-opacity="1"></use><g><use xlink:href="#bfTyHZ5CG" opacity="1" fill-opacity="0" stroke="#000000" stroke-width="1" stroke-opacity="0"></use></g></g><g><use xlink:href="#a3Rmr1IFwX" opacity="1" fill="#ffffff" fill-opacity="1"></use><g><use xlink:href="#a3Rmr1IFwX" opacity="1" fill-opacity="0" stroke="#000000" stroke-width="1" stroke-opacity="0"></use></g></g><g><use xlink:href="#a1c77jQuA4" opacity="1" fill="#7a0000" fill-opacity="1"></use><g><use xlink:href="#a1c77jQuA4" opacity="1" fill-opacity="0" stroke="#000000" stroke-width="1" stroke-opacity="0"></use></g></g><g><use xlink:href="#c41rtOC0Hx" opacity="1" fill="#7a0000" fill-opacity="1"></use><g><use xlink:href="#c41rtOC0Hx" opacity="1" fill-opacity="0" stroke="#000000" stroke-width="1" stroke-opacity="0"></use></g></g><g><use xlink:href="#a4L6qDTcdP" opacity="1" fill="#ffffff" fill-opacity="1"></use><g><use xlink:href="#a4L6qDTcdP" opacity="1" fill-opacity="0" stroke="#000000" stroke-width="1" stroke-opacity="0"></use></g></g><g><use xlink:href="#i1lvxfsYoT" opacity="1" fill="#ffffff" fill-opacity="1"></use><g><use xlink:href="#i1lvxfsYoT" opacity="1" fill-opacity="0" stroke="#000000" stroke-width="1" stroke-opacity="0"></use></g></g><g><use xlink:href="#d4f07PmR3d" opacity="1" fill="#7a0000" fill-opacity="1"></use><g><use xlink:href="#d4f07PmR3d" opacity="1" fill-opacity="0" stroke="#000000" stroke-width="1" stroke-opacity="0"></use></g></g><g><use xlink:href="#a1jiHhtVnN" opacity="1" fill="#7a0000" fill-opacity="1"></use><g><use xlink:href="#a1jiHhtVnN" opacity="1" fill-opacity="0" stroke="#000000" stroke-width="1" stroke-opacity="0"></use></g></g><g><use xlink:href="#com2qYY5I" opacity="1" fill="#7a0000" fill-opacity="1"></use><g><use xlink:href="#com2qYY5I" opacity="1" fill-opacity="0" stroke="#000000" stroke-width="1" stroke-opacity="0"></use></g></g><g><use xlink:href="#b1fkQhnOfu" opacity="1" fill="#ffffff" fill-opacity="1"></use><g><use xlink:href="#b1fkQhnOfu" opacity="1" fill-opacity="0" stroke="#000000" stroke-width="1" stroke-opacity="0"></use></g></g><g><use xlink:href="#e3XrUA5ujS" opacity="1" fill="#ffffff" fill-opacity="1"></use><g><use xlink:href="#e3XrUA5ujS" opacity="1" fill-opacity="0" stroke="#000000" stroke-width="1" stroke-opacity="0"></use></g></g><g><use xlink:href="#euP8inz3n" opacity="1" fill="#7a0000" fill-opacity="1"></use><g><use xlink:href="#euP8inz3n" opacity="1" fill-opacity="0" stroke="#000000" stroke-width="1" stroke-opacity="0"></use></g></g><g><use xlink:href="#bCLkVNX8S" opacity="1" fill="#7a0000" fill-opacity="1"></use><g><use xlink:href="#bCLkVNX8S" opacity="1" fill-opacity="0" stroke="#000000" stroke-width="1" stroke-opacity="0"></use></g></g><g><use xlink:href="#c15uo5TkE" opacity="1" fill="#7a0000" fill-opacity="1"></use></g></g></g></svg>