<?xml version="1.0" encoding="UTF-8" standalone="no"?>
<!DOCTYPE svg PUBLIC "-//W3C//DTD SVG 1.1//EN" "http://www.w3.org/Graphics/SVG/1.1/DTD/svg11.dtd">
<svg version="1.1" xmlns="http://www.w3.org/2000/svg" xmlns:xlink="http://www.w3.org/1999/xlink" preserveAspectRatio="xMidYMid meet" viewBox="0 0 750 1334" width="750" height="1334"><defs><path d="M48.63 856.57C46.02 849.4 41.98 844.79 37.45 844.79C32.92 844.79 28.88 849.4 26.27 856.57C25.4 855.86 24.32 855.47 23.22 855.45C18.06 855.45 13.89 864.51 13.89 875.69C18.6 875.69 56.3 875.69 61.01 875.69C61.01 864.51 56.84 855.45 51.69 855.45C50.58 855.47 49.51 855.86 48.63 856.57Z" id="fuArggNTY"></path><path d="M238.92 874.56C238.92 874.56 238.92 874.56 238.92 874.56C238.92 875.92 238.92 876.67 238.92 876.82C238.92 876.82 238.92 876.82 238.92 876.82C95.57 876.82 15.93 876.82 0 876.82C0 876.82 0 876.82 0 876.82C0 875.47 0 874.71 0 874.56C0 874.56 0 874.56 0 874.56C143.35 874.56 223 874.56 238.92 874.56Z" id="a9Qh8NEjk"></path><path d="M897.89 809.08C895.29 801.91 891.25 797.3 886.72 797.3C882.18 797.3 878.15 801.91 875.54 809.08C874.66 808.37 873.59 807.98 872.48 807.96C867.33 807.96 863.16 817.02 863.16 828.2C867.87 828.2 905.57 828.2 910.28 828.2C910.28 817.02 906.1 807.96 900.95 807.96C899.84 807.98 898.77 808.37 897.89 809.08Z" id="bIjhGGR6n"></path><path d="M572.05 435.97L572.05 431.09L468.89 431.09L468.89 435.97C331.82 435.97 255.67 435.97 240.44 435.97C231.94 435.97 225.05 443.13 225.05 451.98C225.05 451.98 225.05 451.98 225.05 451.98C225.05 484.39 225.05 743.73 225.05 776.14C225.05 784.99 231.94 792.15 240.44 792.15C296.35 792.15 743.65 792.15 799.56 792.15C808.06 792.15 814.95 784.99 814.95 776.14C814.95 743.73 814.95 484.39 814.95 451.98C814.95 443.13 808.06 435.97 799.56 435.97C799.56 435.97 799.56 435.97 799.56 435.97C799.56 435.97 723.72 435.97 572.05 435.97Z" id="gyzaYji3M"></path><path d="M794.31 464.26C794.31 464.26 794.31 464.26 794.31 464.26C794.31 657.49 794.31 764.83 794.31 786.3C794.31 786.3 794.31 786.3 794.31 786.3C465.14 786.3 282.26 786.3 245.69 786.3C245.69 786.3 245.69 786.3 245.69 786.3C245.69 593.08 245.69 485.73 245.69 464.26C245.69 464.26 245.69 464.26 245.69 464.26C574.86 464.26 757.74 464.26 794.31 464.26Z" id="aoRWdrt2L"></path><path d="M519.53 443.77C516.42 443.77 513.9 446.39 513.9 449.63C513.9 452.86 516.42 455.48 519.53 455.48C522.64 455.48 525.16 452.86 525.16 449.63C525.16 446.39 522.64 443.77 519.53 443.77Z" id="eeTUWhS6M"></path><path d="M917.14 825.94C917.14 825.94 917.14 825.94 917.14 825.94C917.14 827.3 917.14 828.05 917.14 828.2C917.14 828.2 917.14 828.2 917.14 828.2C439.51 828.2 174.16 828.2 121.09 828.2C121.09 828.2 121.09 828.2 121.09 828.2C121.09 826.85 121.09 826.09 121.09 825.94C121.09 825.94 121.09 825.94 121.09 825.94C598.72 825.94 864.07 825.94 917.14 825.94Z" id="e1AYwoObjg"></path><path d="M594.96 560.76C594.96 544.61 582.38 531.52 566.86 531.52C566.86 531.52 566.86 531.52 566.86 531.52C564.57 531.52 546.25 531.52 543.96 531.52C543.96 528.31 534.03 525.67 521.41 525.42C521.41 522.55 521.41 499.56 521.41 496.69C530.01 495.56 536.1 487.4 535.02 478.45C533.93 469.5 526.09 463.17 517.49 464.29C508.89 465.42 502.8 473.59 503.88 482.53C504.78 489.93 510.38 495.76 517.49 496.69C517.49 499.56 517.49 522.55 517.49 525.42C504.87 525.67 494.93 528.31 494.93 531.52C492.25 531.52 470.8 531.52 468.11 531.52C452.6 531.52 440.02 544.61 440.02 560.76C440.02 560.76 440.02 560.76 440.02 560.76C440.02 563.14 440.02 582.2 440.02 584.58C436.77 584.58 434.14 596 434.14 610.09C434.14 624.18 436.77 635.6 440.02 635.6C440.02 638.39 440.02 660.72 440.02 663.51C440.02 679.65 452.6 692.74 468.11 692.74C468.11 692.74 468.11 692.74 468.11 692.74C477.99 692.74 556.99 692.74 566.86 692.74C582.38 692.74 594.96 679.65 594.96 663.51C594.96 663.51 594.96 663.51 594.96 663.51C594.96 660.72 594.96 638.39 594.96 635.6C598.21 635.6 600.84 624.18 600.84 610.09C600.84 596 598.21 584.58 594.96 584.58C594.96 579.82 594.96 563.14 594.96 560.76Z" id="gkLPCl892"></path><path d="M561.24 540.71C574.99 540.71 586.13 552.3 586.13 566.61C586.13 566.61 586.13 566.61 586.13 566.61C586.13 575.71 586.13 648.55 586.13 657.65C586.13 671.96 574.99 683.56 561.24 683.56C561.24 683.56 561.24 683.56 561.24 683.56C552.49 683.56 482.49 683.56 473.74 683.56C459.99 683.56 448.85 671.96 448.85 657.65C448.85 648.55 448.85 575.71 448.85 566.61C448.85 552.3 459.99 540.71 473.74 540.71C473.74 540.71 552.49 540.71 561.24 540.71Z" id="fbacatvCG"></path><path d="M468.46 590.19C468.46 589.63 468.9 589.17 469.44 589.17C469.98 589.17 470.42 589.63 470.42 590.19C470.42 599.21 477.44 606.52 486.11 606.52C494.77 606.52 501.8 599.21 501.8 590.19C501.8 589.63 502.24 589.17 502.78 589.17C503.32 589.17 503.76 589.63 503.76 590.19C503.75 600.33 495.85 608.55 486.11 608.56C476.37 608.55 468.47 600.33 468.46 590.19Z" id="k3pRaBthwB"></path><path d="M503.76 628.97C503.76 628.4 504.2 627.95 504.74 627.95C505.28 627.95 505.72 628.4 505.72 628.97C505.72 635.73 510.99 641.21 517.49 641.21C523.99 641.21 529.26 635.73 529.26 628.97C529.26 628.4 529.69 627.95 530.24 627.95C530.78 627.95 531.22 628.4 531.22 628.97C531.21 636.85 525.07 643.24 517.49 643.25C509.91 643.24 503.77 636.85 503.76 628.97Z" id="c3inr5JvZ"></path><path d="M531.22 590.19C531.22 589.63 531.66 589.17 532.2 589.17C532.74 589.17 533.18 589.63 533.18 590.19C533.18 599.21 540.2 606.52 548.87 606.52C557.53 606.52 564.56 599.21 564.56 590.19C564.56 589.63 565 589.17 565.54 589.17C566.08 589.17 566.52 589.63 566.52 590.19C566.51 600.33 558.61 608.55 548.87 608.56C539.12 608.55 531.23 600.33 531.22 590.19Z" id="a3pZ4Lo61"></path><path d="M486.11 582.03C481.23 582.03 477.28 586.14 477.28 591.21C477.28 596.29 481.23 600.4 486.11 600.4C490.98 600.4 494.93 596.29 494.93 591.21C494.93 586.14 490.98 582.03 486.11 582.03Z" id="ant6au9d9"></path><path d="M548.87 582.03C543.99 582.03 540.04 586.14 540.04 591.21C540.04 596.29 543.99 600.4 548.87 600.4C553.74 600.4 557.69 596.29 557.69 591.21C557.69 586.14 553.74 582.03 548.87 582.03Z" id="aoUJFu8tS"></path><path d="M525.33 634.07C525.33 636.32 521.82 638.15 517.49 638.15C513.16 638.15 509.64 636.32 509.64 634.07C509.64 631.82 513.16 629.99 517.49 629.99C521.82 629.99 525.33 631.82 525.33 634.07Z" id="a6xtNLtn2"></path><path d="M776.81 780.44C776.81 778.04 776.81 776.7 776.81 776.43C776.81 775.99 776.47 775.63 776.04 775.63C776.04 775.63 776.04 775.63 776.04 775.63C774.21 775.63 759.52 775.63 757.69 775.63C757.26 775.63 756.92 775.99 756.92 776.43C756.92 776.43 756.92 776.43 756.92 776.43C756.92 776.7 756.92 778.04 756.92 780.44L745.45 780.44C745.45 778.04 745.45 776.7 745.45 776.43C745.45 775.99 745.11 775.63 744.68 775.63C744.68 775.63 744.68 775.63 744.68 775.63C742.85 775.63 728.16 775.63 726.33 775.63C725.9 775.63 725.56 775.99 725.56 776.43C725.56 776.43 725.56 776.43 725.56 776.43C725.56 776.7 725.56 778.04 725.56 780.44L714.09 780.44C714.09 778.04 714.09 776.7 714.09 776.43C714.09 775.99 713.74 775.63 713.32 775.63C713.32 775.63 713.32 775.63 713.32 775.63C711.49 775.63 696.8 775.63 694.96 775.63C694.54 775.63 694.2 775.99 694.2 776.43C694.2 776.43 694.2 776.43 694.2 776.43C694.2 776.7 694.2 778.04 694.2 780.44L682.73 780.44C682.73 778.04 682.73 776.7 682.73 776.43C682.73 775.99 682.38 775.63 681.96 775.63C681.96 775.63 681.96 775.63 681.96 775.63C680.13 775.63 665.44 775.63 663.6 775.63C663.18 775.63 662.84 775.99 662.84 776.43C662.84 776.43 662.84 776.43 662.84 776.43C662.84 776.7 662.84 778.04 662.84 780.44L651.37 780.44C651.37 778.04 651.37 776.7 651.37 776.43C651.37 775.99 651.02 775.63 650.6 775.63C650.6 775.63 650.6 775.63 650.6 775.63C648.76 775.63 634.08 775.63 632.24 775.63C631.82 775.63 631.48 775.99 631.48 776.43C631.48 776.43 631.48 776.43 631.48 776.43C631.48 776.7 631.48 778.04 631.48 780.44L620 780.44C620 778.04 620 776.7 620 776.43C620 775.99 619.66 775.63 619.24 775.63C619.24 775.63 619.24 775.63 619.24 775.63C617.4 775.63 602.72 775.63 600.88 775.63C600.46 775.63 600.12 775.99 600.12 776.43C600.12 776.43 600.12 776.43 600.12 776.43C600.12 776.7 600.12 778.04 600.12 780.44L588.64 780.44C588.64 778.04 588.64 776.7 588.64 776.43C588.64 775.99 588.3 775.63 587.88 775.63C587.88 775.63 587.88 775.63 587.88 775.63C573.5 775.63 458.46 775.63 444.08 775.63C443.65 775.63 443.31 775.99 443.31 776.43C443.31 776.43 443.31 776.43 443.31 776.43C443.31 776.7 443.31 778.04 443.31 780.44L431.84 780.44C431.84 778.04 431.84 776.7 431.84 776.43C431.84 775.99 431.5 775.63 431.07 775.63C431.07 775.63 431.07 775.63 431.07 775.63C429.24 775.63 414.55 775.63 412.72 775.63C412.29 775.63 411.95 775.99 411.95 776.43C411.95 776.43 411.95 776.43 411.95 776.43C411.95 776.7 411.95 778.04 411.95 780.44L400.48 780.44C400.48 778.04 400.48 776.7 400.48 776.43C400.48 775.99 400.14 775.63 399.71 775.63C399.71 775.63 399.71 775.63 399.71 775.63C397.88 775.63 383.19 775.63 381.36 775.63C380.93 775.63 380.59 775.99 380.59 776.43C380.59 776.43 380.59 776.43 380.59 776.43C380.59 776.7 380.59 778.04 380.59 780.44L369.12 780.44C369.12 778.04 369.12 776.7 369.12 776.43C369.12 775.99 368.77 775.63 368.35 775.63C368.35 775.63 368.35 775.63 368.35 775.63C366.52 775.63 351.83 775.63 349.99 775.63C349.57 775.63 349.23 775.99 349.23 776.43C349.23 776.43 349.23 776.43 349.23 776.43C349.23 776.7 349.23 778.04 349.23 780.44L337.76 780.44C337.76 778.04 337.76 776.7 337.76 776.43C337.76 775.99 337.41 775.63 336.99 775.63C336.99 775.63 336.99 775.63 336.99 775.63C335.16 775.63 320.47 775.63 318.63 775.63C318.21 775.63 317.87 775.99 317.87 776.43C317.87 776.43 317.87 776.43 317.87 776.43C317.87 776.7 317.87 778.04 317.87 780.44L306.4 780.44C306.4 778.04 306.4 776.7 306.4 776.43C306.4 775.99 306.05 775.63 305.63 775.63C305.63 775.63 305.63 775.63 305.63 775.63C303.79 775.63 289.11 775.63 287.27 775.63C286.85 775.63 286.51 775.99 286.51 776.43C286.51 776.43 286.51 776.43 286.51 776.43C286.51 776.7 286.51 778.04 286.51 780.44L275.03 780.44C275.03 778.04 275.03 776.7 275.03 776.43C275.03 775.99 274.69 775.63 274.27 775.63C274.27 775.63 274.27 775.63 274.27 775.63C272.43 775.63 257.75 775.63 255.91 775.63C255.49 775.63 255.15 775.99 255.15 776.43C255.15 776.43 255.15 776.43 255.15 776.43C255.15 776.7 255.15 778.04 255.15 780.44C234.04 780.44 222.31 780.44 219.96 780.44C209.82 780.44 201.6 789 201.6 799.55C201.6 799.55 201.6 799.55 201.6 799.55C201.6 800.41 201.6 807.32 201.6 808.18C201.6 818.73 209.82 827.29 219.96 827.29C281 827.29 769.31 827.29 830.35 827.29C840.49 827.29 848.71 818.73 848.71 808.18C848.71 807.32 848.71 800.41 848.71 799.55C848.71 789 840.49 780.44 830.35 780.44C830.35 780.44 830.35 780.44 830.35 780.44C830.35 780.44 812.5 780.44 776.81 780.44Z" id="b50q8p7UIJ"></path><path d="M695.6 691.46C695.6 691.46 695.6 691.46 695.6 691.46C695.6 692.82 695.6 693.57 695.6 693.72C695.6 693.72 695.6 693.72 695.6 693.72C476 693.72 354.01 693.72 329.61 693.72C329.61 693.72 329.61 693.72 329.61 693.72C329.61 692.37 329.61 691.62 329.61 691.46C329.61 691.46 329.61 691.46 329.61 691.46C549.2 691.46 671.2 691.46 695.6 691.46Z" id="b2ANuE8Bsq"></path><path d="M265.53 690.33C268.42 654.99 268.42 619.45 265.53 584.11C274.55 584.11 346.66 584.11 355.67 584.11C350.71 620.49 350.42 655.96 355.67 690.33C337.64 690.33 274.55 690.33 265.53 690.33Z" id="hZSq3ELKo"></path><path d="M343.73 605.58C343.73 605.58 343.73 605.58 343.73 605.58C343.73 608.29 343.73 609.8 343.73 610.1C343.73 610.1 343.73 610.1 343.73 610.1C304.63 610.1 282.91 610.1 278.56 610.1C278.56 610.1 278.56 610.1 278.56 610.1C278.56 607.39 278.56 605.88 278.56 605.58C278.56 605.58 278.56 605.58 278.56 605.58C317.66 605.58 339.38 605.58 343.73 605.58Z" id="fqbvowvYc"></path><path d="M343.73 620.27C343.73 620.27 343.73 620.27 343.73 620.27C343.73 622.98 343.73 624.49 343.73 624.79C343.73 624.79 343.73 624.79 343.73 624.79C304.63 624.79 282.91 624.79 278.56 624.79C278.56 624.79 278.56 624.79 278.56 624.79C278.56 622.08 278.56 620.57 278.56 620.27C278.56 620.27 278.56 620.27 278.56 620.27C317.66 620.27 339.38 620.27 343.73 620.27Z" id="hQp3lLmqs"></path><path d="M343.73 634.96C343.73 634.96 343.73 634.96 343.73 634.96C343.73 637.67 343.73 639.18 343.73 639.48C343.73 639.48 343.73 639.48 343.73 639.48C304.63 639.48 282.91 639.48 278.56 639.48C278.56 639.48 278.56 639.48 278.56 639.48C278.56 636.77 278.56 635.26 278.56 634.96C278.56 634.96 278.56 634.96 278.56 634.96C317.66 634.96 339.38 634.96 343.73 634.96Z" id="cAyOdc0qB"></path><path d="M343.73 649.65C343.73 649.65 343.73 649.65 343.73 649.65C343.73 652.36 343.73 653.87 343.73 654.17C343.73 654.17 343.73 654.17 343.73 654.17C304.63 654.17 282.91 654.17 278.56 654.17C278.56 654.17 278.56 654.17 278.56 654.17C278.56 651.46 278.56 649.95 278.56 649.65C278.56 649.65 278.56 649.65 278.56 649.65C317.66 649.65 339.38 649.65 343.73 649.65Z" id="cxZon5hAZ"></path><path d="M343.73 664.34C343.73 664.34 343.73 664.34 343.73 664.34C343.73 667.06 343.73 668.56 343.73 668.86C343.73 668.86 343.73 668.86 343.73 668.86C304.63 668.86 282.91 668.86 278.56 668.86C278.56 668.86 278.56 668.86 278.56 668.86C278.56 666.15 278.56 664.64 278.56 664.34C278.56 664.34 278.56 664.34 278.56 664.34C317.66 664.34 339.38 664.34 343.73 664.34Z" id="d1bw6FF6ez"></path><path d="M92.88 351.58C92.88 351.58 69.61 395.79 69.61 395.79C70.42 396 76.89 397.69 77.7 397.9C77.7 397.9 79.72 383.16 84.78 381.05C84.58 382.95 82.96 398.11 82.76 400C82.76 400 143.46 422.11 170.77 397.9C170.67 397.16 169.86 391.27 169.76 390.53C169.76 390.53 173.81 391.58 173.81 397.9C174.11 397.58 176.54 395.06 176.84 394.74C176.84 394.74 173.81 388.42 164.7 380C158.73 374.47 156.67 363.96 155.97 357.38C155.44 351.89 153.33 346.7 149.91 342.48C143.86 335.18 132.84 327.43 116.14 335.79C111.49 338.95 101.98 330.53 92.88 351.58Z" id="e6mi1gBC5u"></path><path d="M79.64 826.15L97.02 822.76L100.28 800.16L75.3 800.16L75.3 800.16L79.64 826.15Z" id="f5jHXeP01f"></path><path d="M100.28 814.85L76.39 817.11L77.47 837.45C76.82 853.05 76.46 861.71 76.39 863.45C76.39 863.45 62.27 892.83 82.9 890.57C82.9 890.57 101.36 877.01 101.36 877.01C101.73 876.55 103.54 874.29 106.79 870.23L103.54 853.28L100.28 814.85Z" id="d969Ith4RW"></path><path d="M168.7 826.15L151.32 822.76L148.06 800.16L173.04 800.16L173.04 800.16L168.7 826.15Z" id="cphtPRio2"></path><path d="M148.06 814.85L171.95 817.11L170.87 837.45C171.52 853.05 171.88 861.71 171.95 863.45C171.95 863.45 186.07 892.83 165.44 890.57C165.44 890.57 146.98 877.01 146.98 877.01C146.61 876.55 144.8 874.29 141.55 870.23L144.8 853.28L148.06 814.85Z" id="a1JGXcWI6A"></path><path d="M123.08 353.79C109.29 353.79 98.11 365.43 98.11 379.78C98.11 394.14 109.29 405.77 123.08 405.77C136.88 405.77 148.06 394.14 148.06 379.78C148.06 365.43 136.88 353.79 123.08 353.79Z" id="b1uj934Ubs"></path><path d="M106.79 393.34L110.05 434.02C128.3 433.35 138.43 432.97 140.46 432.89C140.46 432.89 131.77 406.9 137.2 396.73C133.15 396.28 123.01 395.15 106.79 393.34Z" id="bDYHWECA"></path><path d="M124.17 426.11L136.68 418L150.23 424.98L171.95 435.16C167.39 492.79 164.86 524.81 164.35 531.21C164.35 531.21 181.73 591.1 178.47 620.48C178.47 620.48 214.31 796.77 182.81 803.55C182.81 803.55 128.51 817.11 127.43 805.81C127.43 805.81 124.17 621.61 124.17 621.61C124.17 621.61 120.91 804.68 107.88 806.94C107.88 806.94 38.37 818.24 42.72 804.68C42.72 804.68 76.39 553.81 90.5 540.25C90.65 539.5 91.37 535.73 92.68 528.95L74.21 437.42L108.88 419.44L124.17 426.11Z" id="e16uS0qO3b"></path><path d="M59.01 566.24C58.36 594.04 58 609.48 57.92 612.57C57.92 612.57 47.47 658.32 65.18 658.05C65.18 658.05 69.87 612.57 69.87 612.57C70.38 609.56 72.91 594.49 77.47 567.37L59.01 566.24Z" id="iSw4Uv6SQ"></path><path d="M223.23 517.61C241.54 537.87 251.72 549.12 253.75 551.37C253.75 551.37 290.87 578.18 277.5 590.28C264.13 602.38 244.85 559.66 244.85 559.66C242.54 557.77 230.99 548.31 210.2 531.27L223.23 517.61Z" id="a1eLd5vn6X"></path><path d="M165.43 535.05L164.46 529.8L164.46 529.77L92.57 528.42L91.05 537.42L91.05 537.42L165.43 535.05Z" id="gcDVGWT6r"></path><path d="M106.25 526.12C102.65 526.12 99.73 529.16 99.73 532.9C99.73 536.65 102.65 539.69 106.25 539.69C109.85 539.69 112.77 536.65 112.77 532.9C112.77 529.16 109.85 526.12 106.25 526.12Z" id="bpvieqBcw"></path><path d="M82.9 438.55C78.67 437.53 76.31 436.96 75.84 436.85C75.84 436.85 66.61 440.81 64.44 453.24C64.44 453.24 34.03 562.85 48.15 568.5C48.15 568.5 82.9 576.41 82.9 574.15C82.9 574.15 91.59 487.14 91.59 487.14C90.43 480.66 87.53 464.46 82.9 438.55Z" id="az2s1reYu"></path><path d="M149.33 442.85C162.9 438.23 170.45 435.67 171.95 435.15C171.95 435.15 182.81 435.15 182.81 447.59C182.81 452.71 203.63 494.84 203.63 494.84C203.63 494.84 253.64 531.93 245.98 533.26C232.95 535.52 225.35 559.25 225.35 559.25C222.09 556.23 205.8 541.17 176.48 514.05L149.33 442.85Z" id="a15NLOCBNP"></path><path d="M92.62 381.72C92.62 381.72 100.71 370.14 107.79 368.03C107.79 368.03 115.89 355.4 115.89 355.4C115.89 355.4 134.1 376.45 145.22 377.51C156.35 378.56 146.24 352.24 146.24 352.24C144.89 351.89 138.14 350.14 126 346.98L106.78 349.09L91.61 359.61C92.15 371.4 92.48 378.77 92.62 381.72Z" id="d6NgKdBeq"></path><path d="M101.91 375.83C101.91 378.64 100.45 380.91 98.65 380.91C96.85 380.91 95.39 378.64 95.39 375.83C95.39 373.02 96.85 370.74 98.65 370.74C100.45 370.74 101.91 373.02 101.91 375.83Z" id="ajLCLZYQf"></path></defs><g><g><g><use xlink:href="#fuArggNTY" opacity="1" fill="#850009" fill-opacity="1"></use><g><use xlink:href="#fuArggNTY" opacity="1" fill-opacity="0" stroke="#000000" stroke-width="1" stroke-opacity="0"></use></g></g><g><use xlink:href="#a9Qh8NEjk" opacity="1" fill="#3f3d56" fill-opacity="1"></use><g><use xlink:href="#a9Qh8NEjk" opacity="1" fill-opacity="0" stroke="#000000" stroke-width="1" stroke-opacity="0"></use></g></g><g><use xlink:href="#bIjhGGR6n" opacity="1" fill="#850009" fill-opacity="1"></use><g><use xlink:href="#bIjhGGR6n" opacity="1" fill-opacity="0" stroke="#000000" stroke-width="1" stroke-opacity="0"></use></g></g><g><use xlink:href="#gyzaYji3M" opacity="1" fill="#3f3d56" fill-opacity="1"></use><g><use xlink:href="#gyzaYji3M" opacity="1" fill-opacity="0" stroke="#000000" stroke-width="1" stroke-opacity="0"></use></g></g><g><use xlink:href="#aoRWdrt2L" opacity="1" fill="#ffffff" fill-opacity="1"></use><g><use xlink:href="#aoRWdrt2L" opacity="1" fill-opacity="0" stroke="#000000" stroke-width="1" stroke-opacity="0"></use></g></g><g><use xlink:href="#eeTUWhS6M" opacity="1" fill="#850009" fill-opacity="1"></use><g><use xlink:href="#eeTUWhS6M" opacity="1" fill-opacity="0" stroke="#000000" stroke-width="1" stroke-opacity="0"></use></g></g><g><use xlink:href="#e1AYwoObjg" opacity="1" fill="#3f3d56" fill-opacity="1"></use><g><use xlink:href="#e1AYwoObjg" opacity="1" fill-opacity="0" stroke="#000000" stroke-width="1" stroke-opacity="0"></use></g></g><g><use xlink:href="#gkLPCl892" opacity="1" fill="#850009" fill-opacity="1"></use><g><use xlink:href="#gkLPCl892" opacity="1" fill-opacity="0" stroke="#000000" stroke-width="1" stroke-opacity="0"></use></g></g><g><use xlink:href="#fbacatvCG" opacity="1" fill="#ffffff" fill-opacity="1"></use><g><use xlink:href="#fbacatvCG" opacity="1" fill-opacity="0" stroke="#000000" stroke-width="1" stroke-opacity="0"></use></g></g><g><use xlink:href="#k3pRaBthwB" opacity="1" fill="#850009" fill-opacity="1"></use><g><use xlink:href="#k3pRaBthwB" opacity="1" fill-opacity="0" stroke="#000000" stroke-width="1" stroke-opacity="0"></use></g></g><g><use xlink:href="#c3inr5JvZ" opacity="1" fill="#850009" fill-opacity="1"></use><g><use xlink:href="#c3inr5JvZ" opacity="1" fill-opacity="0" stroke="#000000" stroke-width="1" stroke-opacity="0"></use></g></g><g><use xlink:href="#a3pZ4Lo61" opacity="1" fill="#850009" fill-opacity="1"></use><g><use xlink:href="#a3pZ4Lo61" opacity="1" fill-opacity="0" stroke="#000000" stroke-width="1" stroke-opacity="0"></use></g></g><g><use xlink:href="#ant6au9d9" opacity="1" fill="#850009" fill-opacity="1"></use><g><use xlink:href="#ant6au9d9" opacity="1" fill-opacity="0" stroke="#000000" stroke-width="1" stroke-opacity="0"></use></g></g><g><use xlink:href="#aoUJFu8tS" opacity="1" fill="#850009" fill-opacity="1"></use><g><use xlink:href="#aoUJFu8tS" opacity="1" fill-opacity="0" stroke="#000000" stroke-width="1" stroke-opacity="0"></use></g></g><g><use xlink:href="#a6xtNLtn2" opacity="1" fill="#850009" fill-opacity="1"></use><g><use xlink:href="#a6xtNLtn2" opacity="1" fill-opacity="0" stroke="#000000" stroke-width="1" stroke-opacity="0"></use></g></g><g><use xlink:href="#b50q8p7UIJ" opacity="1" fill="#3f3d56" fill-opacity="1"></use><g><use xlink:href="#b50q8p7UIJ" opacity="1" fill-opacity="0" stroke="#000000" stroke-width="1" stroke-opacity="0"></use></g></g><g><use xlink:href="#b2ANuE8Bsq" opacity="1" fill="#850009" fill-opacity="1"></use><g><use xlink:href="#b2ANuE8Bsq" opacity="1" fill-opacity="0" stroke="#000000" stroke-width="1" stroke-opacity="0"></use></g></g><g><use xlink:href="#hZSq3ELKo" opacity="1" fill="#d0cde1" fill-opacity="1"></use><g><use xlink:href="#hZSq3ELKo" opacity="1" fill-opacity="0" stroke="#000000" stroke-width="1" stroke-opacity="0"></use></g></g><g><use xlink:href="#fqbvowvYc" opacity="1" fill="#3f3d56" fill-opacity="1"></use><g><use xlink:href="#fqbvowvYc" opacity="1" fill-opacity="0" stroke="#000000" stroke-width="1" stroke-opacity="0"></use></g></g><g><use xlink:href="#hQp3lLmqs" opacity="1" fill="#3f3d56" fill-opacity="1"></use><g><use xlink:href="#hQp3lLmqs" opacity="1" fill-opacity="0" stroke="#000000" stroke-width="1" stroke-opacity="0"></use></g></g><g><use xlink:href="#cAyOdc0qB" opacity="1" fill="#3f3d56" fill-opacity="1"></use><g><use xlink:href="#cAyOdc0qB" opacity="1" fill-opacity="0" stroke="#000000" stroke-width="1" stroke-opacity="0"></use></g></g><g><use xlink:href="#cxZon5hAZ" opacity="1" fill="#3f3d56" fill-opacity="1"></use><g><use xlink:href="#cxZon5hAZ" opacity="1" fill-opacity="0" stroke="#000000" stroke-width="1" stroke-opacity="0"></use></g></g><g><use xlink:href="#d1bw6FF6ez" opacity="1" fill="#3f3d56" fill-opacity="1"></use><g><use xlink:href="#d1bw6FF6ez" opacity="1" fill-opacity="0" stroke="#000000" stroke-width="1" stroke-opacity="0"></use></g></g><g><use xlink:href="#e6mi1gBC5u" opacity="1" fill="#2f2e41" fill-opacity="1"></use><g><use xlink:href="#e6mi1gBC5u" opacity="1" fill-opacity="0" stroke="#000000" stroke-width="1" stroke-opacity="0"></use></g></g><g><use xlink:href="#f5jHXeP01f" opacity="1" fill="#ffb9b9" fill-opacity="1"></use><g><use xlink:href="#f5jHXeP01f" opacity="1" fill-opacity="0" stroke="#000000" stroke-width="1" stroke-opacity="0"></use></g></g><g><use xlink:href="#d969Ith4RW" opacity="1" fill="#2f2e41" fill-opacity="1"></use><g><use xlink:href="#d969Ith4RW" opacity="1" fill-opacity="0" stroke="#000000" stroke-width="1" stroke-opacity="0"></use></g></g><g><use xlink:href="#cphtPRio2" opacity="1" fill="#ffb9b9" fill-opacity="1"></use><g><use xlink:href="#cphtPRio2" opacity="1" fill-opacity="0" stroke="#000000" stroke-width="1" stroke-opacity="0"></use></g></g><g><use xlink:href="#a1JGXcWI6A" opacity="1" fill="#2f2e41" fill-opacity="1"></use><g><use xlink:href="#a1JGXcWI6A" opacity="1" fill-opacity="0" stroke="#000000" stroke-width="1" stroke-opacity="0"></use></g></g><g><use xlink:href="#b1uj934Ubs" opacity="1" fill="#ffb9b9" fill-opacity="1"></use><g><use xlink:href="#b1uj934Ubs" opacity="1" fill-opacity="0" stroke="#000000" stroke-width="1" stroke-opacity="0"></use></g></g><g><use xlink:href="#bDYHWECA" opacity="1" fill="#ffb9b9" fill-opacity="1"></use><g><use xlink:href="#bDYHWECA" opacity="1" fill-opacity="0" stroke="#000000" stroke-width="1" stroke-opacity="0"></use></g></g><g><use xlink:href="#e16uS0qO3b" opacity="1" fill="#2f2e41" fill-opacity="1"></use><g><use xlink:href="#e16uS0qO3b" opacity="1" fill-opacity="0" stroke="#000000" stroke-width="1" stroke-opacity="0"></use></g></g><g><use xlink:href="#iSw4Uv6SQ" opacity="1" fill="#ffb9b9" fill-opacity="1"></use><g><use xlink:href="#iSw4Uv6SQ" opacity="1" fill-opacity="0" stroke="#000000" stroke-width="1" stroke-opacity="0"></use></g></g><g><use xlink:href="#a1eLd5vn6X" opacity="1" fill="#ffb9b9" fill-opacity="1"></use><g><use xlink:href="#a1eLd5vn6X" opacity="1" fill-opacity="0" stroke="#000000" stroke-width="1" stroke-opacity="0"></use></g></g><g><use xlink:href="#gcDVGWT6r" opacity="1" fill="#d0cde1" fill-opacity="1"></use><g><use xlink:href="#gcDVGWT6r" opacity="1" fill-opacity="0" stroke="#000000" stroke-width="1" stroke-opacity="0"></use></g></g><g><use xlink:href="#bpvieqBcw" opacity="1" fill="#2f2e41" fill-opacity="1"></use><g><use xlink:href="#bpvieqBcw" opacity="1" fill-opacity="0" stroke="#000000" stroke-width="1" stroke-opacity="0"></use></g></g><g><use xlink:href="#az2s1reYu" opacity="1" fill="#2f2e41" fill-opacity="1"></use><g><use xlink:href="#az2s1reYu" opacity="1" fill-opacity="0" stroke="#000000" stroke-width="1" stroke-opacity="0"></use></g></g><g><use xlink:href="#a15NLOCBNP" opacity="1" fill="#2f2e41" fill-opacity="1"></use><g><use xlink:href="#a15NLOCBNP" opacity="1" fill-opacity="0" stroke="#000000" stroke-width="1" stroke-opacity="0"></use></g></g><g><use xlink:href="#d6NgKdBeq" opacity="1" fill="#2f2e41" fill-opacity="1"></use><g><use xlink:href="#d6NgKdBeq" opacity="1" fill-opacity="0" stroke="#000000" stroke-width="1" stroke-opacity="0"></use></g></g><g><use xlink:href="#ajLCLZYQf" opacity="1" fill="#ffb9b9" fill-opacity="1"></use><g><use xlink:href="#ajLCLZYQf" opacity="1" fill-opacity="0" stroke="#000000" stroke-width="1" stroke-opacity="0"></use></g></g></g></g></svg>