<?xml version="1.0" encoding="UTF-8" standalone="no"?>
<!DOCTYPE svg PUBLIC "-//W3C//DTD SVG 1.1//EN" "http://www.w3.org/Graphics/SVG/1.1/DTD/svg11.dtd">
<svg version="1.1" xmlns="http://www.w3.org/2000/svg" xmlns:xlink="http://www.w3.org/1999/xlink" preserveAspectRatio="xMidYMid meet" viewBox="0 0 700 700" width="700" height="700"><defs><path d="M446.8 378.36C446.8 424.3 385.38 461.59 309.72 461.59C234.06 461.59 172.64 424.3 172.64 378.36C172.64 332.43 234.06 295.13 309.72 295.13C385.38 295.13 446.8 332.43 446.8 378.36Z" id="bp1uEE3Tc"></path><path d="M576.68 338.49C578.69 392.57 491.36 439.72 381.79 443.71C272.22 447.71 181.64 407.05 179.63 352.97C177.63 298.89 264.96 251.74 374.53 247.75C484.09 243.75 574.68 284.41 576.68 338.49Z" id="b7Ualuf0p"></path><path d="M422.8 413.13C422.8 435.97 392.11 454.51 354.31 454.51C316.51 454.51 285.82 435.97 285.82 413.13C285.82 390.3 316.51 371.76 354.31 371.76C392.11 371.76 422.8 390.3 422.8 413.13Z" id="b121pHdFKc"></path><path d="M242.73 423.28C242.73 466.08 193.24 500.83 132.29 500.83C71.34 500.83 21.85 466.08 21.85 423.28C21.85 380.48 71.34 345.73 132.29 345.73C193.24 345.73 242.73 380.48 242.73 423.28Z" id="b2iPKTfGNM"></path><path d="M222.85 439.43C222.85 492.69 166.28 535.93 96.61 535.93C26.93 535.93 -29.64 492.69 -29.64 439.43C-29.64 386.18 26.93 342.94 96.61 342.94C166.28 342.94 222.85 386.18 222.85 439.43Z" id="d2vBaWJ2ue"></path><path d="M405.67 408.18C405.67 430.64 368.99 448.88 323.81 448.88C278.64 448.88 241.96 430.64 241.96 408.18C241.96 385.72 278.64 367.49 323.81 367.49C368.99 367.49 405.67 385.72 405.67 408.18Z" id="a4tp75fORT"></path><path d="M351.62 145.85L351.62 408.74C228.06 357.62 150.83 325.66 119.94 312.88C98.38 303.96 84.32 282.93 84.32 259.6C84.32 244.43 84.32 206.52 84.32 145.85L351.62 145.85Z" id="a5EtesvSG"></path><path d="M161.97 475.53C161.97 535.17 120.92 583.58 70.36 583.58C19.8 583.58 -21.24 535.17 -21.24 475.53C-21.24 415.9 19.8 367.49 70.36 367.49C120.92 367.49 161.97 415.9 161.97 475.53Z" id="bcbD0gwmo"></path><path d="M332.19 124.18L336.57 109.67L332.19 84.65L311.72 67.61L319.03 80.67L321.95 99.52L321.95 114.03L302.94 124.18L332.19 124.18Z" id="d2NkTlU2QL"></path><path d="M98.74 565.07C99.42 588.56 81.65 608.15 59.06 608.79C36.48 609.44 17.6 590.9 16.91 567.41C16.23 543.93 34.01 524.34 56.59 523.69C79.17 523.04 98.06 541.59 98.74 565.07Z" id="e4BAqdh1lz"></path><path d="M324.21 98.25C324.21 144.78 278.75 182.55 222.77 182.55C166.78 182.55 121.32 144.78 121.32 98.25C121.32 51.72 166.78 13.94 222.77 13.94C278.75 13.94 324.21 51.72 324.21 98.25Z" id="a1i8fuqRv8"></path><path d="M68.15 57.91L118.42 48.84L127.56 46.58L143.55 39.78L159.54 32.98L178.96 27.31L196.43 23.91L214.37 25.05L233.79 26.18L247.5 30.71L262.23 37.51L272.63 42.64L284.16 48.84L301.19 64.4L312.62 77.17L321.76 86.16L328.03 98.7L328.03 119.1L277.2 134.96L262.23 157.63L258.93 184.82L265.78 207.48L281.77 212.02L309.19 221.08L328.03 219.95L328.03 380.86L152.56 303.72L108.7 277.74L80.72 260.21L68.15 57.91Z" id="aK3D7Cnu2"></path><path d="M356.98 179.14L337.45 191.39L299.07 193.43L277.62 184.9L282.99 162.57L300.63 139.04L359.69 128.16L356.98 179.14Z" id="a1INbJg8Gw"></path><path d="M416.74 171.68C416.74 200.09 377.58 223.16 329.35 223.16C281.12 223.16 241.96 200.09 241.96 171.68C241.96 143.26 281.12 120.19 329.35 120.19C377.58 120.19 416.74 143.26 416.74 171.68Z" id="a9aNEdcle"></path><path d="M351.62 114.04L444.51 114.04L444.51 261.95L351.62 261.95L351.62 114.04Z" id="b4onlGvWX4"></path><path d="M380.64 171.68C380.64 191.06 353.74 206.8 320.61 206.8C287.48 206.8 260.59 191.06 260.59 171.68C260.59 152.29 287.48 136.55 320.61 136.55C353.74 136.55 380.64 152.29 380.64 171.68Z" id="b38Uc6Lgm"></path><path d="M294.05 79.55C294.05 95.87 281.63 109.13 266.32 109.13C251.02 109.13 238.6 95.87 238.6 79.55C238.6 63.23 251.02 49.97 266.32 49.97C281.63 49.97 294.05 63.23 294.05 79.55Z" id="eCZj7pT5x"></path><path d="M295.93 105.3L295.93 52.26L307.76 64.48L329.69 90.15L329.69 117.04L295.93 105.3Z" id="g1SKBt62n8"></path><path d="M345.48 218.62L345.48 397.94L298.69 370.92L309.21 364.82L319.18 352.26L327.93 340.46L333.78 317.61L336.73 283.72L333.78 252.13L323.25 233.85L301.63 215.19L345.48 218.62Z" id="hownvTF6d"></path><path d="M285.82 136.49L271.47 141.93L258.41 150.57L248.51 169.12L255.07 193.34L301 215.19L311.77 209.15L305.21 208.22L292.38 203.94L268.98 192.33L258.75 174.56L268.98 156.07L307.76 137.22L285.82 136.49Z" id="b69qqvIuGn"></path><path d="M320.57 94.71L329.69 89.78L318.72 71.05L320.57 94.71Z" id="a1zztTn8SQ"></path><path d="M323.34 111.85L329.69 111.85L329.69 120L323.34 120L323.34 111.85Z" id="ahWn1SIO0"></path><path d="M351.62 182.55L368.13 182.55L368.13 411L351.62 411L351.62 182.55Z" id="c594aEXIsq"></path><path d="M119.62 341.42L176.16 341.42L176.16 503.14L119.62 503.14L119.62 341.42Z" id="b1dHb2WULN"></path><path d="M146.75 350.31L205.56 350.31L205.56 471.69L146.75 471.69L146.75 350.31Z" id="f25JT7l3U"></path><path d="M439.53 367.49C451.55 367.49 461.29 377.23 461.29 389.24C461.29 408.56 461.29 444.75 461.29 464.06C461.29 476.08 451.55 485.82 439.53 485.82C423.69 485.82 397.91 485.82 382.06 485.82C370.05 485.82 360.31 476.08 360.31 464.06C360.31 444.75 360.31 408.56 360.31 389.24C360.31 377.23 370.05 367.49 382.06 367.49C397.91 367.49 423.69 367.49 439.53 367.49Z" id="a300wAC1a"></path><path d="M176.16 423.71L366.13 423.71L366.13 485.32L176.16 485.32L176.16 423.71Z" id="l1d4bKHen"></path><path d="M198.09 375.19L246.62 375.19L246.62 440.84L198.09 440.84L198.09 375.19Z" id="baC4PptLs"></path><path d="M193.38 356.82L220.02 356.82L220.02 383.77L193.38 383.77L193.38 356.82Z" id="f1fDjZquZc"></path><path d="M718.53 -13.95L718.53 767.5L-35.18 767.5L-35.18 -13.95L718.53 -13.95Z" id="cKZQeGaJx"></path><path d="M437.39 635.66C361.74 635.66 300.3 598.34 300.3 552.42C300.3 506.49 361.74 469.18 437.39 469.18C513.06 469.18 574.47 506.49 574.47 552.42C574.47 598.34 513.06 635.66 437.39 635.66Z" id="aihwUjExa"></path><path d="M509.02 617.77C399.46 621.75 308.88 581.09 306.86 527.03C304.86 472.94 392.2 425.79 501.76 421.79C611.34 417.81 701.92 458.47 703.92 512.54C705.91 566.62 618.6 613.77 509.02 617.77Z" id="h1eCF6gDd"></path><path d="M482.72 628.61C444.91 628.61 414.22 610.07 414.22 587.23C414.22 564.4 444.91 545.85 482.72 545.85C520.51 545.85 551.2 564.4 551.2 587.23C551.2 610.07 520.51 628.61 482.72 628.61Z" id="e1XLzVOlaz"></path><path d="M260.12 674.88C199.17 674.88 149.69 640.14 149.69 597.34C149.69 554.53 199.17 519.78 260.12 519.78C321.08 519.78 370.56 554.53 370.56 597.34C370.56 640.14 321.08 674.88 260.12 674.88Z" id="c1qMAMsBZZ"></path><path d="M223.92 708.65C154.24 708.65 97.67 665.42 97.67 612.16C97.67 558.9 154.24 515.67 223.92 515.67C293.6 515.67 350.17 558.9 350.17 612.16C350.17 665.42 293.6 708.65 223.92 708.65Z" id="ahErX4Fx"></path><path d="M451.83 619.66C406.65 619.66 369.98 601.43 369.98 578.96C369.98 556.51 406.65 538.27 451.83 538.27C497.02 538.27 533.69 556.51 533.69 578.96C533.69 601.43 497.02 619.66 451.83 619.66Z" id="beWfTzIG8"></path><path d="M348.14 449.07C273.34 450.38 211.54 390.5 210.2 315.47C208.86 240.43 268.52 178.44 343.33 177.14C418.13 175.83 479.93 235.71 481.27 310.74C482.59 385.78 422.95 447.77 348.14 449.07Z" id="b47pmeBmqD"></path><path d="M478.86 582.79C355.27 531.66 278.04 499.7 247.13 486.91C225.6 478.01 211.56 457.12 211.56 433.95C211.56 418.74 211.56 380.74 211.56 319.9C229.38 319.9 318.48 319.9 478.86 319.9C478.86 477.63 478.86 565.26 478.86 582.79Z" id="gmUdDyIJh"></path><path d="M477.83 582.05C354.24 530.92 277.01 498.96 246.11 486.17C224.57 477.27 210.53 456.38 210.53 433.21C210.53 418 210.53 380 210.53 319.16C228.35 319.16 317.45 319.16 477.83 319.16C477.83 476.89 477.83 564.52 477.83 582.05Z" id="bLgWfiC2N"></path><path d="M201.82 728.9C136.83 728.9 84.08 684.32 84.08 629.43C84.08 574.54 136.83 529.98 201.82 529.98C266.81 529.98 319.58 574.54 319.58 629.43C319.58 684.32 266.81 728.9 201.82 728.9Z" id="bjXQFel75"></path><path d="M197.59 757.62C147.03 757.62 105.99 709.22 105.99 649.58C105.99 589.95 147.03 541.54 197.59 541.54C248.16 541.54 289.2 589.95 289.2 649.58C289.2 709.22 248.16 757.62 197.59 757.62Z" id="bD7oOjdlQ"></path><path d="M325.33 650.32L325.33 753.08L51.05 753.08L51.05 650.32L325.33 650.32Z" id="a4uqN2GXTr"></path><path d="M464.93 283.72L460.55 258.7L440.08 241.67L447.39 254.72L450.32 273.56L450.32 288.07L431.31 298.23L460.55 298.23L464.93 283.72Z" id="b4Wo1J4lS"></path><path d="M347.26 84.65L334.12 84.65L325.33 178.66L358.12 177.53L347.26 84.65Z" id="cfYAqRipi"></path><path d="M341.56 92.55C331.16 92.55 322.72 83.67 322.72 72.73C322.72 61.78 331.16 52.89 341.56 52.89C351.95 52.89 360.4 61.78 360.4 72.73C360.4 83.67 351.95 92.55 341.56 92.55Z" id="b1yYKo84vM"></path><path d="M350 356.61C294.01 356.61 248.56 318.84 248.56 272.3C248.56 225.76 294.01 187.99 350 187.99C406 187.99 451.44 225.76 451.44 272.3C451.44 318.84 406 356.61 350 356.61Z" id="aiwN4roUC"></path><path d="M245.64 223.63L254.79 221.37L270.78 214.58L286.77 207.77L306.2 202.11L323.66 198.7L341.6 199.83L361.03 200.98L374.74 205.51L389.46 212.3L399.88 217.43L411.39 223.63L428.43 239.19L439.86 251.96L448.99 260.94L455.26 273.5L455.26 293.88L404.44 309.77L389.46 332.41L386.17 359.61L393.01 382.28L409 386.81L436.42 395.88L455.26 394.75L455.26 555.66L279.79 478.51L235.93 452.53L207.96 435L195.39 232.7L245.64 223.63Z" id="aIstvuyGK"></path><path d="M464.69 365.44L426.31 367.49L404.86 358.96L410.23 336.61L427.86 313.09L486.93 302.22L484.21 353.19L464.69 365.44Z" id="a1ksSgiIv8"></path><path d="M453.54 396.79C405.31 396.79 366.16 373.73 366.16 345.31C366.16 316.9 405.31 293.84 453.54 293.84C501.77 293.84 540.94 316.9 540.94 345.31C540.94 373.73 501.77 396.79 453.54 396.79Z" id="eN16WI21d"></path><path d="M571.75 288.1L571.75 436L478.86 436L478.86 288.1L571.75 288.1Z" id="h7l3VF3Bl"></path><path d="M448.59 380.87C415.47 380.87 388.56 365.11 388.56 345.73C388.56 326.34 415.47 310.59 448.59 310.59C481.73 310.59 508.62 326.34 508.62 345.73C508.62 365.11 481.73 380.87 448.59 380.87Z" id="cYrDcV11e"></path><path d="M423.17 226.31L434.99 238.53L456.93 264.21L456.93 291.1L423.17 279.35L423.17 226.31Z" id="a35m45fI4u"></path><path d="M472.51 572.91L425.71 545.89L436.24 539.8L446.22 527.23L454.97 515.43L460.8 492.59L463.76 458.69L460.8 427.1L450.27 408.83L428.67 390.16L472.51 393.6L472.51 572.91Z" id="d2gA6vofTt"></path><path d="M398.62 312.82L385.55 321.46L375.66 340.02L382.21 364.23L428.14 386.07L438.91 380.05L432.35 379.11L419.52 374.83L396.12 363.23L385.88 345.46L396.12 326.96L434.9 308.1L412.97 307.38L398.62 312.82Z" id="b5qR4PRjt"></path><path d="M457.22 263.85L446.25 245.12L448.1 268.79L457.22 263.85Z" id="a739TiX9N"></path><path d="M456.93 285.9L456.93 294.06L450.57 294.06L450.57 285.9L456.93 285.9Z" id="b1Uo7E79"></path><path d="M478.22 367.49L492.53 367.49L492.53 585.05L478.22 585.05L478.22 367.49Z" id="a4qml6ukKu"></path></defs><g><g><g><use xlink:href="#bp1uEE3Tc" opacity="1" fill="#850009" fill-opacity="1"></use></g><g><use xlink:href="#b7Ualuf0p" opacity="1" fill="#ffffff" fill-opacity="1"></use></g><g><use xlink:href="#b121pHdFKc" opacity="1" fill="#850009" fill-opacity="1"></use></g><g><use xlink:href="#b2iPKTfGNM" opacity="1" fill="#850009" fill-opacity="1"></use></g><g><use xlink:href="#d2vBaWJ2ue" opacity="1" fill="#ffffff" fill-opacity="1"></use></g><g><use xlink:href="#a4tp75fORT" opacity="1" fill="#ffffff" fill-opacity="1"></use></g><g><use xlink:href="#a5EtesvSG" opacity="1" fill="#606060" fill-opacity="1"></use></g><g><use xlink:href="#bcbD0gwmo" opacity="1" fill="#ffffff" fill-opacity="1"></use></g><g><use xlink:href="#d2NkTlU2QL" opacity="1" fill="#606060" fill-opacity="1"></use></g><g><use xlink:href="#e4BAqdh1lz" opacity="1" fill="#ffffff" fill-opacity="1"></use></g><g><use xlink:href="#a1i8fuqRv8" opacity="1" fill="#ffffff" fill-opacity="1"></use></g><g><use xlink:href="#aK3D7Cnu2" opacity="1" fill="#ffffff" fill-opacity="1"></use></g><g><use xlink:href="#a1INbJg8Gw" opacity="1" fill="#ffffff" fill-opacity="1"></use></g><g><use xlink:href="#a9aNEdcle" opacity="1" fill="#606060" fill-opacity="1"></use></g><g><use xlink:href="#b4onlGvWX4" opacity="1" fill="#ffffff" fill-opacity="1"></use></g><g><use xlink:href="#b38Uc6Lgm" opacity="1" fill="#ffffff" fill-opacity="1"></use></g><g><use xlink:href="#eCZj7pT5x" opacity="1" fill="#ffffff" fill-opacity="1"></use></g><g><use xlink:href="#g1SKBt62n8" opacity="1" fill="#ffffff" fill-opacity="1"></use></g><g><use xlink:href="#hownvTF6d" opacity="1" fill="#606060" fill-opacity="1"></use></g><g><use xlink:href="#b69qqvIuGn" opacity="1" fill="#606060" fill-opacity="1"></use></g><g><use xlink:href="#a1zztTn8SQ" opacity="1" fill="#ffffff" fill-opacity="1"></use></g><g><use xlink:href="#ahWn1SIO0" opacity="1" fill="#ffffff" fill-opacity="1"></use></g><g><use xlink:href="#c594aEXIsq" opacity="1" fill="#ffffff" fill-opacity="1"></use></g><g><use xlink:href="#b1dHb2WULN" opacity="1" fill="#ffffff" fill-opacity="1"></use></g><g><use xlink:href="#f25JT7l3U" opacity="1" fill="#ffffff" fill-opacity="1"></use></g><g><use xlink:href="#a300wAC1a" opacity="1" fill="#ffffff" fill-opacity="1"></use></g><g><use xlink:href="#l1d4bKHen" opacity="1" fill="#ffffff" fill-opacity="1"></use></g><g><use xlink:href="#baC4PptLs" opacity="1" fill="#ffffff" fill-opacity="1"></use></g><g><use xlink:href="#f1fDjZquZc" opacity="1" fill="#ffffff" fill-opacity="1"></use></g><g><use xlink:href="#cKZQeGaJx" opacity="1" fill="#7a0000" fill-opacity="1"></use><g><use xlink:href="#cKZQeGaJx" opacity="1" fill-opacity="0" stroke="#000000" stroke-width="1" stroke-opacity="0"></use></g></g><g><use xlink:href="#aihwUjExa" opacity="1" fill="#ffffff" fill-opacity="1"></use><g><use xlink:href="#aihwUjExa" opacity="1" fill-opacity="0" stroke="#000000" stroke-width="1" stroke-opacity="0"></use></g></g><g><use xlink:href="#h1eCF6gDd" opacity="1" fill="#7a0000" fill-opacity="1"></use><g><use xlink:href="#h1eCF6gDd" opacity="1" fill-opacity="0" stroke="#000000" stroke-width="1" stroke-opacity="0"></use></g></g><g><use xlink:href="#e1XLzVOlaz" opacity="1" fill="#ffffff" fill-opacity="1"></use><g><use xlink:href="#e1XLzVOlaz" opacity="1" fill-opacity="0" stroke="#000000" stroke-width="1" stroke-opacity="0"></use></g></g><g><use xlink:href="#c1qMAMsBZZ" opacity="1" fill="#ffffff" fill-opacity="1"></use><g><use xlink:href="#c1qMAMsBZZ" opacity="1" fill-opacity="0" stroke="#000000" stroke-width="1" stroke-opacity="0"></use></g></g><g><use xlink:href="#ahErX4Fx" opacity="1" fill="#7a0000" fill-opacity="1"></use><g><use xlink:href="#ahErX4Fx" opacity="1" fill-opacity="0" stroke="#000000" stroke-width="1" stroke-opacity="0"></use></g></g><g><use xlink:href="#beWfTzIG8" opacity="1" fill="#7a0000" fill-opacity="1"></use><g><use xlink:href="#beWfTzIG8" opacity="1" fill-opacity="0" stroke="#000000" stroke-width="1" stroke-opacity="0"></use></g></g><g><use xlink:href="#b47pmeBmqD" opacity="1" fill="#ffffff" fill-opacity="1"></use><g><use xlink:href="#b47pmeBmqD" opacity="1" fill-opacity="0" stroke="#000000" stroke-width="1" stroke-opacity="0"></use></g></g><g><use xlink:href="#gmUdDyIJh" opacity="1" fill="#850009" fill-opacity="1"></use><g><use xlink:href="#gmUdDyIJh" opacity="1" fill-opacity="0" stroke="#000000" stroke-width="1" stroke-opacity="0"></use></g></g><g><use xlink:href="#bLgWfiC2N" opacity="1" fill="#ffffff" fill-opacity="1"></use></g><g><use xlink:href="#bjXQFel75" opacity="1" fill="#ffffff" fill-opacity="1"></use><g><use xlink:href="#bjXQFel75" opacity="1" fill-opacity="0" stroke="#000000" stroke-width="1" stroke-opacity="0"></use></g></g><g><use xlink:href="#bD7oOjdlQ" opacity="1" fill="#7a0000" fill-opacity="1"></use><g><use xlink:href="#bD7oOjdlQ" opacity="1" fill-opacity="0" stroke="#000000" stroke-width="1" stroke-opacity="0"></use></g></g><g><use xlink:href="#a4uqN2GXTr" opacity="1" fill="#7a0000" fill-opacity="1"></use><g><use xlink:href="#a4uqN2GXTr" opacity="1" fill-opacity="0" stroke="#000000" stroke-width="1" stroke-opacity="0"></use></g></g><g><use xlink:href="#b4Wo1J4lS" opacity="1" fill="#ffffff" fill-opacity="1"></use><g><use xlink:href="#b4Wo1J4lS" opacity="1" fill-opacity="0" stroke="#000000" stroke-width="1" stroke-opacity="0"></use></g></g><g><use xlink:href="#cfYAqRipi" opacity="1" fill="#ffffff" fill-opacity="1"></use><g><use xlink:href="#cfYAqRipi" opacity="1" fill-opacity="0" stroke="#000000" stroke-width="1" stroke-opacity="0"></use></g></g><g><use xlink:href="#b1yYKo84vM" opacity="1" fill="#ffffff" fill-opacity="1"></use><g><use xlink:href="#b1yYKo84vM" opacity="1" fill-opacity="0" stroke="#000000" stroke-width="1" stroke-opacity="0"></use></g></g><g><use xlink:href="#aiwN4roUC" opacity="1" fill="#7a0000" fill-opacity="1"></use><g><use xlink:href="#aiwN4roUC" opacity="1" fill-opacity="0" stroke="#000000" stroke-width="1" stroke-opacity="0"></use></g></g><g><use xlink:href="#aIstvuyGK" opacity="1" fill="#7a0000" fill-opacity="1"></use><g><use xlink:href="#aIstvuyGK" opacity="1" fill-opacity="0" stroke="#000000" stroke-width="1" stroke-opacity="0"></use></g></g><g><use xlink:href="#a1ksSgiIv8" opacity="1" fill="#ffffff" fill-opacity="1"></use><g><use xlink:href="#a1ksSgiIv8" opacity="1" fill-opacity="0" stroke="#000000" stroke-width="1" stroke-opacity="0"></use></g></g><g><use xlink:href="#eN16WI21d" opacity="1" fill="#ffffff" fill-opacity="1"></use><g><use xlink:href="#eN16WI21d" opacity="1" fill-opacity="0" stroke="#000000" stroke-width="1" stroke-opacity="0"></use></g></g><g><use xlink:href="#h7l3VF3Bl" opacity="1" fill="#7a0000" fill-opacity="1"></use><g><use xlink:href="#h7l3VF3Bl" opacity="1" fill-opacity="0" stroke="#000000" stroke-width="1" stroke-opacity="0"></use></g></g><g><use xlink:href="#cYrDcV11e" opacity="1" fill="#7a0000" fill-opacity="1"></use><g><use xlink:href="#cYrDcV11e" opacity="1" fill-opacity="0" stroke="#000000" stroke-width="1" stroke-opacity="0"></use></g></g><g><use xlink:href="#a35m45fI4u" opacity="1" fill="#7a0000" fill-opacity="1"></use><g><use xlink:href="#a35m45fI4u" opacity="1" fill-opacity="0" stroke="#000000" stroke-width="1" stroke-opacity="0"></use></g></g><g><use xlink:href="#d2gA6vofTt" opacity="1" fill="#ffffff" fill-opacity="1"></use><g><use xlink:href="#d2gA6vofTt" opacity="1" fill-opacity="0" stroke="#000000" stroke-width="1" stroke-opacity="0"></use></g></g><g><use xlink:href="#b5qR4PRjt" opacity="1" fill="#ffffff" fill-opacity="1"></use><g><use xlink:href="#b5qR4PRjt" opacity="1" fill-opacity="0" stroke="#000000" stroke-width="1" stroke-opacity="0"></use></g></g><g><use xlink:href="#a739TiX9N" opacity="1" fill="#7a0000" fill-opacity="1"></use><g><use xlink:href="#a739TiX9N" opacity="1" fill-opacity="0" stroke="#000000" stroke-width="1" stroke-opacity="0"></use></g></g><g><use xlink:href="#b1Uo7E79" opacity="1" fill="#7a0000" fill-opacity="1"></use><g><use xlink:href="#b1Uo7E79" opacity="1" fill-opacity="0" stroke="#000000" stroke-width="1" stroke-opacity="0"></use></g></g><g><use xlink:href="#a4qml6ukKu" opacity="1" fill="#7a0000" fill-opacity="1"></use></g></g></g></svg>