<?xml version="1.0" encoding="UTF-8" standalone="no"?>
<!DOCTYPE svg PUBLIC "-//W3C//DTD SVG 1.1//EN" "http://www.w3.org/Graphics/SVG/1.1/DTD/svg11.dtd">
<svg version="1.1" xmlns="http://www.w3.org/2000/svg" xmlns:xlink="http://www.w3.org/1999/xlink" preserveAspectRatio="xMidYMid meet" viewBox="0 0 640 640" width="640" height="640"><defs><path d="M-9.5 0L640 0L640 649.5L-9.5 649.5L-9.5 0Z" id="ehJ5H93IH"></path><path d="M620.51 -39.79L685.33 25.03L28.07 682.29L-36.75 617.47L620.51 -39.79Z" id="c4ks1FypRa"></path><path d="M19.02 -41.04L-45.79 23.78L611.47 681.04L676.29 616.22L19.02 -41.04Z" id="f8qFJY4WL"></path><path d="M628.72 -23.79L668.54 16.03L11.28 673.29L-28.54 633.48L628.72 -23.79Z" id="b9mHu5WAy"></path><path d="M15.57 -16.04L-24.25 23.78L633.01 681.04L672.83 641.22L15.57 -16.04Z" id="eDxAqIaGn"></path><path d="M791.8 278.58L791.8 370.25L-137.71 370.25L-137.71 278.58L791.8 278.58Z" id="b5hutorjzH"></path><path d="M367.37 -147.62L275.7 -147.62L275.7 781.89L367.37 781.89L367.37 -147.62Z" id="eTC01vomP"></path><path d="M786.29 295.7L786.29 352.01L-143.22 352.01L-143.22 295.7L786.29 295.7Z" id="i2psNaUhse"></path><path d="M347.25 -132.39L290.93 -132.39L290.93 797.13L347.25 797.13L347.25 -132.39Z" id="a1FNifhNLT"></path></defs><g><g><g><use xlink:href="#ehJ5H93IH" opacity="1" fill="#010056" fill-opacity="1"></use></g><g><use xlink:href="#c4ks1FypRa" opacity="1" fill="#ffffff" fill-opacity="1"></use></g><g><use xlink:href="#f8qFJY4WL" opacity="1" fill="#ffffff" fill-opacity="1"></use></g><g><use xlink:href="#b9mHu5WAy" opacity="1" fill="#ff0000" fill-opacity="1"></use></g><g><use xlink:href="#eDxAqIaGn" opacity="1" fill="#ff0000" fill-opacity="1"></use></g><g><use xlink:href="#b5hutorjzH" opacity="1" fill="#ffffff" fill-opacity="1"></use></g><g><use xlink:href="#eTC01vomP" opacity="1" fill="#ffffff" fill-opacity="1"></use></g><g><use xlink:href="#i2psNaUhse" opacity="1" fill="#ff0000" fill-opacity="1"></use></g><g><use xlink:href="#a1FNifhNLT" opacity="1" fill="#ff0000" fill-opacity="1"></use></g></g></g></svg>