<?xml version="1.0" encoding="UTF-8" standalone="no"?>
<!DOCTYPE svg PUBLIC "-//W3C//DTD SVG 1.1//EN" "http://www.w3.org/Graphics/SVG/1.1/DTD/svg11.dtd">
<svg version="1.1" xmlns="http://www.w3.org/2000/svg" xmlns:xlink="http://www.w3.org/1999/xlink" preserveAspectRatio="xMidYMid meet" viewBox="0 0 640 640" width="640" height="640"><defs><path d="M-9.5 0L640 0L640 649.5L-9.5 649.5L-9.5 0Z" id="bGyBPxitb"></path><path d="M607.64 -52.66L700.18 39.88L42.92 697.14L-49.62 604.6L607.64 -52.66Z" id="g5tisNUIlu"></path><path d="M33.87 -55.89L-61.64 39.62L595.63 696.88L691.14 601.37L33.87 -55.89Z" id="h3JkRk6qR"></path><path d="M628.72 -23.79L668.54 16.03L11.28 673.29L-28.54 633.48L628.72 -23.79Z" id="blrsHguC"></path><path d="M15.57 -16.04L-24.25 23.78L633.01 681.04L672.83 641.22L15.57 -16.04Z" id="c2rmduEyzu"></path><path d="M791.8 263.73L791.8 386.09L-137.71 386.09L-137.71 263.73L791.8 263.73Z" id="b158ogIKUi"></path><path d="M389.15 -147.62L250.95 -147.62L250.95 781.89L389.15 781.89L389.15 -147.62Z" id="aCsCvbEU5"></path><path d="M786.29 295.7L786.29 352.01L-143.22 352.01L-143.22 295.7L786.29 295.7Z" id="a4fqL4uTzE"></path><path d="M347.25 -132.39L290.93 -132.39L290.93 797.13L347.25 797.13L347.25 -132.39Z" id="b6xxfzrxGe"></path></defs><g><g><g><use xlink:href="#bGyBPxitb" opacity="1" fill="#010056" fill-opacity="1"></use></g><g><use xlink:href="#g5tisNUIlu" opacity="1" fill="#ffffff" fill-opacity="1"></use></g><g><use xlink:href="#h3JkRk6qR" opacity="1" fill="#ffffff" fill-opacity="1"></use></g><g><use xlink:href="#blrsHguC" opacity="1" fill="#ff0000" fill-opacity="1"></use></g><g><use xlink:href="#c2rmduEyzu" opacity="1" fill="#ff0000" fill-opacity="1"></use></g><g><use xlink:href="#b158ogIKUi" opacity="1" fill="#ffffff" fill-opacity="1"></use></g><g><use xlink:href="#aCsCvbEU5" opacity="1" fill="#ffffff" fill-opacity="1"></use></g><g><use xlink:href="#a4fqL4uTzE" opacity="1" fill="#ff0000" fill-opacity="1"></use></g><g><use xlink:href="#b6xxfzrxGe" opacity="1" fill="#ff0000" fill-opacity="1"></use></g></g></g></svg>