<?xml version="1.0" encoding="UTF-8" standalone="no"?>
<!DOCTYPE svg PUBLIC "-//W3C//DTD SVG 1.1//EN" "http://www.w3.org/Graphics/SVG/1.1/DTD/svg11.dtd">
<svg version="1.1" xmlns="http://www.w3.org/2000/svg" xmlns:xlink="http://www.w3.org/1999/xlink" preserveAspectRatio="xMidYMid meet" viewBox="0 0 590 590" width="590" height="590"><defs><path d="M0 0L640 0L640 640L0 640L0 0Z" id="bioz7uLJW"></path><path d="M637.82 72.28C643.4 72.28 647.92 76.8 647.92 82.38C647.92 93.23 647.92 115.68 647.92 126.53C647.92 132.11 643.4 136.63 637.82 136.63C581.19 136.63 421.39 136.63 364.76 136.63C359.18 136.63 354.65 132.11 354.65 126.53C354.65 115.68 354.65 93.23 354.65 82.38C354.65 76.8 359.18 72.28 364.76 72.28C421.39 72.28 581.19 72.28 637.82 72.28Z" id="d3bVl2Vn7q"></path><path d="M638.81 206.93C644.39 206.93 648.91 211.45 648.91 217.03C648.91 228.48 648.91 252.71 648.91 264.16C648.91 269.73 644.39 274.26 638.81 274.26C582.18 274.26 422.38 274.26 365.75 274.26C360.17 274.26 355.64 269.73 355.64 264.16C355.64 252.71 355.64 228.48 355.64 217.03C355.64 211.45 360.17 206.93 365.75 206.93C422.38 206.93 582.18 206.93 638.81 206.93Z" id="b5ruKPeLb"></path><path d="M628.7 348.51C634.94 348.51 640 353.57 640 359.81C640 369.63 640 387.79 640 397.61C640 403.85 634.94 408.91 628.7 408.91C501.77 408.91 132.28 408.91 5.36 408.91C-0.88 408.91 -5.94 403.85 -5.94 397.61C-5.94 387.79 -5.94 369.63 -5.94 359.81C-5.94 353.57 -0.88 348.51 5.36 348.51C132.28 348.51 501.77 348.51 628.7 348.51Z" id="asQaRcLME"></path><path d="M199.05 -1.98C204.61 -1.98 209.11 2.52 209.11 8.08C209.11 77.55 209.11 275.92 209.11 345.39C209.11 350.94 204.61 355.45 199.05 355.45C185.62 355.45 155.37 355.45 141.94 355.45C136.38 355.45 131.88 350.94 131.88 345.39C131.88 275.92 131.88 77.55 131.88 8.08C131.88 2.52 136.38 -1.98 141.94 -1.98C155.37 -1.98 185.62 -1.98 199.05 -1.98Z" id="dWJ4PLoWT"></path><path d="M351.1 136.63C358.09 136.63 363.76 142.3 363.76 149.29C363.76 160.82 363.76 182.74 363.76 194.27C363.76 201.26 358.09 206.93 351.1 206.93C280.13 206.93 79.87 206.93 8.9 206.93C1.91 206.93 -3.76 201.26 -3.76 194.27C-3.76 182.74 -3.76 160.82 -3.76 149.29C-3.76 142.3 1.91 136.63 8.9 136.63C79.87 136.63 280.13 136.63 351.1 136.63Z" id="g59DYi4erP"></path><path d="M630.88 470.4C637.12 470.4 642.18 475.45 642.18 481.69C642.18 491.51 642.18 509.68 642.18 519.5C642.18 525.73 637.12 530.79 630.88 530.79C503.95 530.79 134.46 530.79 7.53 530.79C1.3 530.79 -3.76 525.73 -3.76 519.5C-3.76 509.68 -3.76 491.51 -3.76 481.69C-3.76 475.45 1.3 470.4 7.53 470.4C134.46 470.4 503.95 470.4 630.88 470.4Z" id="a2cpdvX0DG"></path></defs><g><g><g><use xlink:href="#bioz7uLJW" opacity="1" fill="#0e51cf" fill-opacity="1"></use></g><g><use xlink:href="#d3bVl2Vn7q" opacity="1" fill="#ffffff" fill-opacity="1"></use></g><g><use xlink:href="#b5ruKPeLb" opacity="1" fill="#ffffff" fill-opacity="1"></use></g><g><use xlink:href="#asQaRcLME" opacity="1" fill="#ffffff" fill-opacity="1"></use></g><g><use xlink:href="#dWJ4PLoWT" opacity="1" fill="#ffffff" fill-opacity="1"></use></g><g><use xlink:href="#g59DYi4erP" opacity="1" fill="#ffffff" fill-opacity="1"></use></g><g><use xlink:href="#a2cpdvX0DG" opacity="1" fill="#ffffff" fill-opacity="1"></use></g></g></g></svg>