<?xml version="1.0" encoding="UTF-8" standalone="no"?>
<!DOCTYPE svg PUBLIC "-//W3C//DTD SVG 1.1//EN" "http://www.w3.org/Graphics/SVG/1.1/DTD/svg11.dtd">
<svg version="1.1" xmlns="http://www.w3.org/2000/svg" xmlns:xlink="http://www.w3.org/1999/xlink" preserveAspectRatio="xMidYMid meet" viewBox="0 0 1920 1080" width="1920" height="1080"><defs><path d="M550.81 113.33C550.81 137.7 525.11 157.46 493.41 157.46C461.72 157.46 436.02 137.7 436.02 113.33C436.02 88.96 461.72 69.2 493.41 69.2C525.11 69.2 550.81 88.96 550.81 113.33Z" id="b5c2FgcWl2"></path><path d="M608.2 181.21C562.55 181.21 525.55 217.69 525.55 262.68C525.55 307.68 562.55 344.15 608.2 344.15C653.84 344.15 690.84 307.68 690.84 262.68C690.84 217.69 653.84 181.21 608.2 181.21Z" id="a2Repqw68"></path><path d="M870.47 964.81C859.06 964.81 849.82 973.93 849.82 985.17C849.82 996.42 859.06 1005.53 870.47 1005.53C881.88 1005.53 891.12 996.42 891.12 985.17C891.12 973.93 881.88 964.81 870.47 964.81Z" id="i1m277MsHV"></path><path d="M762.58 964.81C751.18 964.81 741.93 973.93 741.93 985.17C741.93 996.42 751.18 1005.53 762.58 1005.53C773.99 1005.53 783.24 996.42 783.24 985.17C783.24 973.93 773.99 964.81 762.58 964.81Z" id="a4g9q4HPSk"></path><path d="M794.72 494.09C794.72 494.09 794.72 494.09 794.72 494.09C794.72 644.14 794.72 727.49 794.72 744.17C794.72 744.17 794.72 744.17 794.72 744.17C789.21 744.17 786.15 744.17 785.54 744.17C785.54 744.17 785.54 744.17 785.54 744.17C785.54 594.12 785.54 510.76 785.54 494.09C785.54 494.09 785.54 494.09 785.54 494.09C791.05 494.09 794.11 494.09 794.72 494.09Z" id="k8zvFrbvc"></path><path d="M844.07 494.09C844.07 494.09 844.07 494.09 844.07 494.09C844.07 644.14 844.07 727.49 844.07 744.17C844.07 744.17 844.07 744.17 844.07 744.17C838.56 744.17 835.5 744.17 834.89 744.17C834.89 744.17 834.89 744.17 834.89 744.17C834.89 594.12 834.89 510.76 834.89 494.09C834.89 494.09 834.89 494.09 834.89 494.09C840.4 494.09 843.46 494.09 844.07 494.09Z" id="a1UplPkOtQ"></path><path d="M787.78 500.88C786.4 496.81 785.63 494.54 785.48 494.09C785.48 494.09 810.73 464.68 846.32 488.39C846.16 489.07 845.4 492.47 844.02 498.58C838.5 498.58 835.44 498.58 834.83 498.58C834.83 498.58 819.92 486.25 794.67 500.34C793.75 500.41 791.45 500.59 787.78 500.88Z" id="bGUf95TT2"></path><path d="M633.45 458.45C633.45 458.45 633.45 458.45 633.45 458.45C633.45 520.91 633.45 555.61 633.45 562.55C633.45 562.55 633.45 562.55 633.45 562.55C583.87 562.55 556.32 562.55 550.81 562.55C550.81 562.55 550.81 562.55 550.81 562.55C550.81 500.09 550.81 465.39 550.81 458.45C550.81 458.45 550.81 458.45 550.81 458.45C600.39 458.45 627.94 458.45 633.45 458.45Z" id="b5N5QWhKh8"></path><path d="M690.84 429.02C690.84 429.02 690.84 429.02 690.84 429.02C690.84 458.89 690.84 475.49 690.84 478.81C690.84 478.81 690.84 478.81 690.84 478.81C675.69 478.81 667.27 478.81 665.59 478.81C665.59 478.81 665.59 478.81 665.59 478.81C665.59 448.93 665.59 432.34 665.59 429.02C665.59 429.02 665.59 429.02 665.59 429.02C680.74 429.02 689.16 429.02 690.84 429.02Z" id="baKgO5KPd"></path><path d="M561.71 964.81C555.52 983.14 552.07 993.33 551.39 995.37C551.39 995.37 546.79 1017.99 561.71 1019.12C561.71 1019.12 600.76 1015.73 600.76 1015.73C600.76 1015.73 604.21 1005.55 600.76 996.49C600.76 996.49 587 962.54 587 962.54C583.62 962.85 575.2 963.6 561.71 964.81Z" id="a1LWOFd6U3"></path><path d="M639.76 965.94C639.76 965.94 623.69 1005.55 636.32 1012.33C636.32 1012.33 666.17 1013.46 679.94 1019.12C679.94 1019.12 731.59 1011.21 731.59 1011.21C731.59 1011.21 736.19 998.76 710.93 995.37C710.93 995.37 683.45 974.99 683.45 970.47C683.45 965.95 667.38 965.94 667.38 965.94C661.86 965.94 645.28 965.94 639.76 965.94Z" id="a6Nk26BwN"></path><path d="M636.32 514.47C636.32 514.47 542.2 533.7 530.73 528.04C530.73 528.04 507.78 605.03 507.78 605.03C507.78 605.03 503.18 654.82 519.25 721.58C519.25 721.58 519.25 821.16 519.25 821.16C519.25 821.16 521.55 884.52 538.77 913.95C538.77 913.95 555.98 970.53 555.98 970.53C555.98 970.53 589.25 973.92 590.42 965.99C590.42 965.99 576.64 934.31 578.94 904.9C581.24 875.48 572.05 818.89 572.05 818.89C572.05 818.89 586.98 747.6 584.68 720.51C582.38 693.42 592.72 635.65 598.45 645.83C604.18 656.01 619.12 705.8 619.12 715.99C619.12 726.19 624.9 794.06 628.3 798.59C631.7 803.12 630.59 816.7 629.45 823.48C628.3 830.27 628.3 881.19 634.03 908.35C639.76 935.51 635.19 966.05 636.33 970.59C637.47 975.12 670.77 971.71 671.91 963.78C671.91 963.78 676.51 915.14 678.81 908.35C681.11 901.56 682.2 815.44 682.2 815.44C682.2 815.44 684.48 748.69 686.78 741.9C689.08 735.11 692.57 589.14 677.6 572.23C662.63 555.32 668.41 512.26 668.41 512.26C661.99 512.7 642.74 514.02 636.32 514.47Z" id="ayD62qve"></path><path d="M547.76 341.79C545.09 350.36 544.17 359.64 546.67 368.25C548.46 373.63 550.95 378.76 554.08 383.51C556.56 388.04 559.72 392.2 563.43 395.82C572.11 403.64 584.72 405.21 596.44 406.43C598.45 406.76 600.5 406.73 602.5 406.33C604.1 405.87 605.58 405.08 606.84 403.99C611.97 399.72 614.3 393.19 616.18 386.88C620.66 371.9 623.86 356.57 625.76 341.06C626.2 338.61 626.2 336.1 625.76 333.64C624.75 329.37 621.27 326.05 618.76 322.37C615.74 317.97 614.02 312.84 613.78 307.54C613.68 304.96 613.78 302.11 612.13 300.14C611.04 299.07 609.71 298.26 608.24 297.77C601.4 294.92 594.57 292.07 587.72 289.33C583.58 287.65 576.15 283.17 571.81 286.48C568.09 289.33 569.88 295.95 568.29 299.91C565.85 305.93 562.02 311.64 558.95 317.35C554.7 325.25 550.42 333.22 547.76 341.79Z" id="f1OS7OSFbp"></path><path d="M547.76 341.79C545.09 350.36 544.17 359.64 546.67 368.25C548.46 373.63 550.95 378.76 554.08 383.51C556.56 388.04 559.72 392.2 563.43 395.82C572.11 403.64 584.72 405.21 596.44 406.43C598.45 406.76 600.5 406.73 602.5 406.33C604.1 405.87 605.58 405.08 606.84 403.99C611.97 399.72 614.3 393.19 616.18 386.88C620.66 371.9 623.86 356.57 625.76 341.06C626.2 338.61 626.2 336.1 625.76 333.64C624.75 329.37 621.27 326.05 618.76 322.37C615.74 317.97 614.02 312.84 613.78 307.54C613.68 304.96 613.78 302.11 612.13 300.14C611.04 299.07 609.71 298.26 608.24 297.77C601.4 294.92 594.57 292.07 587.72 289.33C583.58 287.65 576.15 283.17 571.81 286.48C568.09 289.33 569.88 295.95 568.29 299.91C565.85 305.93 562.02 311.64 558.95 317.35C554.7 325.25 550.42 333.22 547.76 341.79Z" id="b8H3UJIT87"></path><path d="M604.18 240.62C581.99 240.62 564 258.36 564 280.23C564 302.11 581.99 319.84 604.18 319.84C626.37 319.84 644.36 302.11 644.36 280.23C644.36 258.36 626.37 240.62 604.18 240.62Z" id="cmLNQduy"></path><path d="M594.73 385.43C588.68 385.49 582.63 384.85 576.73 383.53C564.52 381.14 552.53 377.77 540.88 373.45C538.4 378.29 537.73 383.81 537.51 389.22C536.89 405.61 540.2 421.86 541.48 438.21C543.08 459 541.48 480.25 546.9 500.38C547.21 496.96 548.57 493.71 550.78 491.06C552.62 489.1 554.83 487.5 557.27 486.35C568.22 480.77 580.82 479.22 592.82 481.99C599.78 483.61 607.17 486.65 613.77 483.93C617.7 482.29 620.55 478.84 622.73 475.21C626.44 468.68 629.09 461.61 630.57 454.27C634.91 435.39 635.49 415.87 636.01 396.51C636.16 391.33 638.41 375.95 634.06 372.16C631.01 369.52 630.11 373.28 627.91 375.25C625.05 377.48 621.78 379.13 618.28 380.13C610.67 382.82 602.82 385.15 594.73 385.43Z" id="d3jERrU7V"></path><path d="M552.14 312.46C549.19 314.21 546.8 316.63 543.81 318.23C535.5 322.67 524.35 319.42 516.47 324.58C509.06 329.44 507.79 339.45 507.21 348.2C505.77 370.45 504.52 392.84 499.1 414.49C497.65 420.19 495.92 426.04 496.47 431.91C496.9 435.27 497.7 438.57 498.87 441.75C499.58 443.94 505.27 461.47 505.98 463.67C509.28 473.85 512.62 484.18 512.97 494.86C513.32 505.54 510.77 515.69 508.24 525.89C503.24 545.97 499.98 566.44 498.51 587.07C498.06 593.9 497.87 601.03 500.68 607.29C503.57 613.83 509.44 618.69 515.63 622.39C521.82 626.08 528.55 628.93 534.61 632.85C546.77 640.74 556.53 653.16 570.77 656.39C577.29 657.82 584.12 657.25 590.68 655.99C590.68 655.99 586.97 489.57 576.62 465.8C566.28 442.04 557.11 339.08 557.11 335.68C557.11 332.29 561.73 312.13 561.73 312.13C559.05 310.06 555.09 310.7 552.14 312.46Z" id="c1vSIY2VkG"></path><path d="M679.94 345.86C679.94 345.86 656.99 420.55 656.99 420.55C656.99 420.55 669.61 512.2 675.34 521.25C675.34 521.25 678.8 548.34 678.8 548.34C682.95 560.76 683.74 574.03 681.08 586.84C676.5 607.2 659.27 643.42 659.27 643.42C659.27 643.42 636.32 643.42 630.57 656.99C624.83 670.57 623.69 598.15 623.69 598.15C623.69 598.15 603.04 465.76 604.18 457.85C605.32 449.93 611.06 384.29 613.36 366.18C615.66 348.07 620.67 324.36 617.59 317.58C630.06 323.23 671.9 317.58 679.94 345.86Z" id="a1hW4cWdW4"></path><path d="M659.27 335.68C659.27 335.68 685.68 343.6 685.68 352.65C685.68 361.7 693.77 410.35 693.77 426.19C693.77 442.04 690.32 444.3 693.77 449.96C697.21 455.62 657.04 453.36 657.04 453.36C656.56 449.06 654.12 427.56 649.74 388.87C654.82 360.5 658 342.77 659.27 335.68Z" id="c5f95t0KPr"></path><path d="M503.16 417.15C503.16 417.15 554.83 420.55 564.01 413.75C564.01 413.75 612.22 422.8 615.66 431.86C615.66 431.86 560.56 442.04 551.39 442.04C551.39 442.04 498.58 455.62 498.58 455.62C499.5 447.93 502.25 424.85 503.16 417.15Z" id="chI7WB5yF"></path><path d="M396.81 944.24C396.81 944.24 372.73 1004.12 385.24 1011.25C385.24 1011.25 529.68 1013.3 529.68 1013.3C529.68 1013.3 551.65 999.9 526.54 990.6C526.54 990.6 505.59 989.58 492 981.32C478.4 973.07 462.68 957.6 462.68 957.6C462.68 957.6 461.64 934.9 453.26 940.06C448.2 943.35 444.78 948.59 443.85 954.5C434.44 952.45 406.22 946.29 396.81 944.24Z" id="fXEWdjXKj"></path><path d="M396.81 944.24C396.81 944.24 372.73 1004.12 385.24 1011.25C385.24 1011.25 529.68 1013.3 529.68 1013.3C529.68 1013.3 551.65 999.9 526.54 990.6C526.54 990.6 505.59 989.58 492 981.32C478.4 973.07 462.68 957.6 462.68 957.6C462.68 957.6 461.64 934.9 453.26 940.06C448.2 943.35 444.78 948.59 443.85 954.5C434.44 952.45 406.22 946.29 396.81 944.24Z" id="bdIh1Tl6c"></path><path d="M359.65 962.54C359.65 962.54 333.26 1028.13 347.03 1036.09C347.03 1036.09 505.43 1038.36 505.43 1038.36C505.43 1038.36 529.55 1023.65 501.99 1013.46C501.99 1013.46 479.04 1012.33 464.11 1003.28C449.18 994.23 431.97 977.22 431.97 977.22C431.97 977.22 430.83 952.32 421.65 957.98C416.09 961.59 412.34 967.34 411.32 973.82C400.99 971.57 369.99 964.8 359.65 962.54Z" id="cdXySf05v"></path><path d="M495.14 546.15C485.49 631.7 480.14 679.22 479.07 688.73C479.07 688.73 473.28 756.63 456.11 771.33C456.11 771.33 456.11 792.83 450.33 799.62C449.52 808.56 443.09 880.08 442.29 889.02C442.29 889.02 453.77 921.81 452.63 927.51C452.63 927.51 457.21 951.27 456.07 953.53C456.07 953.53 400.96 953.53 400.96 953.53C401.73 941.39 405.56 880.66 412.45 771.36L448.03 517.9L495.14 546.15Z" id="c1lrjsVHt1"></path><path d="M495.14 546.15C485.49 631.7 480.14 679.22 479.07 688.73C479.07 688.73 473.28 756.63 456.11 771.33C456.11 771.33 456.11 792.83 450.33 799.62C449.52 808.56 443.09 880.08 442.29 889.02C442.29 889.02 453.77 921.81 452.63 927.51C452.63 927.51 457.21 951.27 456.07 953.53C456.07 953.53 400.96 953.53 400.96 953.53C401.73 941.39 405.56 880.66 412.45 771.36L448.03 517.9L495.14 546.15Z" id="a5z3DOcULe"></path><path d="M466.44 541.61C466.44 541.61 453.81 658.16 448.07 683.06C444.46 699.45 442.16 716.1 441.19 732.85C441.19 732.85 440.04 769.06 429.7 779.24C423.6 785.2 420.28 793.38 420.53 801.84C420.53 801.84 410.19 916.12 415.93 929.71C415.93 929.71 427.42 954.6 421.72 963.64C421.72 963.64 352.84 972.7 352.84 965.91C352.84 965.91 352.84 953.46 349.4 950.07C349.4 950.07 349.4 925.17 349.4 925.17C349.4 925.17 335.63 824.47 348.26 795.05C348.26 795.05 366.63 685.27 366.63 685.27C366.63 685.27 357.44 593.61 345.96 578.9C345.96 578.9 348.26 512.14 348.26 512.14C371.89 518.04 442.8 535.72 466.44 541.61Z" id="bs5H8sI18"></path><path d="M441.56 185.93C458.41 195.08 472.51 208.36 486.4 221.48C482.93 209.89 483.68 197.47 488.5 186.36C490.15 182.58 492.33 178.5 491.14 174.55C490.26 171.7 487.76 169.53 485.36 167.68C479.69 163.36 473.76 159.37 467.61 155.75C463.27 153.21 454.48 146.46 449.55 147.19C449.29 153.76 449.16 159.64 446.23 165.73C445.51 167.24 434.63 180.83 434.13 179.68C435.46 182.68 438.66 184.35 441.56 185.93Z" id="b7b0Iv2V6T"></path><path d="M492.84 101.44C466.84 101.44 445.77 122.21 445.77 147.83C445.77 173.46 466.84 194.23 492.84 194.23C518.83 194.23 539.9 173.46 539.9 147.83C539.9 122.21 518.83 101.44 492.84 101.44Z" id="hbQZLUTkg"></path><path d="M480.21 204.42C480.21 204.42 430.86 175.01 430.86 175.01C430.86 175.01 422.82 173.87 419.38 190.85C419.38 190.85 353.96 203.3 347.06 264.39C340.16 325.49 351.66 414.89 351.66 414.89C351.66 414.89 341.33 492.97 328.7 534.83C328.7 534.83 318.36 543.88 364.28 530.31C410.21 516.73 490.54 568.8 490.54 568.8C490.54 568.8 498.58 560.88 498.58 555.22C498.58 549.56 507.76 516.72 507.76 516.72C507.76 516.72 515.79 377.55 519.23 361.7C522.67 345.86 505.46 259.87 495.14 257.61C492.15 246.97 503.16 218 480.21 204.42Z" id="jtpWjHuwi"></path><path d="M474.47 253.07C474.47 253.07 434.3 191.98 434.3 191.98C434.3 191.98 389.54 177.26 351.66 224.77C351.89 226.92 353.73 244.12 353.96 246.27C353.96 246.27 395.28 163.67 440.04 215.72C484.81 267.76 423.97 335.68 423.97 335.68C434.07 319.16 487.09 299.47 474.47 253.07Z" id="a16VHT9vrS"></path><path d="M356.24 412.59L344.51 475.88L339.03 505.38L298.91 505.38L242.67 485.01C242.67 402.88 242.67 357.26 242.67 348.13C242.67 348.13 289.72 256.47 304.65 239.5C319.58 222.53 356.24 227.05 356.24 227.05C356.24 251.79 356.24 313.64 356.24 412.59Z" id="hruBIJjc6"></path><path d="M339.03 505.4L298.85 505.4L242.61 485.04L344.5 475.9L344.5 475.9L339.03 505.4Z" id="a1Ir8Gc0P2"></path><path d="M441.19 317.56L353.94 440.91L344.76 443.16L342.47 436.37L342.47 436.37L441.19 317.56Z" id="b6yPxSSsFX"></path><path d="M490.98 150.2C494.2 149.89 497.55 149.46 500.11 147.52C504.55 144.15 504.88 137.65 508.14 133.16C512.84 126.64 522.23 125.86 530.34 126.17C535.3 126.37 540.64 126.67 544.8 124.04C548.97 121.4 551.02 116.19 552.47 111.39C554.19 105.68 555.29 98.73 551.02 94.51C548.13 91.57 543.44 90.98 540.18 88.4C536.91 85.82 535.39 81.39 533.55 77.53C531.45 72.8 528.14 68.71 523.93 65.65C517.77 61.37 509.9 60.49 502.4 60.56C494.89 60.63 487.35 61.61 479.91 60.7C473.8 59.96 467.71 57.96 461.64 58.85C453.89 59.97 447.48 65.75 443.65 72.49C439.81 79.24 438.19 86.94 436.6 94.49C436.17 96.55 432.7 113.01 432.26 115.07C430.93 121.45 429.59 128 430.61 134.43C432.75 147.78 444.73 158.38 445.55 171.86C447.15 164.3 452.5 158.03 459.79 155.19C460.68 154.76 461.7 154.63 462.68 154.83C463.87 155.22 464.56 156.39 465.31 157.37C467.28 159.95 473.45 163.86 476.88 162.03C480.15 160.39 477.81 155.26 481.74 152.62C484.42 150.84 487.77 150.51 490.98 150.2Z" id="aFxnSq51I"></path><path d="M782.1 728.33C782.1 728.33 751.1 729.45 746.52 764.53C746.52 764.53 746.52 962.54 746.52 962.54C746.52 962.54 782.1 988.57 825.72 985.17C825.72 985.17 939.35 969.33 939.35 969.33C939.35 950.23 939.35 797.38 939.35 778.27C939.35 749.76 915.22 726.5 886.32 728.14C885.64 728.14 884.88 728.23 884.25 728.3C863.82 728.3 802.53 728.32 782.1 728.33Z" id="a2G8WfhIDs"></path><path d="M826.86 970.47C815.45 970.47 806.21 979.59 806.21 990.83C806.21 1002.08 815.45 1011.19 826.86 1011.19C838.27 1011.19 847.52 1002.08 847.52 990.83C847.52 979.59 838.27 970.47 826.86 970.47Z" id="h1NrL5zv6v"></path><path d="M939.35 961.42C927.94 961.42 918.69 970.53 918.69 981.78C918.69 993.02 927.94 1002.14 939.35 1002.14C950.75 1002.14 960 993.02 960 981.78C960 970.53 950.75 961.42 939.35 961.42Z" id="b7GY6dSBhU"></path><path d="M363.14 363.97C363.14 363.97 355.1 413.75 388.38 409.23C388.38 409.23 405.61 406.96 407.91 409.23C410.21 411.49 495.14 396.78 506.62 384.33C506.62 384.33 520.39 379.81 527.27 386.6C534.16 393.39 603.04 400.17 582.4 379.8C561.76 359.42 529.6 354.9 529.6 354.9C525.24 355.13 490.34 356.93 485.98 357.16C485.98 357.16 463.03 363.96 449.26 357.16C435.49 350.36 396.42 352.71 396.42 352.71C389.76 354.96 369.8 361.72 363.14 363.97Z" id="btbWjxXGS"></path><path d="M358.54 285.89C358.54 295.28 358.54 370.41 358.54 379.8C358.54 379.8 387.24 367.35 392.98 368.48C392.98 368.48 421.67 353.76 421.67 353.76C421.67 353.76 448.07 292.68 445.77 275.71C443.47 258.75 444.63 208.94 410.19 206.69C399.86 222.53 358.54 212.39 358.54 285.89Z" id="a2XzXlRyC1"></path><path d="M594.99 425.07L627.13 428.46L671.9 391.12L646.64 388.85L646.64 388.85L594.99 425.07Z" id="j3328gD2tx"></path><path d="M686.82 443.18C686.82 443.18 699.45 481.67 682.24 492.97C682.24 492.97 636.32 453.36 636.32 453.36C636.32 453.36 605.32 417.15 625.99 409.23C625.99 409.23 655.09 435.82 655.09 435.82C656.9 437.37 665.93 445.1 682.2 459.02C684.66 450.57 686.21 445.29 686.82 443.18Z" id="a7ogtyaPm"></path><path d="M654.11 250.8C654.11 266.74 633.55 279.66 608.2 279.66C582.84 279.66 562.29 266.74 562.29 250.8C562.29 234.87 582.84 221.95 608.2 221.95C633.55 221.95 654.11 234.87 654.11 250.8Z" id="f4M7Q9Z9vG"></path><path d="M616.23 148.42C597.85 148.42 582.95 163.11 582.95 181.22C582.95 199.34 597.85 214.03 616.23 214.03C634.61 214.03 649.51 199.34 649.51 181.22C649.51 163.11 634.61 148.42 616.23 148.42Z" id="fD1dqdWNs"></path><path d="M537.02 118.99C537.02 131.48 517.24 141.62 492.84 141.62C468.43 141.62 448.65 131.48 448.65 118.99C448.65 106.49 468.43 96.36 492.84 96.36C517.24 96.36 537.02 106.49 537.02 118.99Z" id="g2flEDD8wB"></path><path d="M467 122.94C467 143.88 460.07 160.85 451.51 160.85C442.96 160.85 436.02 143.88 436.02 122.94C436.02 102 442.96 85.02 451.51 85.02C460.07 85.02 467 102 467 122.94Z" id="amlPFWQzH"></path><path d="M220.93 1017.91C225.27 1010.05 220.35 1000.43 214.74 993.41C209.13 986.4 202.27 979.16 202.42 970.19C202.64 957.35 216.45 949.78 227.48 942.98C235.68 937.93 243.23 931.95 249.99 925.15C252.83 922.53 255.17 919.44 256.9 916.02C259.19 911 259.13 905.3 258.99 899.79C258.5 881.49 257.58 863.2 256.22 844.93" id="h8osgwcuG"></path><path d="M267.09 827.52C266.78 828.11 265.27 831.07 262.54 836.39C262.63 829.95 262.68 826.38 262.69 825.67C251.96 822.56 240.71 828.61 237.55 839.19C234.4 849.77 240.55 860.86 251.28 863.97C262.01 867.08 273.26 861.02 276.41 850.44C277.04 848.33 277.31 846.12 277.21 843.92C276.9 837.1 273.08 830.92 267.09 827.52Z" id="b1goH4U786"></path><path d="M213.77 987.96C203.83 982.9 199.93 970.86 205.06 961.06C210.19 951.27 222.4 947.42 232.34 952.48C236.82 954.76 240.28 958.6 242.04 963.26C241.19 963.94 236.96 967.32 229.35 973.42C237.73 971.51 242.38 970.44 243.31 970.23C243.31 973.41 242.54 976.55 241.05 979.37C235.92 989.17 223.71 993.01 213.77 987.96Z" id="b1wGP9eLRe"></path><path d="M209.71 921.55C209.71 921.52 209.71 921.49 209.71 921.45C209.55 918.32 210.15 915.2 211.46 912.34C213.92 906.93 218.69 902.87 224.48 901.25C224.47 901.8 224.44 904.55 224.38 909.5L228.96 900.54C228.96 900.54 228.96 900.54 228.96 900.54C240.13 900 249.63 908.49 250.17 919.5C250.18 919.53 250.18 919.57 250.18 919.6C250.3 921.91 250 924.22 249.31 926.43C246.81 934.47 239.45 940.11 230.93 940.52C219.76 941.05 210.26 932.56 209.71 921.55Z" id="c49ZgBYLE3"></path><path d="M259.28 888.98C258.87 877.96 267.6 868.7 278.78 868.3C282.42 868.16 286.04 869.01 289.24 870.74C289.01 871.38 287.81 874.61 285.66 880.43C290.08 876.24 292.54 873.91 293.03 873.45C301.33 880.84 301.97 893.46 294.46 901.64C290.82 905.62 285.7 907.98 280.26 908.19C269.09 908.6 259.69 899.99 259.28 888.98Z" id="b12mWGxAca"></path><path d="M260.53 851.49C255.83 851.77 250.67 850.66 247.71 847.05C246.1 845.11 245.29 842.66 243.94 840.55C242.66 838.58 240.91 836.95 238.84 835.8C233.98 845.73 238.21 857.67 248.28 862.46C258.35 867.25 270.46 863.08 275.31 853.15C275.95 851.85 276.44 850.49 276.78 849.09C276.01 849.12 275.24 849.18 274.48 849.25C269.81 849.76 265.24 851.2 260.53 851.49Z" id="d27vC1b4XS"></path><path d="M259.06 889.04C258.92 885.81 259.57 882.6 260.95 879.68C262.57 880.74 263.96 882.12 265.05 883.71C266.49 885.86 267.36 888.34 269.07 890.33C272.22 893.99 277.63 895.19 282.52 894.96C287.41 894.73 292.15 893.38 296.98 892.94C297.66 892.94 298.36 892.82 299.04 892.81C296.97 901.5 289.31 907.78 280.26 908.19C269.04 908.67 259.55 900.1 259.06 889.04Z" id="dQ2ZmpK6e"></path><path d="M209.71 921.55C209.71 921.52 209.71 921.49 209.71 921.45C209.55 918.32 210.15 915.2 211.46 912.34C213.15 913.42 214.62 914.8 215.8 916.4C217.37 918.6 218.36 921.12 220.14 923.15C223.57 926.91 229.32 928.24 234.51 928.11C239.71 927.98 244.38 926.78 249.37 926.41C246.86 934.49 239.48 940.13 230.93 940.52C219.76 941.05 210.26 932.56 209.71 921.55Z" id="d2tljukrgq"></path><path d="M214.27 989.44C204.06 984.93 199.48 973.12 204.05 963.04C205.72 964.13 207.22 965.44 208.51 966.95C210.43 969.27 211.7 971.9 213.93 974.08C218.08 978.1 224.78 979.78 230.75 979.91C234.19 979.92 237.63 979.74 241.05 979.37C236.48 989.44 224.49 993.95 214.27 989.44Z" id="c2uIzFkPMD"></path><path d="M211.17 1004.99C211.17 1004.99 235.76 997.55 237.02 1002.99C237.02 1002.99 261.08 1030.09 243 1030.17C243 1030.17 200.97 1027.39 196.16 1024.47C191.34 1021.54 190.31 1008.87 190.31 1008.87C194.48 1008.09 206.34 1008.38 211.17 1004.99Z" id="b1x4r52cGg"></path><path d="M196.47 1022.57C192.8 1020.38 191.34 1012.46 190.85 1008.81C190.79 1008.81 190.37 1008.81 190.31 1008.81C190.31 1008.81 191.33 1021.54 196.1 1024.5C196.1 1024.5 224.85 1030.31 242.95 1030.2C248.17 1030.2 249.96 1028.33 249.87 1025.61C249.19 1027.22 247.21 1028.25 243.32 1028.27C225.23 1028.42 201.29 1025.49 196.47 1022.57Z" id="a22ezy0xu"></path></defs><g><g><g><use xlink:href="#b5c2FgcWl2" opacity="1" fill="#3f3d56" fill-opacity="1"></use><g><use xlink:href="#b5c2FgcWl2" opacity="1" fill-opacity="0" stroke="#000000" stroke-width="1" stroke-opacity="0"></use></g></g><g><use xlink:href="#a2Repqw68" opacity="1" fill="#3f3d56" fill-opacity="1"></use><g><use xlink:href="#a2Repqw68" opacity="1" fill-opacity="0" stroke="#000000" stroke-width="1" stroke-opacity="0"></use></g></g><g><use xlink:href="#i1m277MsHV" opacity="1" fill="#3f3d56" fill-opacity="1"></use><g><use xlink:href="#i1m277MsHV" opacity="1" fill-opacity="0" stroke="#000000" stroke-width="1" stroke-opacity="0"></use></g></g><g><use xlink:href="#a4g9q4HPSk" opacity="1" fill="#3f3d56" fill-opacity="1"></use><g><use xlink:href="#a4g9q4HPSk" opacity="1" fill-opacity="0" stroke="#000000" stroke-width="1" stroke-opacity="0"></use></g></g><g><use xlink:href="#k8zvFrbvc" opacity="1" fill="#3f3d56" fill-opacity="1"></use><g><use xlink:href="#k8zvFrbvc" opacity="1" fill-opacity="0" stroke="#000000" stroke-width="1" stroke-opacity="0"></use></g></g><g><use xlink:href="#a1UplPkOtQ" opacity="1" fill="#3f3d56" fill-opacity="1"></use><g><use xlink:href="#a1UplPkOtQ" opacity="1" fill-opacity="0" stroke="#000000" stroke-width="1" stroke-opacity="0"></use></g></g><g><use xlink:href="#bGUf95TT2" opacity="1" fill="#3f3d56" fill-opacity="1"></use><g><use xlink:href="#bGUf95TT2" opacity="1" fill-opacity="0" stroke="#000000" stroke-width="1" stroke-opacity="0"></use></g></g><g><use xlink:href="#b5N5QWhKh8" opacity="1" fill="#fbbebe" fill-opacity="1"></use><g><use xlink:href="#b5N5QWhKh8" opacity="1" fill-opacity="0" stroke="#000000" stroke-width="1" stroke-opacity="0"></use></g></g><g><use xlink:href="#baKgO5KPd" opacity="1" fill="#fbbebe" fill-opacity="1"></use><g><use xlink:href="#baKgO5KPd" opacity="1" fill-opacity="0" stroke="#000000" stroke-width="1" stroke-opacity="0"></use></g></g><g><use xlink:href="#a1LWOFd6U3" opacity="1" fill="#3c354c" fill-opacity="1"></use><g><use xlink:href="#a1LWOFd6U3" opacity="1" fill-opacity="0" stroke="#000000" stroke-width="1" stroke-opacity="0"></use></g></g><g><use xlink:href="#a6Nk26BwN" opacity="1" fill="#3c354c" fill-opacity="1"></use><g><use xlink:href="#a6Nk26BwN" opacity="1" fill-opacity="0" stroke="#000000" stroke-width="1" stroke-opacity="0"></use></g></g><g><use xlink:href="#ayD62qve" opacity="1" fill="#3f3d56" fill-opacity="1"></use><g><use xlink:href="#ayD62qve" opacity="1" fill-opacity="0" stroke="#000000" stroke-width="1" stroke-opacity="0"></use></g></g><g><use xlink:href="#f1OS7OSFbp" opacity="1" fill="#fbbebe" fill-opacity="1"></use><g><use xlink:href="#f1OS7OSFbp" opacity="1" fill-opacity="0" stroke="#000000" stroke-width="1" stroke-opacity="0"></use></g></g><g><use xlink:href="#b8H3UJIT87" opacity="1" fill="#fbbebe" fill-opacity="1"></use><g><use xlink:href="#b8H3UJIT87" opacity="1" fill-opacity="0" stroke="#000000" stroke-width="1" stroke-opacity="0"></use></g></g><g><use xlink:href="#cmLNQduy" opacity="1" fill="#fbbebe" fill-opacity="1"></use><g><use xlink:href="#cmLNQduy" opacity="1" fill-opacity="0" stroke="#000000" stroke-width="1" stroke-opacity="0"></use></g></g><g><use xlink:href="#d3jERrU7V" opacity="1" fill="#f2f2f2" fill-opacity="1"></use><g><use xlink:href="#d3jERrU7V" opacity="1" fill-opacity="0" stroke="#000000" stroke-width="1" stroke-opacity="0"></use></g></g><g><use xlink:href="#c1vSIY2VkG" opacity="1" fill="#850009" fill-opacity="1"></use><g><use xlink:href="#c1vSIY2VkG" opacity="1" fill-opacity="0" stroke="#000000" stroke-width="1" stroke-opacity="0"></use></g></g><g><use xlink:href="#a1hW4cWdW4" opacity="1" fill="#850009" fill-opacity="1"></use><g><use xlink:href="#a1hW4cWdW4" opacity="1" fill-opacity="0" stroke="#000000" stroke-width="1" stroke-opacity="0"></use></g></g><g><use xlink:href="#c5f95t0KPr" opacity="1" fill="#850009" fill-opacity="1"></use><g><use xlink:href="#c5f95t0KPr" opacity="1" fill-opacity="0" stroke="#000000" stroke-width="1" stroke-opacity="0"></use></g></g><g><use xlink:href="#chI7WB5yF" opacity="1" fill="#a0616a" fill-opacity="1"></use><g><use xlink:href="#chI7WB5yF" opacity="1" fill-opacity="0" stroke="#000000" stroke-width="1" stroke-opacity="0"></use></g></g><g><use xlink:href="#fXEWdjXKj" opacity="1" fill="#3f3d56" fill-opacity="1"></use><g><use xlink:href="#fXEWdjXKj" opacity="1" fill-opacity="0" stroke="#000000" stroke-width="1" stroke-opacity="0"></use></g></g><g><use xlink:href="#bdIh1Tl6c" opacity="1" fill="#000000" fill-opacity="1"></use><g><use xlink:href="#bdIh1Tl6c" opacity="1" fill-opacity="0" stroke="#000000" stroke-width="1" stroke-opacity="0"></use></g></g><g><use xlink:href="#cdXySf05v" opacity="1" fill="#3f3d56" fill-opacity="1"></use><g><use xlink:href="#cdXySf05v" opacity="1" fill-opacity="0" stroke="#000000" stroke-width="1" stroke-opacity="0"></use></g></g><g><use xlink:href="#c1lrjsVHt1" opacity="1" fill="#3c354c" fill-opacity="1"></use><g><use xlink:href="#c1lrjsVHt1" opacity="1" fill-opacity="0" stroke="#000000" stroke-width="1" stroke-opacity="0"></use></g></g><g><use xlink:href="#a5z3DOcULe" opacity="1" fill="#000000" fill-opacity="1"></use><g><use xlink:href="#a5z3DOcULe" opacity="1" fill-opacity="0" stroke="#000000" stroke-width="1" stroke-opacity="0"></use></g></g><g><use xlink:href="#bs5H8sI18" opacity="1" fill="#3c354c" fill-opacity="1"></use><g><use xlink:href="#bs5H8sI18" opacity="1" fill-opacity="0" stroke="#000000" stroke-width="1" stroke-opacity="0"></use></g></g><g><use xlink:href="#b7b0Iv2V6T" opacity="1" fill="#a0616a" fill-opacity="1"></use><g><use xlink:href="#b7b0Iv2V6T" opacity="1" fill-opacity="0" stroke="#000000" stroke-width="1" stroke-opacity="0"></use></g></g><g><use xlink:href="#hbQZLUTkg" opacity="1" fill="#a0616a" fill-opacity="1"></use><g><use xlink:href="#hbQZLUTkg" opacity="1" fill-opacity="0" stroke="#000000" stroke-width="1" stroke-opacity="0"></use></g></g><g><use xlink:href="#jtpWjHuwi" opacity="1" fill="#3f3d56" fill-opacity="1"></use><g><use xlink:href="#jtpWjHuwi" opacity="1" fill-opacity="0" stroke="#000000" stroke-width="1" stroke-opacity="0"></use></g></g><g><use xlink:href="#a16VHT9vrS" opacity="1" fill="#850009" fill-opacity="1"></use><g><use xlink:href="#a16VHT9vrS" opacity="1" fill-opacity="0" stroke="#000000" stroke-width="1" stroke-opacity="0"></use></g></g><g><use xlink:href="#hruBIJjc6" opacity="1" fill="#850009" fill-opacity="1"></use><g><use xlink:href="#hruBIJjc6" opacity="1" fill-opacity="0" stroke="#000000" stroke-width="1" stroke-opacity="0"></use></g></g><g><use xlink:href="#a1Ir8Gc0P2" opacity="1" fill="#000000" fill-opacity="1"></use><g><use xlink:href="#a1Ir8Gc0P2" opacity="1" fill-opacity="0" stroke="#000000" stroke-width="1" stroke-opacity="0"></use></g></g><g><use xlink:href="#b6yPxSSsFX" opacity="1" fill="#850009" fill-opacity="1"></use><g><use xlink:href="#b6yPxSSsFX" opacity="1" fill-opacity="0" stroke="#000000" stroke-width="1" stroke-opacity="0"></use></g></g><g><use xlink:href="#aFxnSq51I" opacity="1" fill="#3f3d56" fill-opacity="1"></use><g><use xlink:href="#aFxnSq51I" opacity="1" fill-opacity="0" stroke="#000000" stroke-width="1" stroke-opacity="0"></use></g></g><g><use xlink:href="#a2G8WfhIDs" opacity="1" fill="#3c354c" fill-opacity="1"></use><g><use xlink:href="#a2G8WfhIDs" opacity="1" fill-opacity="0" stroke="#000000" stroke-width="1" stroke-opacity="0"></use></g></g><g><use xlink:href="#h1NrL5zv6v" opacity="1" fill="#3f3d56" fill-opacity="1"></use><g><use xlink:href="#h1NrL5zv6v" opacity="1" fill-opacity="0" stroke="#000000" stroke-width="1" stroke-opacity="0"></use></g></g><g><use xlink:href="#b7GY6dSBhU" opacity="1" fill="#3f3d56" fill-opacity="1"></use><g><use xlink:href="#b7GY6dSBhU" opacity="1" fill-opacity="0" stroke="#000000" stroke-width="1" stroke-opacity="0"></use></g></g><g><use xlink:href="#btbWjxXGS" opacity="1" fill="#a0616a" fill-opacity="1"></use><g><use xlink:href="#btbWjxXGS" opacity="1" fill-opacity="0" stroke="#000000" stroke-width="1" stroke-opacity="0"></use></g></g><g><use xlink:href="#a2XzXlRyC1" opacity="1" fill="#3f3d56" fill-opacity="1"></use><g><use xlink:href="#a2XzXlRyC1" opacity="1" fill-opacity="0" stroke="#000000" stroke-width="1" stroke-opacity="0"></use></g></g><g><use xlink:href="#j3328gD2tx" opacity="1" fill="#3f3d56" fill-opacity="1"></use><g><use xlink:href="#j3328gD2tx" opacity="1" fill-opacity="0" stroke="#000000" stroke-width="1" stroke-opacity="0"></use></g></g><g><use xlink:href="#a7ogtyaPm" opacity="1" fill="#fbbebe" fill-opacity="1"></use><g><use xlink:href="#a7ogtyaPm" opacity="1" fill-opacity="0" stroke="#000000" stroke-width="1" stroke-opacity="0"></use></g></g><g><use xlink:href="#f4M7Q9Z9vG" opacity="1" fill="#3f3d56" fill-opacity="1"></use><g><use xlink:href="#f4M7Q9Z9vG" opacity="1" fill-opacity="0" stroke="#000000" stroke-width="1" stroke-opacity="0"></use></g></g><g><use xlink:href="#fD1dqdWNs" opacity="1" fill="#3f3d56" fill-opacity="1"></use><g><use xlink:href="#fD1dqdWNs" opacity="1" fill-opacity="0" stroke="#000000" stroke-width="1" stroke-opacity="0"></use></g></g><g><use xlink:href="#g2flEDD8wB" opacity="1" fill="#3f3d56" fill-opacity="1"></use><g><use xlink:href="#g2flEDD8wB" opacity="1" fill-opacity="0" stroke="#000000" stroke-width="1" stroke-opacity="0"></use></g></g><g><use xlink:href="#amlPFWQzH" opacity="1" fill="#3f3d56" fill-opacity="1"></use><g><use xlink:href="#amlPFWQzH" opacity="1" fill-opacity="0" stroke="#000000" stroke-width="1" stroke-opacity="0"></use></g></g><g><use xlink:href="#h8osgwcuG" opacity="1" fill="#000000" fill-opacity="0"></use><g><use xlink:href="#h8osgwcuG" opacity="1" fill-opacity="0" stroke="#3f3d56" stroke-width="4" stroke-opacity="1"></use></g></g><g><use xlink:href="#b1goH4U786" opacity="1" fill="#57b894" fill-opacity="1"></use><g><use xlink:href="#b1goH4U786" opacity="1" fill-opacity="0" stroke="#000000" stroke-width="1" stroke-opacity="0"></use></g></g><g><use xlink:href="#b1wGP9eLRe" opacity="1" fill="#57b894" fill-opacity="1"></use><g><use xlink:href="#b1wGP9eLRe" opacity="1" fill-opacity="0" stroke="#000000" stroke-width="1" stroke-opacity="0"></use></g></g><g><use xlink:href="#c49ZgBYLE3" opacity="1" fill="#57b894" fill-opacity="1"></use><g><use xlink:href="#c49ZgBYLE3" opacity="1" fill-opacity="0" stroke="#000000" stroke-width="1" stroke-opacity="0"></use></g></g><g><use xlink:href="#b12mWGxAca" opacity="1" fill="#57b894" fill-opacity="1"></use><g><use xlink:href="#b12mWGxAca" opacity="1" fill-opacity="0" stroke="#000000" stroke-width="1" stroke-opacity="0"></use></g></g><g><use xlink:href="#d27vC1b4XS" opacity="1" fill="#000000" fill-opacity="1"></use><g><use xlink:href="#d27vC1b4XS" opacity="1" fill-opacity="0" stroke="#000000" stroke-width="1" stroke-opacity="0"></use></g></g><g><use xlink:href="#dQ2ZmpK6e" opacity="1" fill="#000000" fill-opacity="1"></use><g><use xlink:href="#dQ2ZmpK6e" opacity="1" fill-opacity="0" stroke="#000000" stroke-width="1" stroke-opacity="0"></use></g></g><g><use xlink:href="#d2tljukrgq" opacity="1" fill="#000000" fill-opacity="1"></use><g><use xlink:href="#d2tljukrgq" opacity="1" fill-opacity="0" stroke="#000000" stroke-width="1" stroke-opacity="0"></use></g></g><g><use xlink:href="#c2uIzFkPMD" opacity="1" fill="#000000" fill-opacity="1"></use><g><use xlink:href="#c2uIzFkPMD" opacity="1" fill-opacity="0" stroke="#000000" stroke-width="1" stroke-opacity="0"></use></g></g><g><use xlink:href="#b1x4r52cGg" opacity="1" fill="#656380" fill-opacity="1"></use><g><use xlink:href="#b1x4r52cGg" opacity="1" fill-opacity="0" stroke="#000000" stroke-width="1" stroke-opacity="0"></use></g></g><g><use xlink:href="#a22ezy0xu" opacity="1" fill="#000000" fill-opacity="1"></use><g><use xlink:href="#a22ezy0xu" opacity="1" fill-opacity="0" stroke="#000000" stroke-width="1" stroke-opacity="0"></use></g></g></g></g></svg>