<?xml version="1.0" encoding="UTF-8" standalone="no"?>
<!DOCTYPE svg PUBLIC "-//W3C//DTD SVG 1.1//EN" "http://www.w3.org/Graphics/SVG/1.1/DTD/svg11.dtd">
<svg version="1.1" xmlns="http://www.w3.org/2000/svg" xmlns:xlink="http://www.w3.org/1999/xlink" preserveAspectRatio="xMidYMid meet" viewBox="0 0 750 1334" width="750" height="1334"><defs><path d="M338.51 240.54C338.51 261.94 315.77 279.28 287.71 279.28C259.65 279.28 236.9 261.94 236.9 240.54C236.9 219.15 259.65 201.8 287.71 201.8C315.77 201.8 338.51 219.15 338.51 240.54Z" id="e35MLKDX88"></path><path d="M389.32 300.13C348.91 300.13 316.16 332.16 316.16 371.66C316.16 411.16 348.91 443.18 389.32 443.18C429.73 443.18 462.48 411.16 462.48 371.66C462.48 332.16 429.73 300.13 389.32 300.13Z" id="a11k0mPL4E"></path><path d="M621.5 988.04C611.4 988.04 603.21 996.04 603.21 1005.91C603.21 1015.78 611.4 1023.79 621.5 1023.79C631.6 1023.79 639.78 1015.78 639.78 1005.91C639.78 996.04 631.6 988.04 621.5 988.04Z" id="d1eklKAdv"></path><path d="M525.99 988.04C515.89 988.04 507.71 996.04 507.71 1005.91C507.71 1015.78 515.89 1023.79 525.99 1023.79C536.09 1023.79 544.28 1015.78 544.28 1005.91C544.28 996.04 536.09 988.04 525.99 988.04Z" id="g7Ffppg562"></path><path d="M554.44 574.81C554.44 574.81 554.44 574.81 554.44 574.81C554.44 706.53 554.44 779.7 554.44 794.34C554.44 794.34 554.44 794.34 554.44 794.34C549.56 794.34 546.85 794.34 546.31 794.34C546.31 794.34 546.31 794.34 546.31 794.34C546.31 662.62 546.31 589.44 546.31 574.81C546.31 574.81 546.31 574.81 546.31 574.81C551.19 574.81 553.9 574.81 554.44 574.81Z" id="d2K7U3QIQN"></path><path d="M598.13 574.81C598.13 574.81 598.13 574.81 598.13 574.81C598.13 706.53 598.13 779.7 598.13 794.34C598.13 794.34 598.13 794.34 598.13 794.34C593.25 794.34 590.54 794.34 590 794.34C590 794.34 590 794.34 590 794.34C590 662.62 590 589.44 590 574.81C590 574.81 590 574.81 590 574.81C594.88 574.81 597.59 574.81 598.13 574.81Z" id="d4dCXoDRuQ"></path><path d="M548.3 580.76C547.08 577.19 546.4 575.2 546.26 574.81C546.26 574.81 568.62 548.98 600.12 569.8C599.98 570.4 599.3 573.38 598.08 578.75C593.2 578.75 590.49 578.75 589.95 578.75C589.95 578.75 576.75 567.92 554.39 580.29C553.58 580.35 551.55 580.51 548.3 580.76Z" id="apzvRp2mY"></path><path d="M411.68 543.51C411.68 543.51 411.68 543.51 411.68 543.51C411.68 598.34 411.68 628.81 411.68 634.9C411.68 634.9 411.68 634.9 411.68 634.9C367.78 634.9 343.39 634.9 338.51 634.9C338.51 634.9 338.51 634.9 338.51 634.9C338.51 580.07 338.51 549.61 338.51 543.51C338.51 543.51 338.51 543.51 338.51 543.51C382.41 543.51 406.8 543.51 411.68 543.51Z" id="b5PgSJcdeL"></path><path d="M462.48 517.68C462.48 517.68 462.48 517.68 462.48 517.68C462.48 543.9 462.48 558.47 462.48 561.39C462.48 561.39 462.48 561.39 462.48 561.39C449.07 561.39 441.62 561.39 440.13 561.39C440.13 561.39 440.13 561.39 440.13 561.39C440.13 535.16 440.13 520.59 440.13 517.68C440.13 517.68 440.13 517.68 440.13 517.68C453.54 517.68 460.99 517.68 462.48 517.68Z" id="aIV5gyiVr"></path><path d="M348.17 988.04C342.68 1004.13 339.64 1013.07 339.03 1014.86C339.03 1014.86 334.95 1034.73 348.17 1035.71C348.17 1035.71 382.74 1032.74 382.74 1032.74C382.74 1032.74 385.79 1023.8 382.74 1015.85C382.74 1015.85 370.55 986.05 370.55 986.05C367.57 986.31 360.1 986.98 348.17 988.04Z" id="a29YWcgKPq"></path><path d="M417.26 989.03C417.26 989.03 403.03 1023.8 414.21 1029.76C414.21 1029.76 440.64 1030.74 452.83 1035.71C452.83 1035.71 498.55 1028.77 498.55 1028.77C498.55 1028.77 502.62 1017.84 480.27 1014.86C480.27 1014.86 455.94 996.97 455.94 993.01C455.94 989.04 441.72 989.03 441.72 989.03C436.82 989.03 422.15 989.03 417.26 989.03Z" id="n4kiQnBu"></path><path d="M414.21 592.69C414.21 592.69 330.9 609.58 320.74 604.61C320.74 604.61 300.42 672.2 300.42 672.2C300.42 672.2 296.35 715.91 310.57 774.51C310.57 774.51 310.57 861.93 310.57 861.93C310.57 861.93 312.61 917.55 327.86 943.39C327.86 943.39 343.1 993.06 343.1 993.06C343.1 993.06 372.55 996.04 373.58 989.08C373.58 989.08 361.38 961.26 363.42 935.44C365.45 909.62 357.32 859.94 357.32 859.94C357.32 859.94 370.54 797.36 368.5 773.57C366.47 749.79 375.62 699.07 380.69 708.01C385.76 716.95 398.99 760.66 398.99 769.61C398.99 778.55 404.11 838.14 407.12 842.12C410.13 846.1 409.14 858.01 408.13 863.97C407.12 869.93 407.12 914.63 412.19 938.47C417.26 962.32 413.21 989.13 414.22 993.11C415.24 997.09 444.71 994.1 445.72 987.14C445.72 987.14 449.79 944.43 451.83 938.47C453.87 932.51 454.83 856.91 454.83 856.91C454.83 856.91 456.85 798.31 458.89 792.35C460.92 786.39 464.01 658.24 450.75 643.4C437.5 628.55 442.62 590.75 442.62 590.75C436.94 591.14 419.89 592.3 414.21 592.69Z" id="bHpz5mAbo"></path><path d="M335.81 441.1C333.46 448.62 332.64 456.77 334.85 464.33C336.44 469.05 338.64 473.56 341.41 477.72C343.61 481.71 346.4 485.35 349.69 488.54C357.37 495.4 368.54 496.78 378.91 497.85C380.69 498.14 382.51 498.11 384.28 497.76C385.69 497.36 387 496.66 388.12 495.71C392.66 491.96 394.72 486.22 396.39 480.69C400.35 467.53 403.18 454.08 404.86 440.46C405.26 438.31 405.26 436.11 404.86 433.95C403.97 430.2 400.9 427.28 398.67 424.05C396 420.19 394.47 415.69 394.26 411.03C394.17 408.77 394.26 406.27 392.8 404.54C391.83 403.6 390.65 402.89 389.36 402.46C383.3 399.96 377.26 397.45 371.19 395.05C367.53 393.57 360.95 389.64 357.11 392.55C353.81 395.05 355.4 400.86 353.99 404.34C351.83 409.62 348.44 414.64 345.72 419.65C341.96 426.58 338.17 433.58 335.81 441.1Z" id="b15UblzFvh"></path><path d="M335.81 441.1C333.46 448.62 332.64 456.77 334.85 464.33C336.44 469.05 338.64 473.56 341.41 477.72C343.61 481.71 346.4 485.35 349.69 488.54C357.37 495.4 368.54 496.78 378.91 497.85C380.69 498.14 382.51 498.11 384.28 497.76C385.69 497.36 387 496.66 388.12 495.71C392.66 491.96 394.72 486.22 396.39 480.69C400.35 467.53 403.18 454.08 404.86 440.46C405.26 438.31 405.26 436.11 404.86 433.95C403.97 430.2 400.9 427.28 398.67 424.05C396 420.19 394.47 415.69 394.26 411.03C394.17 408.77 394.26 406.27 392.8 404.54C391.83 403.6 390.65 402.89 389.36 402.46C383.3 399.96 377.26 397.45 371.19 395.05C367.53 393.57 360.95 389.64 357.11 392.55C353.81 395.05 355.4 400.86 353.99 404.34C351.83 409.62 348.44 414.64 345.72 419.65C341.96 426.58 338.17 433.58 335.81 441.1Z" id="b7L7yAciOG"></path><path d="M385.76 352.29C366.12 352.29 350.19 367.86 350.19 387.06C350.19 406.27 366.12 421.84 385.76 421.84C405.41 421.84 421.33 406.27 421.33 387.06C421.33 367.86 405.41 352.29 385.76 352.29Z" id="c1mI0rUGhs"></path><path d="M377.4 479.41C372.04 479.47 366.69 478.91 361.46 477.75C350.65 475.65 340.04 472.69 329.73 468.9C327.53 473.14 326.94 477.99 326.75 482.74C326.2 497.13 329.13 511.39 330.25 525.75C331.68 544 330.25 562.65 335.06 580.33C335.33 577.32 336.53 574.47 338.49 572.14C340.12 570.42 342.07 569.02 344.24 568.01C353.93 563.11 365.09 561.75 375.71 564.18C381.87 565.61 388.41 568.27 394.25 565.88C397.73 564.44 400.26 561.41 402.19 558.23C405.47 552.5 407.81 546.29 409.13 539.85C412.97 523.27 413.48 506.14 413.94 489.14C414.07 484.6 416.07 471.09 412.21 467.76C409.51 465.45 408.72 468.75 406.77 470.48C404.24 472.43 401.34 473.88 398.24 474.76C391.51 477.12 384.56 479.16 377.4 479.41Z" id="hbIAeWn9d"></path><path d="M339.69 415.35C337.08 416.89 334.97 419.02 332.32 420.42C324.97 424.31 315.09 421.46 308.12 425.99C301.56 430.26 300.43 439.05 299.92 446.73C298.64 466.26 297.54 485.92 292.74 504.92C291.46 509.93 289.92 515.06 290.41 520.22C290.79 523.17 291.5 526.06 292.53 528.86C293.16 530.78 298.2 546.17 298.83 548.09C301.75 557.03 304.71 566.11 305.02 575.48C305.33 584.86 303.07 593.77 300.83 602.72C296.4 620.35 293.52 638.32 292.21 656.43C291.82 662.42 291.65 668.68 294.13 674.18C296.7 679.92 301.89 684.19 307.37 687.43C312.85 690.67 318.81 693.18 324.17 696.62C334.94 703.54 343.58 714.44 356.18 717.28C361.96 718.54 368 718.04 373.81 716.93C373.81 716.93 370.52 570.84 361.37 549.97C352.21 529.11 344.1 438.72 344.1 435.74C344.1 432.76 348.18 415.06 348.18 415.06C345.81 413.25 342.3 413.81 339.69 415.35Z" id="e1U1jYYV5k"></path><path d="M452.83 444.68C452.83 444.68 432.51 510.24 432.51 510.24C432.51 510.24 443.69 590.7 448.76 598.65C448.76 598.65 451.82 622.43 451.82 622.43C455.5 633.33 456.2 644.98 453.84 656.23C449.78 674.1 434.53 705.89 434.53 705.89C434.53 705.89 414.21 705.89 409.13 717.81C404.05 729.73 403.03 666.15 403.03 666.15C403.03 666.15 384.75 549.93 385.76 542.99C386.77 536.04 391.86 478.41 393.89 462.52C395.93 446.62 400.36 425.8 397.63 419.85C408.67 424.81 445.71 419.85 452.83 444.68Z" id="f2C5g1Updr"></path><path d="M434.53 435.74C434.53 435.74 457.91 442.69 457.91 450.64C457.91 458.59 465.07 501.29 465.07 515.2C465.07 529.11 462.02 531.1 465.07 536.07C468.12 541.03 432.56 539.04 432.56 539.04C432.13 535.27 429.97 516.4 426.09 482.43C430.59 457.53 433.41 441.97 434.53 435.74Z" id="c1qfHX0tnV"></path><path d="M296.34 507.26C296.34 507.26 342.07 510.24 350.2 504.27C350.2 504.27 392.88 512.22 395.93 520.17C395.93 520.17 347.14 529.11 339.03 529.11C339.03 529.11 292.28 541.03 292.28 541.03C293.09 534.28 295.52 514.02 296.34 507.26Z" id="c72olOaKsU"></path><path d="M202.19 969.98C202.19 969.98 180.87 1022.55 191.94 1028.8C191.94 1028.8 319.81 1030.61 319.81 1030.61C319.81 1030.61 339.26 1018.84 317.03 1010.68C317.03 1010.68 298.49 1009.78 286.45 1002.53C274.42 995.28 260.5 981.7 260.5 981.7C260.5 981.7 259.58 961.78 252.16 966.31C247.68 969.2 244.65 973.8 243.83 978.99C235.5 977.19 210.52 971.78 202.19 969.98Z" id="l1suWf8SZQ"></path><path d="M202.19 969.98C202.19 969.98 180.87 1022.55 191.94 1028.8C191.94 1028.8 319.81 1030.61 319.81 1030.61C319.81 1030.61 339.26 1018.84 317.03 1010.68C317.03 1010.68 298.49 1009.78 286.45 1002.53C274.42 995.28 260.5 981.7 260.5 981.7C260.5 981.7 259.58 961.78 252.16 966.31C247.68 969.2 244.65 973.8 243.83 978.99C235.5 977.19 210.52 971.78 202.19 969.98Z" id="a3t6iPC3DZ"></path><path d="M169.29 986.05C169.29 986.05 145.93 1043.62 158.12 1050.61C158.12 1050.61 298.35 1052.6 298.35 1052.6C298.35 1052.6 319.69 1039.69 295.3 1030.74C295.3 1030.74 274.98 1029.76 261.77 1021.81C248.55 1013.86 233.31 998.93 233.31 998.93C233.31 998.93 232.3 977.07 224.17 982.04C219.25 985.21 215.93 990.26 215.03 995.95C205.88 993.97 178.44 988.03 169.29 986.05Z" id="bqDhmsxok"></path><path d="M289.23 620.5C280.7 695.61 275.95 737.33 275 745.67C275 745.67 269.88 805.28 254.68 818.18C254.68 818.18 254.68 837.06 249.56 843.02C248.85 850.86 243.16 913.65 242.44 921.5C242.44 921.5 252.61 950.29 251.6 955.29C251.6 955.29 255.66 976.15 254.65 978.14C254.65 978.14 205.86 978.14 205.86 978.14C206.54 967.47 209.93 914.17 216.03 818.21L247.53 595.71L289.23 620.5Z" id="a1cay7ZR2v"></path><path d="M289.23 620.5C280.7 695.61 275.95 737.33 275 745.67C275 745.67 269.88 805.28 254.68 818.18C254.68 818.18 254.68 837.06 249.56 843.02C248.85 850.86 243.16 913.65 242.44 921.5C242.44 921.5 252.61 950.29 251.6 955.29C251.6 955.29 255.66 976.15 254.65 978.14C254.65 978.14 205.86 978.14 205.86 978.14C206.54 967.47 209.93 914.17 216.03 818.21L247.53 595.71L289.23 620.5Z" id="akaVriDlT"></path><path d="M263.83 616.52C263.83 616.52 252.65 718.84 247.57 740.69C244.37 755.08 242.33 769.7 241.47 784.4C241.47 784.4 240.46 816.19 231.3 825.13C225.9 830.36 222.97 837.54 223.19 844.97C223.19 844.97 214.03 945.29 219.11 957.22C219.11 957.22 229.28 979.08 224.24 987.01C224.24 987.01 163.26 994.96 163.26 989C163.26 989 163.26 978.07 160.22 975.09C160.22 975.09 160.22 953.24 160.22 953.24C160.22 953.24 148.03 864.83 159.2 839.01C159.2 839.01 175.47 742.63 175.47 742.63C175.47 742.63 167.33 662.17 157.17 649.26C157.17 649.26 159.2 590.65 159.2 590.65C180.13 595.83 242.9 611.35 263.83 616.52Z" id="a2cO3V3RBV"></path><path d="M241.8 304.28C256.72 312.31 269.2 323.97 281.5 335.48C278.43 325.31 279.09 314.41 283.35 304.65C284.81 301.34 286.75 297.76 285.7 294.29C284.92 291.79 282.7 289.88 280.57 288.26C275.56 284.46 270.31 280.96 264.86 277.78C261.02 275.55 253.24 269.63 248.87 270.27C248.64 276.04 248.53 281.2 245.94 286.54C245.3 287.87 235.67 299.8 235.22 298.8C236.4 301.42 239.23 302.89 241.8 304.28Z" id="a4eBamLJK"></path><path d="M287.19 230.1C264.18 230.1 245.53 248.34 245.53 270.83C245.53 293.33 264.18 311.56 287.19 311.56C310.21 311.56 328.86 293.33 328.86 270.83C328.86 248.34 310.21 230.1 287.19 230.1Z" id="a1f6kvG2gO"></path><path d="M276.02 320.51C276.02 320.51 232.33 294.69 232.33 294.69C232.33 294.69 225.21 293.69 222.16 308.6C222.16 308.6 164.25 319.52 158.14 373.16C152.03 426.79 162.21 505.27 162.21 505.27C162.21 505.27 153.07 573.82 141.89 610.57C141.89 610.57 132.74 618.51 173.39 606.6C214.04 594.68 285.16 640.39 285.16 640.39C285.16 640.39 292.28 633.43 292.28 628.47C292.28 623.5 300.41 594.67 300.41 594.67C300.41 594.67 307.51 472.49 310.56 458.59C313.61 444.68 298.37 369.19 289.23 367.2C286.59 357.86 296.34 332.43 276.02 320.51Z" id="bAgMkjzUT"></path><path d="M270.93 363.22C270.93 363.22 235.38 309.59 235.38 309.59C235.38 309.59 195.75 296.67 162.21 338.37C162.42 340.26 164.05 355.36 164.25 357.25C164.25 357.25 200.83 284.74 240.46 330.43C280.09 376.11 226.23 435.74 226.23 435.74C235.17 421.24 282.11 403.95 270.93 363.22Z" id="b3Pr5ExY"></path><path d="M166.27 503.26L155.89 558.82L151.04 584.72L115.52 584.72L65.73 566.83C65.73 494.73 65.73 454.68 65.73 446.67C65.73 446.67 107.39 366.2 120.6 351.3C133.81 336.41 166.27 340.38 166.27 340.38C166.27 362.09 166.27 416.39 166.27 503.26Z" id="c7WuhFhXR0"></path><path d="M151.04 584.73L115.47 584.73L65.68 566.86L155.88 558.83L155.88 558.83L151.04 584.73Z" id="b6jJn0Szg"></path><path d="M241.47 419.83L164.24 528.12L156.11 530.09L154.08 524.14L154.08 524.14L241.47 419.83Z" id="ahAx8MXAd"></path><path d="M285.56 272.91C288.4 272.64 291.37 272.26 293.64 270.56C297.57 267.6 297.86 261.9 300.74 257.95C304.9 252.23 313.21 251.54 320.4 251.82C324.79 252 329.51 252.26 333.2 249.94C336.89 247.63 338.71 243.06 339.99 238.84C341.51 233.83 342.48 227.72 338.71 224.02C336.14 221.44 332 220.93 329.1 218.66C326.21 216.4 324.86 212.5 323.24 209.11C321.38 204.97 318.45 201.37 314.72 198.69C309.27 194.93 302.3 194.15 295.66 194.22C289.01 194.28 282.34 195.14 275.75 194.34C270.34 193.69 264.95 191.94 259.58 192.72C252.71 193.7 247.04 198.77 243.65 204.69C240.25 210.61 238.82 217.37 237.41 224.01C237.03 225.81 233.95 240.26 233.57 242.07C232.39 247.68 231.2 253.42 232.11 259.07C234.01 270.78 244.61 280.1 245.34 291.92C246.75 285.29 251.49 279.79 257.94 277.29C258.73 276.91 259.63 276.8 260.5 276.98C261.55 277.32 262.16 278.34 262.83 279.21C264.57 281.47 270.04 284.9 273.07 283.3C275.97 281.86 273.89 277.35 277.37 275.04C279.74 273.47 282.71 273.19 285.56 272.91Z" id="a1OQhXZhtp"></path><path d="M543.26 780.43C543.26 780.43 515.83 781.42 511.77 812.21C511.77 812.21 511.77 986.05 511.77 986.05C511.77 986.05 543.26 1008.89 581.88 1005.91C581.88 1005.91 682.47 992.01 682.47 992.01C682.47 975.23 682.47 841.05 682.47 824.28C682.47 799.25 661.11 778.83 635.53 780.27C634.93 780.27 634.25 780.34 633.7 780.41C615.61 780.41 561.35 780.43 543.26 780.43Z" id="a7urZt5rrx"></path><path d="M582.89 993.01C572.8 993.01 564.61 1001.01 564.61 1010.88C564.61 1020.75 572.8 1028.75 582.89 1028.75C592.99 1028.75 601.18 1020.75 601.18 1010.88C601.18 1001.01 592.99 993.01 582.89 993.01Z" id="azhpdbxQH"></path><path d="M682.47 985.06C672.37 985.06 664.19 993.06 664.19 1002.93C664.19 1012.8 672.37 1020.81 682.47 1020.81C692.57 1020.81 700.76 1012.8 700.76 1002.93C700.76 993.06 692.57 985.06 682.47 985.06Z" id="ctTRzEujD"></path><path d="M172.38 460.58C172.38 460.58 165.26 504.27 194.72 500.3C194.72 500.3 209.97 498.31 212.01 500.3C214.04 502.29 289.23 489.38 299.4 478.45C299.4 478.45 311.59 474.48 317.68 480.44C323.78 486.4 384.75 492.36 366.48 474.47C348.21 456.58 319.74 452.62 319.74 452.62C315.88 452.81 284.99 454.4 281.13 454.59C281.13 454.59 260.81 460.56 248.62 454.59C236.43 448.62 201.84 450.69 201.84 450.69C195.95 452.67 178.27 458.6 172.38 460.58Z" id="c201v4B9mr"></path><path d="M168.31 392.03C168.31 400.28 168.31 466.23 168.31 474.47C168.31 474.47 193.71 463.54 198.79 464.53C198.79 464.53 224.2 451.61 224.2 451.61C224.2 451.61 247.57 397.99 245.53 383.1C243.49 368.2 244.52 324.48 214.03 322.5C204.89 336.41 168.31 327.51 168.31 392.03Z" id="a5B85rCEl"></path><path d="M377.63 514.21L406.08 517.19L445.71 484.41L423.35 482.42L423.35 482.42L377.63 514.21Z" id="a1fyXGwDMv"></path><path d="M458.92 530.11C458.92 530.11 470.1 563.9 454.86 573.82C454.86 573.82 414.21 539.04 414.21 539.04C414.21 539.04 386.77 507.26 405.07 500.3C405.07 500.3 430.83 523.65 430.83 523.65C432.43 525.01 440.43 531.79 454.83 544.01C457.01 536.6 458.38 531.96 458.92 530.11Z" id="b3BLRQzShd"></path><path d="M429.96 361.23C429.96 375.22 411.77 386.56 389.32 386.56C366.88 386.56 348.68 375.22 348.68 361.23C348.68 347.24 366.88 335.9 389.32 335.9C411.77 335.9 429.96 347.24 429.96 361.23Z" id="ccXXHNVP8"></path><path d="M396.43 271.35C380.16 271.35 366.96 284.24 366.96 300.15C366.96 316.05 380.16 328.95 396.43 328.95C412.7 328.95 425.89 316.05 425.89 300.15C425.89 284.24 412.7 271.35 396.43 271.35Z" id="bJUwUeYCx"></path><path d="M326.31 245.51C326.31 256.48 308.8 265.38 287.19 265.38C265.59 265.38 248.08 256.48 248.08 245.51C248.08 234.54 265.59 225.65 287.19 225.65C308.8 225.65 326.31 234.54 326.31 245.51Z" id="c1tpd0y0DR"></path><path d="M264.33 248.98C264.33 267.36 258.19 282.26 250.61 282.26C243.04 282.26 236.9 267.36 236.9 248.98C236.9 230.6 243.04 215.7 250.61 215.7C258.19 215.7 264.33 230.6 264.33 248.98Z" id="d2l8CnSIMU"></path><path d="M46.49 1034.65C50.33 1027.75 45.98 1019.3 41.01 1013.15C36.04 1006.99 29.97 1000.63 30.1 992.76C30.29 981.49 42.52 974.84 52.29 968.87C59.54 964.44 66.23 959.19 72.21 953.22C74.72 950.92 76.8 948.21 78.33 945.2C80.36 940.8 80.31 935.79 80.18 930.96C79.75 914.89 78.94 898.83 77.73 882.8" id="fmwyLQWQ"></path><path d="M87.35 867.51C87.08 868.03 85.74 870.63 83.33 875.3C83.4 869.65 83.45 866.51 83.45 865.89C73.96 863.16 63.99 868.47 61.2 877.76C58.41 887.05 63.85 896.78 73.35 899.51C82.85 902.24 92.81 896.92 95.6 887.64C96.16 885.78 96.4 883.84 96.31 881.91C96.03 875.93 92.65 870.5 87.35 867.51Z" id="cKuGSb7Dj"></path><path d="M40.15 1008.36C31.35 1003.92 27.9 993.35 32.44 984.75C36.98 976.15 47.79 972.77 56.59 977.21C60.55 979.21 63.61 982.58 65.17 986.67C64.42 987.27 60.68 990.24 53.94 995.6C61.35 993.92 65.47 992.98 66.3 992.79C66.3 995.59 65.62 998.34 64.3 1000.82C59.76 1009.42 48.95 1012.79 40.15 1008.36Z" id="b3yKzyxQMk"></path><path d="M36.56 950.06C36.56 950.03 36.55 950 36.55 949.97C36.41 947.22 36.94 944.48 38.1 941.98C40.28 937.22 44.5 933.66 49.63 932.24C49.62 932.72 49.59 935.14 49.54 939.48L53.6 931.61C53.6 931.61 53.6 931.61 53.6 931.61C63.48 931.14 71.89 938.59 72.38 948.26C72.38 948.29 72.38 948.32 72.38 948.35C72.48 950.37 72.22 952.4 71.61 954.34C69.4 961.41 62.89 966.35 55.34 966.71C45.45 967.18 37.04 959.73 36.56 950.06Z" id="hPuULIsyl"></path><path d="M80.44 921.46C80.08 911.79 87.8 903.66 97.7 903.31C100.93 903.19 104.13 903.93 106.96 905.45C106.75 906.02 105.69 908.86 103.79 913.96C107.71 910.28 109.88 908.24 110.32 907.83C117.66 914.32 118.23 925.4 111.58 932.58C108.35 936.07 103.82 938.14 99.01 938.33C89.12 938.69 80.8 931.14 80.44 921.46Z" id="fjCb3fl5G"></path><path d="M81.55 888.55C77.39 888.8 72.81 887.83 70.19 884.66C68.77 882.96 68.05 880.81 66.86 878.95C65.72 877.22 64.17 875.79 62.34 874.78C58.04 883.5 61.78 893.98 70.7 898.18C79.61 902.39 90.33 898.73 94.63 890.01C95.19 888.87 95.63 887.68 95.93 886.45C95.25 886.48 94.57 886.53 93.89 886.59C89.75 887.04 85.71 888.3 81.55 888.55Z" id="blpSkdQsc"></path><path d="M80.24 921.52C80.12 918.69 80.69 915.87 81.92 913.3C83.35 914.24 84.58 915.44 85.54 916.84C86.82 918.73 87.59 920.91 89.1 922.65C91.89 925.87 96.68 926.92 101.01 926.72C105.34 926.52 109.54 925.33 113.81 924.94C114.42 924.94 115.03 924.84 115.63 924.83C113.8 932.45 107.02 937.97 99.01 938.33C89.08 938.76 80.68 931.23 80.24 921.52Z" id="cCDVrL3Tz"></path><path d="M36.56 950.06C36.56 950.03 36.55 950 36.55 949.97C36.41 947.22 36.94 944.48 38.1 941.98C39.6 942.92 40.9 944.13 41.94 945.54C43.34 947.47 44.21 949.69 45.79 951.46C48.82 954.77 53.92 955.93 58.51 955.82C63.11 955.71 67.24 954.65 71.66 954.33C69.44 961.41 62.91 966.37 55.34 966.71C45.45 967.18 37.04 959.73 36.56 950.06Z" id="ad8DPQu08"></path><path d="M40.59 1009.66C31.55 1005.7 27.5 995.33 31.55 986.49C33.02 987.44 34.35 988.59 35.49 989.91C37.19 991.96 38.32 994.26 40.29 996.17C43.97 999.7 49.9 1001.18 55.18 1001.29C58.23 1001.3 61.27 1001.15 64.3 1000.82C60.25 1009.66 49.64 1013.62 40.59 1009.66Z" id="jIqHPZNm"></path><path d="M37.85 1023.31C37.85 1023.31 59.61 1016.78 60.73 1021.56C60.73 1021.56 82.03 1045.34 66.03 1045.41C66.03 1045.41 28.82 1042.97 24.56 1040.41C20.29 1037.84 19.38 1026.71 19.38 1026.71C23.08 1026.03 33.57 1026.29 37.85 1023.31Z" id="e2rjAPX1Iz"></path><path d="M24.84 1038.74C21.59 1036.82 20.29 1029.87 19.86 1026.66C19.81 1026.66 19.43 1026.66 19.38 1026.66C19.38 1026.66 20.28 1037.84 24.5 1040.43C24.5 1040.43 49.96 1045.54 65.98 1045.44C70.6 1045.44 72.19 1043.8 72.11 1041.41C71.51 1042.82 69.75 1043.72 66.31 1043.75C50.29 1043.88 29.1 1041.31 24.84 1038.74Z" id="a1AjHE0voL"></path></defs><g><g><g><use xlink:href="#e35MLKDX88" opacity="1" fill="#3f3d56" fill-opacity="1"></use><g><use xlink:href="#e35MLKDX88" opacity="1" fill-opacity="0" stroke="#000000" stroke-width="1" stroke-opacity="0"></use></g></g><g><use xlink:href="#a11k0mPL4E" opacity="1" fill="#3f3d56" fill-opacity="1"></use><g><use xlink:href="#a11k0mPL4E" opacity="1" fill-opacity="0" stroke="#000000" stroke-width="1" stroke-opacity="0"></use></g></g><g><use xlink:href="#d1eklKAdv" opacity="1" fill="#3f3d56" fill-opacity="1"></use><g><use xlink:href="#d1eklKAdv" opacity="1" fill-opacity="0" stroke="#000000" stroke-width="1" stroke-opacity="0"></use></g></g><g><use xlink:href="#g7Ffppg562" opacity="1" fill="#3f3d56" fill-opacity="1"></use><g><use xlink:href="#g7Ffppg562" opacity="1" fill-opacity="0" stroke="#000000" stroke-width="1" stroke-opacity="0"></use></g></g><g><use xlink:href="#d2K7U3QIQN" opacity="1" fill="#3f3d56" fill-opacity="1"></use><g><use xlink:href="#d2K7U3QIQN" opacity="1" fill-opacity="0" stroke="#000000" stroke-width="1" stroke-opacity="0"></use></g></g><g><use xlink:href="#d4dCXoDRuQ" opacity="1" fill="#3f3d56" fill-opacity="1"></use><g><use xlink:href="#d4dCXoDRuQ" opacity="1" fill-opacity="0" stroke="#000000" stroke-width="1" stroke-opacity="0"></use></g></g><g><use xlink:href="#apzvRp2mY" opacity="1" fill="#3f3d56" fill-opacity="1"></use><g><use xlink:href="#apzvRp2mY" opacity="1" fill-opacity="0" stroke="#000000" stroke-width="1" stroke-opacity="0"></use></g></g><g><use xlink:href="#b5PgSJcdeL" opacity="1" fill="#fbbebe" fill-opacity="1"></use><g><use xlink:href="#b5PgSJcdeL" opacity="1" fill-opacity="0" stroke="#000000" stroke-width="1" stroke-opacity="0"></use></g></g><g><use xlink:href="#aIV5gyiVr" opacity="1" fill="#fbbebe" fill-opacity="1"></use><g><use xlink:href="#aIV5gyiVr" opacity="1" fill-opacity="0" stroke="#000000" stroke-width="1" stroke-opacity="0"></use></g></g><g><use xlink:href="#a29YWcgKPq" opacity="1" fill="#3c354c" fill-opacity="1"></use><g><use xlink:href="#a29YWcgKPq" opacity="1" fill-opacity="0" stroke="#000000" stroke-width="1" stroke-opacity="0"></use></g></g><g><use xlink:href="#n4kiQnBu" opacity="1" fill="#3c354c" fill-opacity="1"></use><g><use xlink:href="#n4kiQnBu" opacity="1" fill-opacity="0" stroke="#000000" stroke-width="1" stroke-opacity="0"></use></g></g><g><use xlink:href="#bHpz5mAbo" opacity="1" fill="#3f3d56" fill-opacity="1"></use><g><use xlink:href="#bHpz5mAbo" opacity="1" fill-opacity="0" stroke="#000000" stroke-width="1" stroke-opacity="0"></use></g></g><g><use xlink:href="#b15UblzFvh" opacity="1" fill="#fbbebe" fill-opacity="1"></use><g><use xlink:href="#b15UblzFvh" opacity="1" fill-opacity="0" stroke="#000000" stroke-width="1" stroke-opacity="0"></use></g></g><g><use xlink:href="#b7L7yAciOG" opacity="1" fill="#fbbebe" fill-opacity="1"></use><g><use xlink:href="#b7L7yAciOG" opacity="1" fill-opacity="0" stroke="#000000" stroke-width="1" stroke-opacity="0"></use></g></g><g><use xlink:href="#c1mI0rUGhs" opacity="1" fill="#fbbebe" fill-opacity="1"></use><g><use xlink:href="#c1mI0rUGhs" opacity="1" fill-opacity="0" stroke="#000000" stroke-width="1" stroke-opacity="0"></use></g></g><g><use xlink:href="#hbIAeWn9d" opacity="1" fill="#f2f2f2" fill-opacity="1"></use><g><use xlink:href="#hbIAeWn9d" opacity="1" fill-opacity="0" stroke="#000000" stroke-width="1" stroke-opacity="0"></use></g></g><g><use xlink:href="#e1U1jYYV5k" opacity="1" fill="#850009" fill-opacity="1"></use><g><use xlink:href="#e1U1jYYV5k" opacity="1" fill-opacity="0" stroke="#000000" stroke-width="1" stroke-opacity="0"></use></g></g><g><use xlink:href="#f2C5g1Updr" opacity="1" fill="#850009" fill-opacity="1"></use><g><use xlink:href="#f2C5g1Updr" opacity="1" fill-opacity="0" stroke="#000000" stroke-width="1" stroke-opacity="0"></use></g></g><g><use xlink:href="#c1qfHX0tnV" opacity="1" fill="#850009" fill-opacity="1"></use><g><use xlink:href="#c1qfHX0tnV" opacity="1" fill-opacity="0" stroke="#000000" stroke-width="1" stroke-opacity="0"></use></g></g><g><use xlink:href="#c72olOaKsU" opacity="1" fill="#a0616a" fill-opacity="1"></use><g><use xlink:href="#c72olOaKsU" opacity="1" fill-opacity="0" stroke="#000000" stroke-width="1" stroke-opacity="0"></use></g></g><g><use xlink:href="#l1suWf8SZQ" opacity="1" fill="#3f3d56" fill-opacity="1"></use><g><use xlink:href="#l1suWf8SZQ" opacity="1" fill-opacity="0" stroke="#000000" stroke-width="1" stroke-opacity="0"></use></g></g><g><use xlink:href="#a3t6iPC3DZ" opacity="1" fill="#000000" fill-opacity="1"></use><g><use xlink:href="#a3t6iPC3DZ" opacity="1" fill-opacity="0" stroke="#000000" stroke-width="1" stroke-opacity="0"></use></g></g><g><use xlink:href="#bqDhmsxok" opacity="1" fill="#3f3d56" fill-opacity="1"></use><g><use xlink:href="#bqDhmsxok" opacity="1" fill-opacity="0" stroke="#000000" stroke-width="1" stroke-opacity="0"></use></g></g><g><use xlink:href="#a1cay7ZR2v" opacity="1" fill="#3c354c" fill-opacity="1"></use><g><use xlink:href="#a1cay7ZR2v" opacity="1" fill-opacity="0" stroke="#000000" stroke-width="1" stroke-opacity="0"></use></g></g><g><use xlink:href="#akaVriDlT" opacity="1" fill="#000000" fill-opacity="1"></use><g><use xlink:href="#akaVriDlT" opacity="1" fill-opacity="0" stroke="#000000" stroke-width="1" stroke-opacity="0"></use></g></g><g><use xlink:href="#a2cO3V3RBV" opacity="1" fill="#3c354c" fill-opacity="1"></use><g><use xlink:href="#a2cO3V3RBV" opacity="1" fill-opacity="0" stroke="#000000" stroke-width="1" stroke-opacity="0"></use></g></g><g><use xlink:href="#a4eBamLJK" opacity="1" fill="#a0616a" fill-opacity="1"></use><g><use xlink:href="#a4eBamLJK" opacity="1" fill-opacity="0" stroke="#000000" stroke-width="1" stroke-opacity="0"></use></g></g><g><use xlink:href="#a1f6kvG2gO" opacity="1" fill="#a0616a" fill-opacity="1"></use><g><use xlink:href="#a1f6kvG2gO" opacity="1" fill-opacity="0" stroke="#000000" stroke-width="1" stroke-opacity="0"></use></g></g><g><use xlink:href="#bAgMkjzUT" opacity="1" fill="#3f3d56" fill-opacity="1"></use><g><use xlink:href="#bAgMkjzUT" opacity="1" fill-opacity="0" stroke="#000000" stroke-width="1" stroke-opacity="0"></use></g></g><g><use xlink:href="#b3Pr5ExY" opacity="1" fill="#850009" fill-opacity="1"></use><g><use xlink:href="#b3Pr5ExY" opacity="1" fill-opacity="0" stroke="#000000" stroke-width="1" stroke-opacity="0"></use></g></g><g><use xlink:href="#c7WuhFhXR0" opacity="1" fill="#850009" fill-opacity="1"></use><g><use xlink:href="#c7WuhFhXR0" opacity="1" fill-opacity="0" stroke="#000000" stroke-width="1" stroke-opacity="0"></use></g></g><g><use xlink:href="#b6jJn0Szg" opacity="1" fill="#000000" fill-opacity="1"></use><g><use xlink:href="#b6jJn0Szg" opacity="1" fill-opacity="0" stroke="#000000" stroke-width="1" stroke-opacity="0"></use></g></g><g><use xlink:href="#ahAx8MXAd" opacity="1" fill="#850009" fill-opacity="1"></use><g><use xlink:href="#ahAx8MXAd" opacity="1" fill-opacity="0" stroke="#000000" stroke-width="1" stroke-opacity="0"></use></g></g><g><use xlink:href="#a1OQhXZhtp" opacity="1" fill="#3f3d56" fill-opacity="1"></use><g><use xlink:href="#a1OQhXZhtp" opacity="1" fill-opacity="0" stroke="#000000" stroke-width="1" stroke-opacity="0"></use></g></g><g><use xlink:href="#a7urZt5rrx" opacity="1" fill="#3c354c" fill-opacity="1"></use><g><use xlink:href="#a7urZt5rrx" opacity="1" fill-opacity="0" stroke="#000000" stroke-width="1" stroke-opacity="0"></use></g></g><g><use xlink:href="#azhpdbxQH" opacity="1" fill="#3f3d56" fill-opacity="1"></use><g><use xlink:href="#azhpdbxQH" opacity="1" fill-opacity="0" stroke="#000000" stroke-width="1" stroke-opacity="0"></use></g></g><g><use xlink:href="#ctTRzEujD" opacity="1" fill="#3f3d56" fill-opacity="1"></use><g><use xlink:href="#ctTRzEujD" opacity="1" fill-opacity="0" stroke="#000000" stroke-width="1" stroke-opacity="0"></use></g></g><g><use xlink:href="#c201v4B9mr" opacity="1" fill="#a0616a" fill-opacity="1"></use><g><use xlink:href="#c201v4B9mr" opacity="1" fill-opacity="0" stroke="#000000" stroke-width="1" stroke-opacity="0"></use></g></g><g><use xlink:href="#a5B85rCEl" opacity="1" fill="#3f3d56" fill-opacity="1"></use><g><use xlink:href="#a5B85rCEl" opacity="1" fill-opacity="0" stroke="#000000" stroke-width="1" stroke-opacity="0"></use></g></g><g><use xlink:href="#a1fyXGwDMv" opacity="1" fill="#3f3d56" fill-opacity="1"></use><g><use xlink:href="#a1fyXGwDMv" opacity="1" fill-opacity="0" stroke="#000000" stroke-width="1" stroke-opacity="0"></use></g></g><g><use xlink:href="#b3BLRQzShd" opacity="1" fill="#fbbebe" fill-opacity="1"></use><g><use xlink:href="#b3BLRQzShd" opacity="1" fill-opacity="0" stroke="#000000" stroke-width="1" stroke-opacity="0"></use></g></g><g><use xlink:href="#ccXXHNVP8" opacity="1" fill="#3f3d56" fill-opacity="1"></use><g><use xlink:href="#ccXXHNVP8" opacity="1" fill-opacity="0" stroke="#000000" stroke-width="1" stroke-opacity="0"></use></g></g><g><use xlink:href="#bJUwUeYCx" opacity="1" fill="#3f3d56" fill-opacity="1"></use><g><use xlink:href="#bJUwUeYCx" opacity="1" fill-opacity="0" stroke="#000000" stroke-width="1" stroke-opacity="0"></use></g></g><g><use xlink:href="#c1tpd0y0DR" opacity="1" fill="#3f3d56" fill-opacity="1"></use><g><use xlink:href="#c1tpd0y0DR" opacity="1" fill-opacity="0" stroke="#000000" stroke-width="1" stroke-opacity="0"></use></g></g><g><use xlink:href="#d2l8CnSIMU" opacity="1" fill="#3f3d56" fill-opacity="1"></use><g><use xlink:href="#d2l8CnSIMU" opacity="1" fill-opacity="0" stroke="#000000" stroke-width="1" stroke-opacity="0"></use></g></g><g><use xlink:href="#fmwyLQWQ" opacity="1" fill="#000000" fill-opacity="0"></use><g><use xlink:href="#fmwyLQWQ" opacity="1" fill-opacity="0" stroke="#3f3d56" stroke-width="4" stroke-opacity="1"></use></g></g><g><use xlink:href="#cKuGSb7Dj" opacity="1" fill="#57b894" fill-opacity="1"></use><g><use xlink:href="#cKuGSb7Dj" opacity="1" fill-opacity="0" stroke="#000000" stroke-width="1" stroke-opacity="0"></use></g></g><g><use xlink:href="#b3yKzyxQMk" opacity="1" fill="#57b894" fill-opacity="1"></use><g><use xlink:href="#b3yKzyxQMk" opacity="1" fill-opacity="0" stroke="#000000" stroke-width="1" stroke-opacity="0"></use></g></g><g><use xlink:href="#hPuULIsyl" opacity="1" fill="#57b894" fill-opacity="1"></use><g><use xlink:href="#hPuULIsyl" opacity="1" fill-opacity="0" stroke="#000000" stroke-width="1" stroke-opacity="0"></use></g></g><g><use xlink:href="#fjCb3fl5G" opacity="1" fill="#57b894" fill-opacity="1"></use><g><use xlink:href="#fjCb3fl5G" opacity="1" fill-opacity="0" stroke="#000000" stroke-width="1" stroke-opacity="0"></use></g></g><g><use xlink:href="#blpSkdQsc" opacity="1" fill="#000000" fill-opacity="1"></use><g><use xlink:href="#blpSkdQsc" opacity="1" fill-opacity="0" stroke="#000000" stroke-width="1" stroke-opacity="0"></use></g></g><g><use xlink:href="#cCDVrL3Tz" opacity="1" fill="#000000" fill-opacity="1"></use><g><use xlink:href="#cCDVrL3Tz" opacity="1" fill-opacity="0" stroke="#000000" stroke-width="1" stroke-opacity="0"></use></g></g><g><use xlink:href="#ad8DPQu08" opacity="1" fill="#000000" fill-opacity="1"></use><g><use xlink:href="#ad8DPQu08" opacity="1" fill-opacity="0" stroke="#000000" stroke-width="1" stroke-opacity="0"></use></g></g><g><use xlink:href="#jIqHPZNm" opacity="1" fill="#000000" fill-opacity="1"></use><g><use xlink:href="#jIqHPZNm" opacity="1" fill-opacity="0" stroke="#000000" stroke-width="1" stroke-opacity="0"></use></g></g><g><use xlink:href="#e2rjAPX1Iz" opacity="1" fill="#656380" fill-opacity="1"></use><g><use xlink:href="#e2rjAPX1Iz" opacity="1" fill-opacity="0" stroke="#000000" stroke-width="1" stroke-opacity="0"></use></g></g><g><use xlink:href="#a1AjHE0voL" opacity="1" fill="#000000" fill-opacity="1"></use><g><use xlink:href="#a1AjHE0voL" opacity="1" fill-opacity="0" stroke="#000000" stroke-width="1" stroke-opacity="0"></use></g></g></g></g></svg>